{
.appVersion = "3141";
.formatVersion = 3;
axes = (
{
name = Weight;
tag = wght;
}
);
customParameters = (
{
name = "Use Typo Metrics";
value = 1;
},
{
name = fsType;
value = (
);
}
);
date = "2020-10-31 04:20:23 +0000";
familyName = Khmer;
featurePrefixes = (
{
code = "lookup SUB_0 {
	sub uni17B7 by uni17B7.r;
	sub uni17B8 by uni17B8.r;
	sub uni17B9 by uni17B9.r;
	sub uni17BA by uni17BA.r;
	sub uni17BE by uni17B8.r;
	sub uni17C6 by uni17C6.r;
	sub uni17C9 by uni17C9.r;
	sub uni17CD by uni17CD.r;
	sub uni17B7_17CD by iMark_17CDkhmer.r;
} SUB_0;
lookup SUB_1 {
	sub uni17B7 by uni17B7.a;
	sub uni17B8 by uni17B8.a;
	sub uni17B9 by uni17B9.a;
	sub uni17BA by uni17BA.a;
	sub uni17BE by uni17B8.a;
	sub uni17C6 by uni17C6.a;
	sub uni17CE by uni17CE.a;
	sub uni17D0 by uni17D0.a;
} SUB_1;
lookup SUB_10 {
	sub uni17C9 uni17B6 by uni17C9;
	sub uni17C9 uni17C4 by uni17C9;
	sub uni17C9 uni17C5 by uni17C9;
	sub uni17CA uni17B6 by uni17CA;
	sub uni17CA uni17C4 by uni17CA;
	sub uni17CA uni17C5 by uni17CA;
	sub uni17CC uni17B6 by uni17CC;
	sub uni17CC uni17C4 by uni17CC;
	sub uni17CC uni17C5 by uni17CC;
	sub uni17C9.r uni17B6 by uni17C9.r;
	sub uni17C9.r uni17C4 by uni17C9.r;
	sub uni17C9.r uni17C5 by uni17C9.r;
} SUB_10;
lookup SUB_11 {
	sub uni17D2_178A by coeng_178Akhmer.r;
	sub uni17D2_178F by coeng_178Akhmer.r;
	sub uni17D2_1797 by coeng_1797khmer.r;
	sub uni17D2_1798 by coeng_1798khmer.r;
} SUB_11;
lookup SUB_12 {
	sub uni17BB by uni17BB.b;
	sub uni17BC by uni17BC.b;
	sub uni17BD by uni17BD.b;
} SUB_12;
lookup SUB_13 {
	sub uni17BF by uni17BF.b;
	sub uni17C0 by uni17C0.b;
} SUB_13;
lookup SUB_14 {
	sub uni17CA by uni17BB;
} SUB_14;
lookup SUB_15 {
	sub uni17C9 by uni17BB;
	sub uni17C9.r by uni17BB;
} SUB_15;
lookup SUB_16 {
	sub uni1789 by uni1789.a;
} SUB_16;
lookup SUB_17 {
	sub uni17D2_1789 by coeng_1789khmer.a;
} SUB_17;
lookup SUB_18 {
	sub uni17D2_178A by coeng_178Akhmer.n;
	sub uni17D2_178B by coeng_178Bkhmer.n;
	sub uni17D2_178C by coeng_178Ckhmer.n;

glyphs = (
{
glyphname = A;
lastChange = "2022-11-15 15:09:44 +0000";
layers = (
{
layerId = m01;
shapes = (
{
closed = 1;
nodes = (
(364,54,l),
(221,54,l),
(363,435,l),
(1075,435,l),
(1218,54,l),
(1075,54,l),
(1075,0,l),
(1384,0,l),
(1384,54,l),
(1277,54,l),
(752,1456,l),
(686,1456,l),
(162,54,l),
(55,54,l),
(55,0,l),
(364,0,l)
);
},
{
closed = 1;
nodes = (
(689,1309,l),
(716,1391,l),
(722,1391,l),
(750,1309,l),
(1055,489,l),
(383,489,l)
);
}
);
width = 1472;
},
{
layerId = "5711A9A5-FB70-4E23-B0BA-A0F8E72F65B6";
shapes = (
{
closed = 1;
nodes = (
(421,87,l),
(293,96,l),
(415,425,l),
(1068,425,l),
(1189,96,l),
(1061,87,l),
(1061,0,l),
(1420,0,l),
(1420,87,l),
(1313,94,l),
(800,1456,l),
(686,1456,l),
(169,94,l),
(62,87,l),
(62,0,l),
(421,0,l)
);
},
{
closed = 1;
nodes = (
(719,1245,l),
(740,1304,l),
(746,1304,l),
(766,1245,l),
(1029,530,l),
(454,530,l)
);
}
);
width = 1500;
},
{
layerId = "C589F45C-3E8C-4D57-BBA0-76FE1AFDA3B7";
shapes = (
{
closed = 1;
nodes = (
(1045,0,l),
(1463,0,l),
(1463,126,l),
(1356,141,l),
(856,1456,l),
(687,1456,l),
(178,141,l),
(70,126,l),
(70,0,l),
(487,0,l),
(487,126,l),
(377,145,l),
(476,413,l),
(1059,413,l),
(1155,145,l),
(1045,126,l)
);
},
{
closed = 1;
nodes = (
(537,578,l),
(755,1170,l),
(767,1203,l),
(773,1203,l),
(785,1170,l),
(999,578,l)
);
}
);
userData = {
assembly = "NPUSHB[ ]	/* 42 values pushed */
19 1 4 2 15 12 7 4 3 5 1 0 2 76 0 4 0 0 1 4 0 104 0 2 2 31 77 3 1 1 1 32 1 78 18 19 19 19 17 5 8 27 
CALL[ ]	/* CallFunction */";
};
width = 1533;
},
{
layerId = "B9892E43-DBAA-41C3-9AC8-C95A43C93A60";
shapes = (
{
closed = 1;
nodes = (
(500,393,l),
(1012,393,l),
(1076,193,l),
(975,175,l),
(975,0,l),
(1471,0,l),
(1471,175,l),
(1367,190,l),
(907,1456,l),
(608,1456,l),
(145,190,l),
(41,175,l),
(41,0,l),
(537,0,l),
(537,175,l),
(436,193,l)
);
},
{
closed = 1;
nodes = (
(738,1104,l),
(753,1151,l),
(759,1151,l),
(773,1107,l),
(943,608,l),
(569,608,l)
);
}
);
userData = {
assembly = "NPUSHB[ ]	/* 43 values pushed */
21 1 4 1 15 12 11 8 3 0 6 0 3 2 76 0 4 0 3 0 4 3 104 0 1 1 31 77 2 1 0 0 32 0 78 20 19 19 19 17 5 8 27 
CALL[ ]	/* CallFunction */";
};
width = 1512;
},
{
layerId = "14DC179B-5B87-47A1-B3E1-5CE1808186AA";
shapes = (
{
closed = 1;
nodes = (
(568,205,l),
(473,223,l),
(515,381,l),
(983,381,l),
(1027,223,l),
(932,205,l),
(932,0,l),
(1476,0,l),
(1476,205,l),
(1374,220,l),
(939,1456,l),
(559,1456,l),
(125,220,l),
(23,205,l),
(23,0,l),
(568,0,l)
);
},
{
closed = 1;
nodes = (
(727,1063,l),
(744,1119,l),
(750,1119,l),
(766,1068,l),
(908,627,l),
(589,627,l)
);
}
);
width = 1499;
}
);
note = A;
unicode = 65;
},
{
glyphname = B;
lastChange = "2022-11-15 15:09:44 +0000";
layers = (
{
layerId = m01;
shapes = (
{
closed = 1;
nodes = (
(980,0,o),
(1159,146,o),
(1159,401,cs),
(1159,580,o),
(1023,729,o),
(837,753,c),
(1000,782,o),
(1093,910,o),
(1093,1083,cs),
(1093,1332,o),
(918,1456,o),
(617,1456,cs),
(71,1456,l),
(71,1402,l),
(234,1402,l),
(234,54,l),
(71,54,l),
(71,0,l),
(709,0,ls)
);
},
{
closed = 1;
nodes = (
(288,719,l),
(719,719,ls),
(882,719,o),
(999,657,o),
(1060,561,cs),
(1090,512,o),
(1105,458,o),
(1105,399,cs),
(1105,182,o),
(954,54,o),
(709,54,cs),
(288,54,l)
);
},
{
closed = 1;
nodes = (
(288,1402,l),
(617,1402,ls),
(894,1402,o),
(1038,1295,o),
(1038,1087,cs),
(1038,875,o),
(902,773,o),
(637,773,cs),
(288,773,l)
);
}
);
width = 1247;
},
{
layerId = "5711A9A5-FB70-4E23-B0BA-A0F8E72F65B6";
shapes = (
{
closed = 1;
nodes = (
(1019,0,o),
(1202,145,o),
(1202,406,cs),
(1202,587,o),
(1080,733,o),
(898,763,c),
(1049,802,o),
(1140,921,o),
(1140,1073,cs),
(1140,1329,o),
(962,1456,o),
(659,1456,cs),
(76,1456,l),
(76,1368,l),
(239,1355,l),
(239,100,l),
(76,87,l),
(76,0,l),
(738,0,ls)
);
},
{
closed = 1;
nodes = (
(359,702,l),
(757,702,ls),
(897,702,o),
(996,649,o),
(1045,559,cs),
(1070,514,o),
(1082,462,o),
(1082,404,cs),
(1082,212,o),
(953,100,o),
(738,100,cs),
(359,100,l)
);
},
{
closed = 1;
nodes = (
(359,1355,l),
(659,1355,ls),
(895,1355,o),
(1019,1262,o),
(1019,1077,cs),
(1019,898,o),
(902,803,o),
(694,803,cs),
(359,803,l)
);
}
);
width = 1282;
},
{
layerId = "C589F45C-3E8C-4D57-BBA0-76FE1AFDA3B7";
shapes = (
{
closed = 1;
nodes = (
(1067,0,o),
(1253,144,o),
(1253,411,cs),
(1253,594,o),
(1146,739,o),
(970,775,c),
(1105,824,o),
(1194,933,o),
(1194,1062,cs),
(1194,1325,o),
(1013,1456,o),
(709,1456,cs),
(81,1456,l),
(81,1329,l),
(244,1301,l),
(244,154,l),
(81,126,l),
(81,0,l),
(771,0,ls)
);
},
{
closed = 1;
nodes = (
(441,154,l),
(441,683,l),
(801,683,ls),
(971,683,o),
(1055,583,o),
(1055,409,cs),
(1055,246,o),
(951,154,o),
(771,154,cs)
);
},
{
closed = 1;
nodes = (
(441,837,l),
(441,1301,l),
(709,1301,ls),
(896,1301,o),
(997,1223,o),
(997,1066,cs),
(997,925,o),
(901,837,o),
(760,837,cs)
);
}
);
userData = {
assembly = "NPUSHB[ ]	/* 81 values pushed */
5 1 4 1 14 1 2 5 2 1 0 3 3 76 4 1 4 3 1 3 2 75 0 5 7 1 2 3 5 2 103 8 1 4 4 1 95 0 1 1 31 77 0 3 3 0 95 6 1 0 0 32 0 78 32 31 22 21 1 0 35 33 31 39 32 39 25 23 21 30 22 30 9 6 0 20 1 20 9 8 22 
CALL[ ]	/* CallFunction */";
};
width = 1322;
},
{
layerId = "B9892E43-DBAA-41C3-9AC8-C95A43C93A60";
shapes = (
{
closed = 1;
nodes = (
(1109,0,o),
(1301,145,o),
(1301,424,cs),
(1301,600,o),
(1206,720,o),
(1039,757,c),
(1175,810,o),
(1248,922,o),
(1248,1057,cs),
(1248,1322,o),
(1046,1456,o),
(703,1456,cs),
(56,1456,l),
(56,1280,l),
(211,1250,l),
(211,205,l),
(56,175,l),
(56,0,l),
(772,0,ls)
);
},
{
closed = 1;
nodes = (
(503,644,l),
(794,644,ls),
(943,644,o),
(1010,569,o),
(1010,424,cs),
(1010,292,o),
(927,224,o),
(772,224,cs),
(503,224,l)
);
},
{
closed = 1;
nodes = (
(503,1231,l),
(703,1231,ls),
(871,1231,o),
(956,1169,o),
(956,1034,cs),
(956,911,o),
(869,846,o),
(713,846,cs),
(503,846,l)
);
}
);
width = 1344;
},
{
layerId = "14DC179B-5B87-47A1-B3E1-5CE1808186AA";
shapes = (
{
closed = 1;
nodes = (
(1136,0,o),
(1331,147,o),
(1331,432,cs),
(1331,589,o),
(1251,709,o),
(1082,746,c),
(1218,802,o),
(1282,917,o),
(1282,1054,cs),
(1282,1321,o),
(1066,1456,o),
(699,1456,cs),
(40,1456,l),
(40,1250,l),
(191,1218,l),
(191,237,l),
(40,205,l),
(40,0,l),
(773,0,ls)
);
},
{
closed = 1;
nodes = (
(542,620,l),
(790,620,ls),
(924,620,o),
(982,559,o),
(982,433,cs),
(982,321,o),
(912,267,o),
(773,267,cs),
(542,267,l)
);
},
{
closed = 1;
nodes = (
(542,1188,l),
(699,1188,ls),
(855,1188,o),
(931,1135,o),
(931,1014,cs),
(931,903,o),
(849,852,o),
(684,852,cs),
(542,852,l)
);
}
);
width = 1358;
}
);
note = B;
unicode = 66;
},
{
glyphname = C;
lastChange = "2022-11-15 15:09:44 +0000";
layers = (
{
layerId = m01;
shapes = (
{
closed = 1;
nodes = (
(958,-21,o),
(1106,19,o),
(1231,103,c),
(1231,372,l),
(1176,372,l),
(1176,137,l),
(1081,73,o),
(938,33,o),
(791,33,cs),
(538,33,o),
(353,155,o),
(257,361,cs),
(208,464,o),
(184,583,o),
(184,719,cs),
(184,739,ls),
(184,1011,o),
(288,1222,o),
(464,1337,cs),
(551,1394,o),
(652,1423,o),
(767,1423,cs),
(895,1423,o),
(980,1402,o),
(1053,1365,cs),
(1089,1346,o),
(1125,1323,o),
(1161,1296,c),
(1161,1062,l),
(1216,1062,l),
(1216,1319,l),
(1097,1423,o),
(978,1477,o),
(767,1477,cs),
(514,1477,o),
(317,1346,o),
(210,1124,cs),
(157,1013,o),
(130,884,o),
(130,737,cs),
(130,719,ls),
(130,426,o),
(236,197,o),
(434,73,cs),
(533,10,o),
(653,-21,o),
(794,-21,cs)
);
}
);
width = 1348;
},
{
layerId = "5711A9A5-FB70-4E23-B0BA-A0F8E72F65B6";
shapes = (
{
closed = 1;
nodes = (
(932,-21,o),
(1084,19,o),
(1203,96,c),
(1203,386,l),
(1102,386,l),
(1092,166,l),
(1013,115,o),
(893,82,o),
(770,82,cs),
(542,82,o),
(378,190,o),
(292,381,cs),
(249,476,o),
(227,589,o),
(227,718,cs),
(227,739,ls),
(227,990,o),
(315,1185,o),
(471,1293,cs),
(548,1346,o),
(640,1373,o),
(746,1373,cs),
(895,1373,o),
(994,1337,o),
(1085,1269,c),
(1095,1037,l),
(1197,1037,l),
(1197,1320,l),
(1085,1417,o),
(946,1477,o),
(746,1477,cs),
(487,1477,o),
(290,1344,o),
(186,1122,cs),
(133,1011,o),
(107,882,o),
(107,737,cs),
(107,718,ls),
(107,268,o),
(348,-21,o),
(769,-21,cs)
);
}
);
width = 1321;
},
{
layerId = "C589F45C-3E8C-4D57-BBA0-76FE1AFDA3B7";
shapes = (
{
closed = 1;
nodes = (
(900,-21,o),
(1061,19,o),
(1170,87,c),
(1170,403,l),
(1016,403,l),
(994,200,l),
(935,164,o),
(839,139,o),
(746,139,cs),
(546,139,o),
(405,232,o),
(333,405,cs),
(296,491,o),
(278,595,o),
(278,717,cs),
(278,740,ls),
(278,1082,o),
(437,1314,o),
(721,1314,cs),
(840,1314,o),
(932,1287,o),
(996,1237,c),
(1017,1007,l),
(1174,1007,l),
(1174,1321,l),
(1071,1412,o),
(910,1477,o),
(722,1477,cs),
(455,1477,o),
(260,1341,o),
(157,1119,cs),
(106,1008,o),
(80,881,o),
(80,738,cs),
(80,717,ls),
(80,252,o),
(320,-21,o),
(739,-21,cs)
);
}
);
userData = {
assembly = "NPUSHB[ ]	/* 66 values pushed */
12 1 3 1 34 1 0 4 2 76 0 2 3 5 3 2 5 128 0 5 4 3 5 4 126 0 3 3 1 97 0 1 1 37 77 0 4 4 0 97 6 1 0 0 38 0 78 1 0 33 32 29 27 20 18 14 13 10 8 0 36 1 36 7 8 22 
CALL[ ]	/* CallFunction */";
};
width = 1290;
},
{
layerId = "B9892E43-DBAA-41C3-9AC8-C95A43C93A60";
shapes = (
{
closed = 1;
nodes = (
(956,-21,o),
(1130,37,o),
(1243,112,c),
(1243,460,l),
(1026,460,l),
(996,255,l),
(927,224,o),
(838,203,o),
(754,203,cs),
(586,203,o),
(461,289,o),
(394,438,cs),
(361,513,o),
(344,601,o),
(344,703,cs),
(344,754,ls),
(344,958,o),
(409,1110,o),
(528,1191,cs),
(587,1232,o),
(658,1252,o),
(741,1252,cs),
(845,1252,o),
(930,1224,o),
(996,1176,c),
(1026,955,l),
(1243,955,l),
(1243,1307,l),
(1107,1422,o),
(931,1477,o),
(734,1477,cs),
(453,1477,o),
(245,1346,o),
(135,1128,cs),
(80,1019,o),
(52,893,o),
(52,752,cs),
(52,703,ls),
(52,407,o),
(171,186,o),
(380,68,cs),
(485,9,o),
(608,-21,o),
(749,-21,cs)
);
}
);
userData = {
assembly = "NPUSHB[ ]	/* 66 values pushed */
12 1 3 1 34 1 0 4 2 76 0 2 3 5 3 2 5 128 0 5 4 3 5 4 126 0 3 3 1 97 0 1 1 37 77 0 4 4 0 97 6 1 0 0 38 0 78 1 0 33 32 29 27 20 18 14 13 10 8 0 36 1 36 7 8 22 
CALL[ ]	/* CallFunction */";
};
width = 1321;
},
{
layerId = "14DC179B-5B87-47A1-B3E1-5CE1808186AA";
shapes = (
{
closed = 1;
nodes = (
(990,-21,o),
(1172,48,o),
(1288,128,c),
(1288,495,l),
(1032,495,l),
(997,289,l),
(921,261,o),
(838,243,o),
(759,243,cs),
(611,243,o),
(495,323,o),
(432,459,cs),
(401,526,o),
(385,605,o),
(385,694,cs),
(385,763,ls),
(385,954,o),
(448,1089,o),
(559,1160,cs),
(614,1195,o),
(679,1213,o),
(753,1213,cs),
(850,1213,o),
(927,1185,o),
(996,1138,c),
(1031,923,l),
(1286,923,l),
(1286,1298,l),
(1129,1429,o),
(944,1477,o),
(741,1477,cs),
(450,1477,o),
(235,1348,o),
(121,1133,cs),
(64,1025,o),
(35,901,o),
(35,761,cs),
(35,694,ls),
(35,390,o),
(167,175,o),
(384,63,cs),
(493,7,o),
(616,-21,o),
(755,-21,cs)
);
}
);
width = 1340;
}
);
note = C;
unicode = 67;
},
{
glyphname = D;
lastChange = "2022-11-15 15:09:44 +0000";
layers = (
{
layerId = m01;
shapes = (
{
closed = 1;
nodes = (
(868,0,o),
(1060,131,o),
(1168,347,cs),
(1221,455,o),
(1248,579,o),
(1248,719,cs),
(1248,737,ls),
(1248,1017,o),
(1134,1240,o),
(948,1364,cs),
(855,1425,o),
(748,1456,o),
(629,1456,cs),
(71,1456,l),
(71,1402,l),
(234,1402,l),
(234,54,l),
(71,54,l),
(71,0,l),
(629,0,ls)
);
},
{
closed = 1;
nodes = (
(288,1402,l),
(629,1402,ls),
(846,1402,o),
(1023,1279,o),
(1121,1080,cs),
(1170,980,o),
(1194,867,o),
(1194,740,cs),
(1194,719,ls),
(1194,464,o),
(1090,256,o),
(920,141,cs),
(835,83,o),
(738,54,o),
(629,54,cs),
(288,54,l)
);
}
);
width = 1386;
},
{
layerId = "5711A9A5-FB70-4E23-B0BA-A0F8E72F65B6";
shapes = (
{
closed = 1;
nodes = (
(891,0,o),
(1084,132,o),
(1189,348,cs),
(1242,455,o),
(1268,578,o),
(1268,716,cs),
(1268,740,ls),
(1268,1017,o),
(1154,1240,o),
(966,1364,cs),
(872,1425,o),
(763,1456,o),
(639,1456,cs),
(76,1456,l),
(76,1368,l),
(239,1355,l),
(239,100,l),
(76,87,l),
(76,0,l),
(644,0,ls)
);
},
{
closed = 1;
nodes = (
(359,1355,l),
(639,1355,ls),
(842,1355,o),
(998,1241,o),
(1084,1057,cs),
(1127,964,o),
(1148,859,o),
(1148,742,cs),
(1148,716,ls),
(1148,484,o),
(1057,290,o),
(905,182,cs),
(829,127,o),
(740,100,o),
(639,100,cs),
(359,100,l)
);
}
);
width = 1372;
},
{
layerId = "C589F45C-3E8C-4D57-BBA0-76FE1AFDA3B7";
shapes = (
{
closed = 1;
nodes = (
(918,0,o),
(1111,133,o),
(1214,349,cs),
(1265,456,o),
(1291,577,o),
(1291,712,cs),
(1291,743,ls),
(1291,1019,o),
(1179,1241,o),
(988,1364,cs),
(892,1425,o),
(780,1456,o),
(651,1456,cs),
(81,1456,l),
(81,1329,l),
(244,1301,l),
(244,154,l),
(81,126,l),
(81,0,l),
(661,0,ls)
);
},
{
closed = 1;
nodes = (
(441,154,l),
(441,1301,l),
(651,1301,ls),
(835,1301,o),
(969,1197,o),
(1041,1030,cs),
(1076,946,o),
(1094,851,o),
(1094,745,cs),
(1094,712,ls),
(1094,507,o),
(1020,330,o),
(888,230,cs),
(822,179,o),
(743,154,o),
(651,154,cs)
);
}
);
userData = {
assembly = "NPUSHB[ ]	/* 60 values pushed */
5 1 2 1 2 1 0 3 2 76 4 1 2 3 1 3 2 75 5 1 2 2 1 95 0 1 1 31 77 0 3 3 0 95 4 1 0 0 32 0 78 18 17 1 0 21 19 17 28 18 28 9 6 0 16 1 16 6 8 22 
CALL[ ]	/* CallFunction */";
};
width = 1356;
},
{
layerId = "B9892E43-DBAA-41C3-9AC8-C95A43C93A60";
shapes = (
{
closed = 1;
nodes = (
(959,0,o),
(1163,130,o),
(1273,346,cs),
(1328,453,o),
(1355,576,o),
(1355,714,cs),
(1355,741,ls),
(1355,1020,o),
(1238,1243,o),
(1039,1365,cs),
(940,1426,o),
(825,1456,o),
(695,1456,cs),
(56,1456,l),
(56,1280,l),
(213,1246,l),
(213,208,l),
(56,175,l),
(56,0,l),
(699,0,ls)
);
},
{
closed = 1;
nodes = (
(505,1232,l),
(684,1232,ls),
(845,1232,o),
(958,1144,o),
(1018,997,cs),
(1047,923,o),
(1062,838,o),
(1062,742,cs),
(1062,714,ls),
(1062,525,o),
(1001,371,o),
(889,287,cs),
(833,244,o),
(765,223,o),
(684,223,cs),
(505,223,l)
);
}
);
width = 1426;
},
{
layerId = "14DC179B-5B87-47A1-B3E1-5CE1808186AA";
shapes = (
{
closed = 1;
nodes = (
(985,0,o),
(1194,128,o),
(1309,344,cs),
(1366,451,o),
(1395,575,o),
(1395,716,cs),
(1395,739,ls),
(1395,1020,o),
(1274,1243,o),
(1071,1365,cs),
(970,1426,o),
(853,1456,o),
(722,1456,cs),
(40,1456,l),
(40,1250,l),
(193,1212,l),
(193,242,l),
(40,205,l),
(40,0,l),
(722,0,ls)
);
},
{
closed = 1;
nodes = (
(544,1189,l),
(704,1189,ls),
(919,1189,o),
(1042,1027,o),
(1042,740,cs),
(1042,716,ls),
(1042,442,o),
(924,266,o),
(704,266,cs),
(544,266,l)
);
}
);
width = 1470;
}
);
note = D;
unicode = 68;
},
{
glyphname = E;
lastChange = "2022-11-15 15:09:44 +0000";
layers = (
{
layerId = m01;
shapes = (
{
closed = 1;
nodes = (
(1120,293,l),
(1066,293,l),
(1066,54,l),
(288,54,l),
(288,732,l),
(918,732,l),
(918,786,l),
(288,786,l),
(288,1402,l),
(1036,1402,l),
(1036,1163,l),
(1090,1163,l),
(1090,1456,l),
(71,1456,l),
(71,1402,l),
(234,1402,l),
(234,54,l),
(71,54,l),
(71,0,l),
(1120,0,l)
);
}
);
width = 1270;
},
{
layerId = "5711A9A5-FB70-4E23-B0BA-A0F8E72F65B6";
shapes = (
{
closed = 1;
nodes = (
(1152,319,l),
(1051,319,l),
(1041,97,l),
(359,97,l),
(359,706,l),
(946,706,l),
(946,806,l),
(359,806,l),
(359,1357,l),
(1010,1357,l),
(1020,1137,l),
(1122,1137,l),
(1122,1456,l),
(76,1456,l),
(76,1368,l),
(239,1355,l),
(239,100,l),
(76,87,l),
(76,0,l),
(1152,0,l)
);
}
);
width = 1287;
},
{
layerId = "C589F45C-3E8C-4D57-BBA0-76FE1AFDA3B7";
shapes = (
{
closed = 1;
nodes = (
(978,830,l),
(441,830,l),
(441,1304,l),
(979,1304,l),
(1001,1106,l),
(1159,1106,l),
(1159,1456,l),
(81,1456,l),
(81,1329,l),
(244,1301,l),
(244,154,l),
(81,126,l),
(81,0,l),
(1190,0,l),
(1190,349,l),
(1033,349,l),
(1011,148,l),
(441,148,l),
(441,675,l),
(978,675,l)
);
}
);
userData = {
assembly = "NPUSHB[ ]	/* 18 values pushed */
10 1 5 3 9 1 4 5 8 1 0 1 7 1 2 0 4 76 
MPPEM[ ]	/* MeasurePixelPerEm */
PUSHB[ ]	/* 1 value pushed */
12 
LT[ ]	/* LessThan */
IF[ ]	/* If */
NPUSHB[ ]	/* 44 values pushed */
0 4 5 6 5 4 114 0 1 7 0 0 1 114 0 6 8 1 7 1 6 7 103 0 5 5 3 95 0 3 3 31 77 0 0 0 2 96 0 2 2 32 2 78 
ELSE[ ]	/* Else */
NPUSHB[ ]	/* 46 values pushed */
0 4 5 6 5 4 6 128 0 1 7 0 7 1 0 128 0 6 8 1 7 1 6 7 103 0 5 5 3 95 0 3 3 31 77 0 0 0 2 96 0 2 2 32 2 78 
EIF[ ]	/* EndIf */
NPUSHB[ ]	/* 16 values pushed */
0 0 0 19 0 19 17 17 17 21 17 17 17 9 8 29 
CALL[ ]	/* CallFunction */";
};
width = 1306;
},
{
layerId = "B9892E43-DBAA-41C3-9AC8-C95A43C93A60";
shapes = (
{
closed = 1;
nodes = (
(973,224,l),
(503,224,l),
(503,640,l),
(996,640,l),
(996,865,l),
(503,865,l),
(503,1231,l),
(949,1231,l),
(962,1063,l),
(1186,1063,l),
(1186,1456,l),
(56,1456,l),
(56,1280,l),
(211,1250,l),
(211,205,l),
(56,175,l),
(56,0,l),
(1208,0,l),
(1208,398,l),
(986,398,l)
);
}
);
userData = {
assembly = "NPUSHB[ ]	/* 12 values pushed */
6 5 2 3 1 4 3 2 0 6 2 76 
MPPEM[ ]	/* MeasurePixelPerEm */
PUSHB[ ]	/* 1 value pushed */
14 
LT[ ]	/* LessThan */
IF[ ]	/* If */
NPUSHB[ ]	/* 44 values pushed */
0 2 3 4 3 2 114 8 1 7 5 6 6 7 114 0 4 0 5 7 4 5 103 0 3 3 1 95 0 1 1 31 77 0 6 6 0 96 0 0 0 32 0 78 
ELSE[ ]	/* Else */
MPPEM[ ]	/* MeasurePixelPerEm */
PUSHB[ ]	/* 1 value pushed */
16 
LT[ ]	/* LessThan */
IF[ ]	/* If */
NPUSHB[ ]	/* 45 values pushed */
0 2 3 4 3 2 114 8 1 7 5 6 5 7 6 128 0 4 0 5 7 4 5 103 0 3 3 1 95 0 1 1 31 77 0 6 6 0 96 0 0 0 32 0 78 
ELSE[ ]	/* Else */
NPUSHB[ ]	/* 46 values pushed */
0 2 3 4 3 2 4 128 8 1 7 5 6 5 7 6 128 0 4 0 5 7 4 5 103 0 3 3 1 95 0 1 1 31 77 0 6 6 0 96 0 0 0 32 0 78 
EIF[ ]	/* EndIf */
EIF[ ]	/* EndIf */
NPUSHB[ ]	/* 16 values pushed */
0 0 0 19 0 19 17 17 17 17 17 21 17 9 8 29 
CALL[ ]	/* CallFunction */";
};
width = 1308;
},
{
layerId = "14DC179B-5B87-47A1-B3E1-5CE1808186AA";
shapes = (
{
closed = 1;
nodes = (
(1219,428,l),
(957,428,l),
(949,271,l),
(542,271,l),
(542,618,l),
(1007,618,l),
(1007,887,l),
(542,887,l),
(542,1186,l),
(930,1186,l),
(938,1036,l),
(1203,1036,l),
(1203,1456,l),
(40,1456,l),
(40,1250,l),
(191,1218,l),
(191,237,l),
(40,205,l),
(40,0,l),
(1219,0,l)
);
}
);
width = 1309;
}
);
note = E;
unicode = 69;
},
{
glyphname = F;
lastChange = "2022-11-15 15:09:44 +0000";
layers = (
{
layerId = m01;
shapes = (
{
closed = 1;
nodes = (
(451,54,l),
(288,54,l),
(288,716,l),
(934,716,l),
(934,772,l),
(288,772,l),
(288,1402,l),
(1082,1402,l),
(1082,1163,l),
(1136,1163,l),
(1136,1456,l),
(71,1456,l),
(71,1402,l),
(234,1402,l),
(234,54,l),
(71,54,l),
(71,0,l),
(451,0,l)
);
}
);
width = 1246;
},
{
layerId = "5711A9A5-FB70-4E23-B0BA-A0F8E72F65B6";
shapes = (
{
closed = 1;
nodes = (
(522,87,l),
(359,100,l),
(359,683,l),
(952,683,l),
(952,784,l),
(359,784,l),
(359,1356,l),
(1042,1356,l),
(1052,1137,l),
(1154,1137,l),
(1154,1456,l),
(76,1456,l),
(76,1368,l),
(239,1355,l),
(239,100,l),
(76,87,l),
(76,0,l),
(522,0,l)
);
}
);
width = 1251;
},
{
layerId = "C589F45C-3E8C-4D57-BBA0-76FE1AFDA3B7";
shapes = (
{
closed = 1;
nodes = (
(441,1303,l),
(996,1303,l),
(1018,1106,l),
(1176,1106,l),
(1176,1456,l),
(81,1456,l),
(81,1329,l),
(244,1301,l),
(244,154,l),
(81,126,l),
(81,0,l),
(604,0,l),
(604,126,l),
(441,154,l),
(441,644,l),
(974,644,l),
(974,799,l),
(441,799,l)
);
}
);
userData = {
assembly = "NPUSHB[ ]	/* 17 values pushed */
10 1 4 2 9 1 3 4 8 7 4 3 4 1 0 3 76 
MPPEM[ ]	/* MeasurePixelPerEm */
PUSHB[ ]	/* 1 value pushed */
12 
LT[ ]	/* LessThan */
IF[ ]	/* If */
NPUSHB[ ]	/* 32 values pushed */
0 3 4 5 4 3 114 6 1 5 0 0 1 5 0 103 0 4 4 2 95 0 2 2 31 77 0 1 1 32 1 78 
ELSE[ ]	/* Else */
NPUSHB[ ]	/* 33 values pushed */
0 3 4 5 4 3 5 128 6 1 5 0 0 1 5 0 103 0 4 4 2 95 0 2 2 31 77 0 1 1 32 1 78 
EIF[ ]	/* EndIf */
NPUSHB[ ]	/* 14 values pushed */
0 0 0 17 0 17 17 17 21 19 17 7 8 27 
CALL[ ]	/* CallFunction */";
};
width = 1256;
},
{
layerId = "B9892E43-DBAA-41C3-9AC8-C95A43C93A60";
shapes = (
{
closed = 1;
nodes = (
(503,605,l),
(1013,605,l),
(1013,830,l),
(503,830,l),
(503,1231,l),
(978,1231,l),
(991,1057,l),
(1215,1057,l),
(1215,1456,l),
(56,1456,l),
(56,1280,l),
(211,1250,l),
(211,205,l),
(56,175,l),
(56,0,l),
(659,0,l),
(659,175,l),
(503,205,l)
);
}
);
userData = {
assembly = "NPUSHB[ ]	/* 14 values pushed */
6 5 2 3 1 17 4 3 0 4 0 5 2 76 
MPPEM[ ]	/* MeasurePixelPerEm */
PUSHB[ ]	/* 1 value pushed */
14 
LT[ ]	/* LessThan */
IF[ ]	/* If */
NPUSHB[ ]	/* 31 values pushed */
0 2 3 4 3 2 114 0 4 0 5 0 4 5 103 0 3 3 1 95 0 1 1 31 77 0 0 0 32 0 78 
ELSE[ ]	/* Else */
NPUSHB[ ]	/* 32 values pushed */
0 2 3 4 3 2 4 128 0 4 0 5 0 4 5 103 0 3 3 1 95 0 1 1 31 77 0 0 0 32 0 78 
EIF[ ]	/* EndIf */
NPUSHB[ ]	/* 9 values pushed */
17 17 17 17 21 17 6 8 28 
CALL[ ]	/* CallFunction */";
};
width = 1265;
},
{
layerId = "14DC179B-5B87-47A1-B3E1-5CE1808186AA";
shapes = (
{
closed = 1;
nodes = (
(693,205,l),
(542,237,l),
(542,581,l),
(1037,581,l),
(1037,849,l),
(542,849,l),
(542,1186,l),
(967,1186,l),
(974,1027,l),
(1239,1027,l),
(1239,1456,l),
(40,1456,l),
(40,1250,l),
(191,1218,l),
(191,237,l),
(40,205,l),
(40,0,l),
(693,0,l)
);
}
);
width = 1271;
}
);
note = F;
unicode = 70;
},
{
glyphname = G;
lastChange = "2022-11-15 15:09:44 +0000";
layers = (
{
layerId = m01;
shapes = (
{
closed = 1;
nodes = (
(977,-21,o),
(1127,38,o),
(1248,111,c),
(1248,620,l),
(879,620,l),
(879,565,l),
(1194,565,l),
(1194,141,l),
(1093,84,o),
(947,33,o),
(768,33,cs),
(523,33,o),
(346,155,o),
(254,362,cs),
(207,465,o),
(184,585,o),
(184,720,cs),
(184,760,ls),
(184,1021,o),
(291,1226,o),
(463,1339,cs),
(549,1395,o),
(646,1423,o),
(754,1423,cs),
(949,1423,o),
(1060,1373,o),
(1159,1296,c),
(1159,1072,l),
(1213,1072,l),
(1213,1324,l),
(1093,1417,o),
(959,1477,o),
(754,1477,cs),
(514,1477,o),
(319,1349,o),
(211,1133,cs),
(157,1025,o),
(130,900,o),
(130,758,cs),
(130,720,ls),
(130,427,o),
(236,197,o),
(428,73,cs),
(523,10,o),
(637,-21,o),
(770,-21,cs)
);
}
);
width = 1417;
},
{
layerId = "5711A9A5-FB70-4E23-B0BA-A0F8E72F65B6";
shapes = (
{
closed = 1;
nodes = (
(983,-21,o),
(1134,47,o),
(1238,123,c),
(1238,657,l),
(819,657,l),
(819,560,l),
(1118,556,l),
(1118,170,l),
(1030,122,o),
(911,82,o),
(754,82,cs),
(531,82,o),
(373,194,o),
(290,386,cs),
(248,481,o),
(227,592,o),
(227,718,cs),
(227,752,ls),
(227,999,o),
(324,1190,o),
(478,1295,cs),
(555,1347,o),
(641,1373,o),
(738,1373,cs),
(902,1373,o),
(1005,1336,o),
(1089,1275,c),
(1099,1057,l),
(1202,1057,l),
(1202,1328,l),
(1086,1419,o),
(944,1477,o),
(729,1477,cs),
(490,1477,o),
(295,1348,o),
(188,1130,cs),
(134,1021,o),
(107,894,o),
(107,750,cs),
(107,718,ls),
(107,426,o),
(216,197,o),
(410,73,cs),
(507,10,o),
(622,-21,o),
(755,-21,cs)
);
}
);
width = 1384;
},
{
layerId = "C589F45C-3E8C-4D57-BBA0-76FE1AFDA3B7";
shapes = (
{
closed = 1;
nodes = (
(991,-21,o),
(1142,57,o),
(1226,136,c),
(1226,700,l),
(750,700,l),
(750,555,l),
(1029,545,l),
(1029,203,l),
(958,166,o),
(871,140,o),
(738,140,cs),
(446,140,o),
(278,364,o),
(278,716,cs),
(278,742,ls),
(278,971,o),
(361,1147,o),
(494,1243,cs),
(561,1291,o),
(636,1315,o),
(719,1315,cs),
(848,1315,o),
(942,1293,o),
(1007,1250,c),
(1028,1039,l),
(1190,1039,l),
(1190,1333,l),
(1078,1421,o),
(926,1477,o),
(699,1477,cs),
(462,1477,o),
(268,1346,o),
(161,1126,cs),
(107,1015,o),
(80,887,o),
(80,740,cs),
(80,716,ls),
(80,425,o),
(191,197,o),
(388,73,cs),
(487,10,o),
(603,-21,o),
(738,-21,cs)
);
}
);
userData = {
assembly = "NPUSHB[ ]	/* 73 values pushed */
12 1 3 1 30 1 4 5 35 1 0 4 3 76 0 2 3 6 3 2 6 128 0 6 0 5 4 6 5 103 0 3 3 1 97 0 1 1 37 77 0 4 4 0 97 7 1 0 0 38 0 78 1 0 34 33 32 31 28 26 19 17 14 13 10 8 0 37 1 37 8 8 22 
CALL[ ]	/* CallFunction */";
};
width = 1346;
},
{
layerId = "B9892E43-DBAA-41C3-9AC8-C95A43C93A60";
shapes = (
{
closed = 1;
nodes = (
(973,-21,o),
(1154,40,o),
(1283,132,c),
(1283,721,l),
(782,721,l),
(782,516,l),
(990,500,l),
(990,253,l),
(934,225,o),
(845,203,o),
(742,203,cs),
(486,203,o),
(338,386,o),
(338,690,cs),
(338,742,ls),
(338,1054,o),
(491,1252,o),
(731,1252,cs),
(844,1252,o),
(935,1222,o),
(987,1177,c),
(1028,982,l),
(1244,982,l),
(1244,1305,l),
(1108,1420,o),
(918,1477,o),
(709,1477,cs),
(438,1477,o),
(236,1345,o),
(128,1124,cs),
(74,1013,o),
(47,885,o),
(47,740,cs),
(47,690,ls),
(47,409,o),
(159,189,o),
(363,69,cs),
(465,9,o),
(588,-21,o),
(733,-21,cs)
);
}
);
userData = {
assembly = "NPUSHB[ ]	/* 72 values pushed */
12 1 3 1 32 31 30 3 4 5 35 1 0 4 3 76 0 2 3 5 3 2 5 128 0 5 4 3 5 4 126 0 3 3 1 97 0 1 1 37 77 0 4 4 0 98 6 1 0 0 38 0 78 1 0 34 33 28 26 19 17 14 13 10 8 0 37 1 37 7 8 22 
CALL[ ]	/* CallFunction */";
};
width = 1373;
},
{
layerId = "14DC179B-5B87-47A1-B3E1-5CE1808186AA";
shapes = (
{
closed = 1;
nodes = (
(961,-21,o),
(1161,29,o),
(1318,130,c),
(1318,734,l),
(802,734,l),
(802,492,l),
(966,472,l),
(966,284,l),
(919,263,o),
(828,242,o),
(744,242,cs),
(584,242,o),
(474,316,o),
(418,445,cs),
(389,510,o),
(375,586,o),
(375,674,cs),
(375,742,ls),
(375,1026,o),
(500,1213,o),
(738,1213,cs),
(842,1213,o),
(930,1179,o),
(975,1132,c),
(1028,947,l),
(1278,947,l),
(1278,1288,l),
(1126,1419,o),
(914,1477,o),
(715,1477,cs),
(424,1477,o),
(216,1344,o),
(108,1123,cs),
(54,1012,o),
(27,885,o),
(27,740,cs),
(27,674,ls),
(27,399,o),
(139,184,o),
(348,67,cs),
(452,8,o),
(579,-21,o),
(730,-21,cs)
);
}
);
width = 1390;
}
);
note = G;
unicode = 71;
},
{
glyphname = H;
lastChange = "2022-11-15 15:09:44 +0000";
layers = (
{
layerId = m01;
shapes = (
{
closed = 1;
nodes = (
(451,54,l),
(288,54,l),
(288,695,l),
(1218,695,l),
(1218,54,l),
(1055,54,l),
(1055,0,l),
(1435,0,l),
(1435,54,l),
(1272,54,l),
(1272,1402,l),
(1435,1402,l),
(1435,1456,l),
(1055,1456,l),
(1055,1402,l),
(1218,1402,l),
(1218,749,l),
(288,749,l),
(288,1402,l),
(451,1402,l),
(451,1456,l),
(71,1456,l),
(71,1402,l),
(234,1402,l),
(234,54,l),
(71,54,l),
(71,0,l),
(451,0,l)
);
}
);
width = 1506;
},
{
layerId = "5711A9A5-FB70-4E23-B0BA-A0F8E72F65B6";
shapes = (
{
closed = 1;
nodes = (
(522,87,l),
(359,100,l),
(359,671,l),
(1181,671,l),
(1181,100,l),
(1018,87,l),
(1018,0,l),
(1464,0,l),
(1464,87,l),
(1301,100,l),
(1301,1355,l),
(1464,1368,l),
(1464,1456,l),
(1018,1456,l),
(1018,1368,l),
(1181,1355,l),
(1181,772,l),
(359,772,l),
(359,1355,l),
(522,1368,l),
(522,1456,l),
(76,1456,l),
(76,1368,l),
(239,1355,l),
(239,100,l),
(76,87,l),
(76,0,l),
(522,0,l)
);
}
);
width = 1539;
},
{
layerId = "C589F45C-3E8C-4D57-BBA0-76FE1AFDA3B7";
shapes = (
{
closed = 1;
nodes = (
(974,0,l),
(1497,0,l),
(1497,126,l),
(1334,154,l),
(1334,1301,l),
(1497,1329,l),
(1497,1456,l),
(974,1456,l),
(974,1329,l),
(1137,1301,l),
(1137,798,l),
(441,798,l),
(441,1301,l),
(604,1329,l),
(604,1456,l),
(81,1456,l),
(81,1329,l),
(244,1301,l),
(244,154,l),
(81,126,l),
(81,0,l),
(604,0,l),
(604,126,l),
(441,154,l),
(441,643,l),
(1137,643,l),
(1137,154,l),
(974,126,l)
);
}
);
userData = {
assembly = "NPUSHB[ ]	/* 54 values pushed */
22 21 18 17 14 13 10 9 8 3 2 27 24 23 8 7 4 3 0 8 1 0 2 76 0 3 0 0 1 3 0 104 4 1 2 2 31 77 5 1 1 1 32 1 78 21 19 19 21 19 17 6 8 28 
CALL[ ]	/* CallFunction */";
};
width = 1578;
},
{
layerId = "B9892E43-DBAA-41C3-9AC8-C95A43C93A60";
shapes = (
{
closed = 1;
nodes = (
(503,605,l),
(1097,605,l),
(1097,205,l),
(941,175,l),
(941,0,l),
(1544,0,l),
(1544,175,l),
(1388,205,l),
(1388,1250,l),
(1544,1280,l),
(1544,1456,l),
(941,1456,l),
(941,1280,l),
(1097,1250,l),
(1097,830,l),
(503,830,l),
(503,1250,l),
(659,1280,l),
(659,1456,l),
(56,1456,l),
(56,1280,l),
(211,1250,l),
(211,205,l),
(56,175,l),
(56,0,l),
(659,0,l),
(659,175,l),
(503,205,l)
);
}
);
userData = {
assembly = "NPUSHB[ ]	/* 54 values pushed */
18 17 14 13 10 9 6 5 8 2 1 27 24 23 20 19 4 3 0 8 0 5 2 76 0 2 0 5 0 2 5 104 3 1 1 1 31 77 4 1 0 0 32 0 78 19 21 19 19 21 17 6 8 28 
CALL[ ]	/* CallFunction */";
};
width = 1600;
},
{
layerId = "14DC179B-5B87-47A1-B3E1-5CE1808186AA";
shapes = (
{
closed = 1;
nodes = (
(693,205,l),
(542,237,l),
(542,581,l),
(1072,581,l),
(1072,237,l),
(921,205,l),
(921,0,l),
(1573,0,l),
(1573,205,l),
(1422,237,l),
(1422,1218,l),
(1573,1250,l),
(1573,1456,l),
(921,1456,l),
(921,1250,l),
(1072,1218,l),
(1072,850,l),
(542,850,l),
(542,1218,l),
(693,1250,l),
(693,1456,l),
(40,1456,l),
(40,1250,l),
(191,1218,l),
(191,237,l),
(40,205,l),
(40,0,l),
(693,0,l)
);
}
);
width = 1613;
}
);
note = H;
unicode = 72;
},
{
glyphname = I;
lastChange = "2022-11-15 15:09:44 +0000";
layers = (
{
layerId = m01;
shapes = (
{
closed = 1;
nodes = (
(451,54,l),
(288,54,l),
(288,1402,l),
(451,1402,l),
(451,1456,l),
(71,1456,l),
(71,1402,l),
(234,1402,l),
(234,54,l),
(71,54,l),
(71,0,l),
(451,0,l)
);
}
);
width = 522;
},
{
layerId = "5711A9A5-FB70-4E23-B0BA-A0F8E72F65B6";
shapes = (
{
closed = 1;
nodes = (
(522,87,l),
(359,100,l),
(359,1355,l),
(522,1368,l),
(522,1456,l),
(76,1456,l),
(76,1368,l),
(239,1355,l),
(239,100,l),
(76,87,l),
(76,0,l),
(522,0,l)
);
}
);
width = 597;
},
{
layerId = "C589F45C-3E8C-4D57-BBA0-76FE1AFDA3B7";
shapes = (
{
closed = 1;
nodes = (
(81,1329,l),
(244,1301,l),
(244,154,l),
(81,126,l),
(81,0,l),
(604,0,l),
(604,126,l),
(441,154,l),
(441,1301,l),
(604,1329,l),
(604,1456,l),
(81,1456,l)
);
}
);
userData = {
assembly = "NPUSHB[ ]	/* 35 values pushed */
10 9 8 7 4 3 2 1 8 0 1 1 76 2 1 1 1 31 77 0 0 0 32 0 78 0 0 0 11 0 11 21 3 8 23 
CALL[ ]	/* CallFunction */";
};
width = 685;
},
{
layerId = "B9892E43-DBAA-41C3-9AC8-C95A43C93A60";
shapes = (
{
closed = 1;
nodes = (
(503,1250,l),
(658,1280,l),
(658,1456,l),
(56,1456,l),
(56,1280,l),
(211,1250,l),
(211,205,l),
(56,175,l),
(56,0,l),
(658,0,l),
(658,175,l),
(503,205,l)
);
}
);
userData = {
assembly = "NPUSHB[ ]	/* 29 values pushed */
11 10 9 6 5 4 3 0 8 0 1 1 76 0 1 1 31 77 0 0 0 32 0 78 21 17 2 8 24 
CALL[ ]	/* CallFunction */";
};
width = 714;
},
{
layerId = "14DC179B-5B87-47A1-B3E1-5CE1808186AA";
shapes = (
{
closed = 1;
nodes = (
(692,205,l),
(541,237,l),
(541,1218,l),
(692,1250,l),
(692,1456,l),
(40,1456,l),
(40,1250,l),
(191,1218,l),
(191,237,l),
(40,205,l),
(40,0,l),
(692,0,l)
);
}
);
width = 732;
}
);
note = I;
unicode = 73;
},
{
glyphname = J;
lastChange = "2022-11-15 15:09:44 +0000";
layers = (
{
layerId = m01;
shapes = (
{
closed = 1;
nodes = (
(631,-21,o),
(759,55,o),
(828,188,cs),
(863,254,o),
(880,332,o),
(880,422,cs),
(880,1402,l),
(1043,1402,l),
(1043,1456,l),
(640,1456,l),
(640,1402,l),
(826,1402,l),
(826,422,ls),
(826,263,o),
(761,144,o),
(654,81,cs),
(600,49,o),
(539,33,o),
(471,33,cs),
(227,33,o),
(94,164,o),
(94,401,c),
(48,401,l),
(46,395,l),
(40,128,o),
(198,-21,o),
(471,-21,cs)
);
}
);
width = 1137;
},
{
layerId = "5711A9A5-FB70-4E23-B0BA-A0F8E72F65B6";
shapes = (
{
closed = 1;
nodes = (
(659,-21,o),
(788,55,o),
(856,187,cs),
(889,252,o),
(906,329,o),
(906,418,cs),
(906,1355,l),
(1069,1368,l),
(1069,1456,l),
(597,1456,l),
(597,1367,l),
(786,1355,l),
(786,418,ls),
(786,216,o),
(674,81,o),
(484,81,cs),
(280,81,o),
(169,193,o),
(166,410,c),
(54,410,l),
(52,404,l),
(56,130,o),
(221,-21,o),
(486,-21,cs)
);
}
);
width = 1152;
},
{
layerId = "C589F45C-3E8C-4D57-BBA0-76FE1AFDA3B7";
shapes = (
{
closed = 1;
nodes = (
(781,-21,o),
(937,144,o),
(937,413,cs),
(937,1301,l),
(1100,1329,l),
(1100,1456,l),
(546,1456,l),
(546,1327,l),
(740,1301,l),
(740,413,ls),
(740,244,o),
(662,136,o),
(500,136,cs),
(343,136,o),
(256,225,o),
(251,421,c),
(62,421,l),
(60,415,l),
(72,132,o),
(248,-21,o),
(503,-21,cs)
);
}
);
userData = {
assembly = "NPUSHB[ ]	/* 49 values pushed */
19 18 15 14 4 1 3 1 76 0 1 3 2 3 1 2 128 0 3 3 31 77 0 2 2 0 98 4 1 0 0 38 0 78 1 0 17 16 10 8 6 4 0 23 1 23 5 8 22 
CALL[ ]	/* CallFunction */";
};
width = 1169;
},
{
layerId = "B9892E43-DBAA-41C3-9AC8-C95A43C93A60";
shapes = (
{
closed = 1;
nodes = (
(847,-21,o),
(1019,150,o),
(1019,437,cs),
(1019,1250,l),
(1175,1280,l),
(1175,1456,l),
(532,1456,l),
(532,1280,l),
(728,1250,l),
(728,437,ls),
(728,290,o),
(646,207,o),
(524,207,cs),
(400,207,o),
(322,272,o),
(311,463,c),
(37,463,l),
(35,457,l),
(47,138,o),
(241,-21,o),
(553,-21,cs)
);
}
);
userData = {
assembly = "NPUSHB[ ]	/* 49 values pushed */
19 18 15 14 4 1 3 1 76 0 1 3 2 3 1 2 128 0 3 3 31 77 0 2 2 0 98 4 1 0 0 38 0 78 1 0 17 16 10 8 6 4 0 23 1 23 5 8 22 
CALL[ ]	/* CallFunction */";
};
width = 1202;
},
{
layerId = "14DC179B-5B87-47A1-B3E1-5CE1808186AA";
shapes = (
{
closed = 1;
nodes = (
(893,-21,o),
(1070,157,o),
(1070,452,cs),
(1070,1218,l),
(1222,1250,l),
(1222,1456,l),
(523,1456,l),
(523,1251,l),
(721,1218,l),
(721,452,ls),
(721,356,o),
(681,298,o),
(626,271,cs),
(598,258,o),
(569,251,o),
(539,251,cs),
(435,251,o),
(361,301,o),
(348,489,c),
(21,489,l),
(19,483,l),
(31,142,o),
(235,-21,o),
(584,-21,cs)
);
}
);
width = 1222;
}
);
note = J;
unicode = 74;
},
{
glyphname = K;
lastChange = "2022-11-15 15:09:44 +0000";
layers = (
{
layerId = m01;
shapes = (
{
closed = 1;
nodes = (
(1282,1402,l),
(1282,1456,l),
(921,1456,l),
(921,1402,l),
(1089,1402,l),
(1091,1397,l),
(288,496,l),
(288,1402,l),
(451,1402,l),
(451,1456,l),
(71,1456,l),
(71,1402,l),
(234,1402,l),
(234,54,l),
(71,54,l),
(71,0,l),
(451,0,l),
(451,54,l),
(288,54,l),
(288,411,l),
(611,775,l),
(1133,60,l),
(1130,54,l),
(967,54,l),
(967,0,l),
(1328,0,l),
(1328,54,l),
(1210,54,l),
(650,819,l),
(1167,1402,l)
);
}
);
width = 1388;
},
{
layerId = "5711A9A5-FB70-4E23-B0BA-A0F8E72F65B6";
shapes = (
{
closed = 1;
nodes = (
(1325,1368,l),
(1325,1456,l),
(915,1456,l),
(915,1368,l),
(1056,1362,l),
(1055,1357,l),
(359,580,l),
(359,1355,l),
(522,1368,l),
(522,1456,l),
(76,1456,l),
(76,1368,l),
(239,1355,l),
(239,100,l),
(76,87,l),
(76,0,l),
(522,0,l),
(522,87,l),
(359,100,l),
(359,424,l),
(637,733,l),
(1099,97,l),
(1098,94,l),
(955,87,l),
(955,0,l),
(1374,0,l),
(1374,87,l),
(1248,99,l),
(716,820,l),
(1200,1357,l)
);
}
);
width = 1440;
},
{
layerId = "C589F45C-3E8C-4D57-BBA0-76FE1AFDA3B7";
shapes = (
{
closed = 1;
nodes = (
(1017,1315,l),
(1013,1310,l),
(441,675,l),
(441,1301,l),
(604,1329,l),
(604,1456,l),
(81,1456,l),
(81,1329,l),
(244,1301,l),
(244,154,l),
(81,126,l),
(81,0,l),
(604,0,l),
(604,126,l),
(441,154,l),
(441,436,l),
(669,684,l),
(1060,141,l),
(1061,140,l),
(941,126,l),
(941,0,l),
(1427,0,l),
(1427,126,l),
(1293,151,l),
(793,820,l),
(1238,1304,l),
(1375,1329,l),
(1375,1456,l),
(908,1456,l),
(908,1329,l)
);
}
);
userData = {
assembly = "NPUSHB[ ]	/* 43 values pushed */
29 27 26 25 24 21 20 19 18 15 14 13 12 10 9 6 4 2 18 1 0 1 76 3 1 0 0 31 77 2 1 1 1 32 1 78 21 24 22 16 4 8 26 
CALL[ ]	/* CallFunction */";
};
width = 1501;
},
{
layerId = "B9892E43-DBAA-41C3-9AC8-C95A43C93A60";
shapes = (
{
closed = 1;
nodes = (
(1461,1280,l),
(1461,1456,l),
(862,1456,l),
(862,1280,l),
(1006,1268,l),
(1004,1265,l),
(503,749,l),
(503,1250,l),
(651,1280,l),
(651,1456,l),
(56,1456,l),
(56,1280,l),
(211,1250,l),
(211,205,l),
(56,175,l),
(56,0,l),
(651,0,l),
(651,175,l),
(503,205,l),
(503,419,l),
(710,629,l),
(1031,187,l),
(1030,187,l),
(894,175,l),
(894,0,l),
(1513,0,l),
(1513,175,l),
(1370,200,l),
(903,825,l),
(1324,1253,l)
);
}
);
userData = {
assembly = "NPUSHB[ ]	/* 42 values pushed */
28 25 23 22 21 20 17 16 15 14 11 10 9 8 6 5 2 17 0 2 1 76 3 1 2 2 31 77 1 1 0 0 32 0 78 23 21 24 19 4 8 26 
CALL[ ]	/* CallFunction */";
};
width = 1545;
},
{
layerId = "14DC179B-5B87-47A1-B3E1-5CE1808186AA";
shapes = (
{
closed = 1;
nodes = (
(1514,1250,l),
(1514,1456,l),
(834,1456,l),
(834,1250,l),
(999,1239,l),
(998,1237,l),
(542,788,l),
(542,1218,l),
(680,1250,l),
(680,1456,l),
(40,1456,l),
(40,1250,l),
(191,1218,l),
(191,237,l),
(40,205,l),
(40,0,l),
(680,0,l),
(680,205,l),
(542,237,l),
(542,406,l),
(736,595,l),
(1013,216,l),
(1011,216,l),
(865,205,l),
(865,0,l),
(1567,0,l),
(1567,205,l),
(1418,230,l),
(972,826,l),
(1377,1221,l)
);
}
);
width = 1573;
}
);
note = K;
unicode = 75;
},
{
glyphname = L;
lastChange = "2022-11-15 15:09:44 +0000";
layers = (
{
layerId = m01;
shapes = (
{
closed = 1;
nodes = (
(1036,293,l),
(982,293,l),
(982,54,l),
(289,54,l),
(289,1402,l),
(452,1402,l),
(452,1456,l),
(71,1456,l),
(71,1402,l),
(234,1402,l),
(234,54,l),
(71,54,l),
(71,0,l),
(1036,0,l)
);
}
);
width = 1161;
},
{
layerId = "5711A9A5-FB70-4E23-B0BA-A0F8E72F65B6";
shapes = (
{
closed = 1;
nodes = (
(1079,334,l),
(981,334,l),
(970,99,l),
(359,99,l),
(359,1355,l),
(522,1368,l),
(522,1456,l),
(76,1456,l),
(76,1368,l),
(239,1355,l),
(239,100,l),
(76,87,l),
(76,0,l),
(1079,0,l)
);
}
);
width = 1184;
},
{
layerId = "C589F45C-3E8C-4D57-BBA0-76FE1AFDA3B7";
shapes = (
{
closed = 1;
nodes = (
(604,1456,l),
(81,1456,l),
(81,1329,l),
(244,1301,l),
(244,154,l),
(81,126,l),
(81,0,l),
(1130,0,l),
(1130,381,l),
(979,381,l),
(956,151,l),
(441,151,l),
(441,1301,l),
(604,1329,l)
);
}
);
userData = {
assembly = "NPUSHB[ ]	/* 17 values pushed */
13 10 9 0 4 1 3 8 1 0 1 7 1 2 0 3 76 
MPPEM[ ]	/* MeasurePixelPerEm */
PUSHB[ ]	/* 1 value pushed */
10 
LT[ ]	/* LessThan */
IF[ ]	/* If */
NPUSHB[ ]	/* 23 values pushed */
0 1 3 0 0 1 114 0 3 3 31 77 0 0 0 2 96 0 2 2 32 2 78 
ELSE[ ]	/* Else */
NPUSHB[ ]	/* 24 values pushed */
0 1 3 0 3 1 0 128 0 3 3 31 77 0 0 0 2 96 0 2 2 32 2 78 
EIF[ ]	/* EndIf */
PUSHB[ ]	/* 7 values pushed */
21 17 17 17 4 8 26 
CALL[ ]	/* CallFunction */";
};
width = 1210;
},
{
layerId = "B9892E43-DBAA-41C3-9AC8-C95A43C93A60";
shapes = (
{
closed = 1;
nodes = (
(914,224,l),
(503,224,l),
(503,1250,l),
(679,1280,l),
(679,1456,l),
(56,1456,l),
(56,1280,l),
(211,1250,l),
(211,205,l),
(56,175,l),
(56,0,l),
(1151,0,l),
(1151,437,l),
(928,437,l)
);
}
);
userData = {
assembly = "NPUSHB[ ]	/* 14 values pushed */
10 9 6 5 4 3 1 4 3 2 0 2 2 76 
MPPEM[ ]	/* MeasurePixelPerEm */
PUSHB[ ]	/* 1 value pushed */
12 
LT[ ]	/* LessThan */
IF[ ]	/* If */
NPUSHB[ ]	/* 24 values pushed */
4 1 3 1 2 2 3 114 0 1 1 31 77 0 2 2 0 96 0 0 0 32 0 78 
ELSE[ ]	/* Else */
NPUSHB[ ]	/* 25 values pushed */
4 1 3 1 2 1 3 2 128 0 1 1 31 77 0 2 2 0 96 0 0 0 32 0 78 
EIF[ ]	/* EndIf */
NPUSHB[ ]	/* 12 values pushed */
0 0 0 13 0 13 19 21 17 5 8 25 
CALL[ ]	/* CallFunction */";
};
width = 1200;
},
{
layerId = "14DC179B-5B87-47A1-B3E1-5CE1808186AA";
shapes = (
{
closed = 1;
nodes = (
(1164,472,l),
(896,472,l),
(888,269,l),
(542,269,l),
(542,1218,l),
(726,1250,l),
(726,1456,l),
(40,1456,l),
(40,1250,l),
(191,1218,l),
(191,237,l),
(40,205,l),
(40,0,l),
(1164,0,l)
);
}
);
width = 1194;
}
);
note = L;
unicode = 76;
},
{
glyphname = M;
lastChange = "2022-11-15 15:09:44 +0000";
layers = (
{
layerId = m01;
shapes = (
{
closed = 1;
nodes = (
(451,54,l),
(288,54,l),
(288,1354,l),
(294,1356,l),
(889,0,l),
(932,0,l),
(1530,1363,l),
(1536,1361,l),
(1536,54,l),
(1373,54,l),
(1373,0,l),
(1753,0,l),
(1753,54,l),
(1590,54,l),
(1590,1402,l),
(1753,1402,l),
(1753,1456,l),
(1511,1456,l),
(913,86,l),
(907,86,l),
(311,1456,l),
(71,1456,l),
(71,1402,l),
(234,1402,l),
(234,54,l),
(71,54,l),
(71,0,l),
(451,0,l)
);
}
);
width = 1824;
},
{
layerId = "5711A9A5-FB70-4E23-B0BA-A0F8E72F65B6";
shapes = (
{
closed = 1;
nodes = (
(528,87,l),
(359,100,l),
(359,735,l),
(355,1276,l),
(361,1278,l),
(907,24,l),
(991,24,l),
(1531,1282,l),
(1536,1281,l),
(1536,100,l),
(1369,87,l),
(1369,0,l),
(1815,0,l),
(1815,87,l),
(1652,100,l),
(1652,1355,l),
(1815,1368,l),
(1815,1456,l),
(1482,1456,l),
(951,208,l),
(945,208,l),
(407,1456,l),
(82,1456,l),
(82,1368,l),
(245,1355,l),
(245,100,l),
(82,87,l),
(82,0,l),
(528,0,l)
);
}
);
width = 1897;
},
{
layerId = "C589F45C-3E8C-4D57-BBA0-76FE1AFDA3B7";
shapes = (
{
closed = 1;
nodes = (
(1059,52,l),
(1532,1188,l),
(1537,1187,l),
(1537,154,l),
(1365,126,l),
(1365,0,l),
(1888,0,l),
(1888,126,l),
(1725,154,l),
(1725,1301,l),
(1888,1329,l),
(1888,1456,l),
(1449,1456,l),
(995,351,l),
(989,351,l),
(520,1456,l),
(94,1456,l),
(94,1329,l),
(257,1301,l),
(257,154,l),
(94,126,l),
(94,0,l),
(617,0,l),
(617,126,l),
(441,154,l),
(441,576,l),
(434,1185,l),
(439,1186,l),
(928,52,l)
);
}
);
userData = {
assembly = "NPUSHB[ ]	/* 49 values pushed */
25 24 23 20 19 18 17 13 10 9 8 7 4 3 0 15 4 1 1 76 0 4 1 0 1 4 0 128 2 1 1 1 31 77 3 1 0 0 32 0 78 21 21 19 21 21 5 8 27 
CALL[ ]	/* CallFunction */";
};
width = 1982;
},
{
layerId = "B9892E43-DBAA-41C3-9AC8-C95A43C93A60";
shapes = (
{
closed = 1;
nodes = (
(487,514,l),
(470,1132,l),
(476,1133,l),
(921,20,l),
(1142,20,l),
(1577,1142,l),
(1583,1141,l),
(1578,484,l),
(1578,205,l),
(1415,175,l),
(1415,0,l),
(2018,0,l),
(2018,175,l),
(1862,205,l),
(1862,1250,l),
(2018,1280,l),
(2018,1456,l),
(1430,1456,l),
(1046,441,l),
(1040,441,l),
(643,1456,l),
(56,1456,l),
(56,1280,l),
(211,1250,l),
(211,205,l),
(56,175,l),
(56,0,l),
(659,0,l),
(659,175,l),
(487,205,l)
);
}
);
userData = {
assembly = "MPPEM[ ]	/* MeasurePixelPerEm */
PUSHB[ ]	/* 1 value pushed */
25 
LT[ ]	/* LessThan */
IF[ ]	/* If */
NPUSHB[ ]	/* 20 values pushed */
29 26 22 20 19 16 15 14 13 9 6 5 4 3 0 15 0 1 1 76 
ELSE[ ]	/* Else */
NPUSHB[ ]	/* 20 values pushed */
29 26 22 20 19 16 15 14 13 9 6 5 4 3 0 15 4 1 1 76 
EIF[ ]	/* EndIf */
MPPEM[ ]	/* MeasurePixelPerEm */
PUSHB[ ]	/* 1 value pushed */
25 
LT[ ]	/* LessThan */
IF[ ]	/* If */
NPUSHB[ ]	/* 14 values pushed */
2 1 1 1 31 77 4 3 2 0 0 32 0 78 
ELSE[ ]	/* Else */
NPUSHB[ ]	/* 18 values pushed */
2 1 1 1 31 77 0 4 4 32 77 3 1 0 0 32 0 78 
EIF[ ]	/* EndIf */
PUSHB[ ]	/* 8 values pushed */
22 21 19 21 17 5 8 27 
CALL[ ]	/* CallFunction */";
};
width = 2066;
},
{
layerId = "14DC179B-5B87-47A1-B3E1-5CE1808186AA";
shapes = (
{
closed = 1;
nodes = (
(685,205,l),
(516,237,l),
(516,475,l),
(492,1099,l),
(499,1100,l),
(917,0,l),
(1193,0,l),
(1605,1113,l),
(1611,1112,l),
(1603,427,l),
(1603,237,l),
(1446,205,l),
(1446,0,l),
(2098,0,l),
(2098,205,l),
(1947,237,l),
(1947,1218,l),
(2098,1250,l),
(2098,1456,l),
(1419,1456,l),
(1077,497,l),
(1071,497,l),
(719,1456,l),
(32,1456,l),
(32,1250,l),
(182,1218,l),
(182,237,l),
(32,205,l),
(32,0,l),
(685,0,l)
);
}
);
width = 2118;
}
);
note = M;
unicode = 77;
},
{
glyphname = N;
lastChange = "2022-11-15 15:09:44 +0000";
layers = (
{
layerId = m01;
shapes = (
{
closed = 1;
nodes = (
(452,54,l),
(289,54,l),
(289,1354,l),
(295,1356,l),
(1229,0,l),
(1283,0,l),
(1283,1402,l),
(1446,1402,l),
(1446,1456,l),
(1066,1456,l),
(1066,1402,l),
(1229,1402,l),
(1229,105,l),
(1223,103,l),
(289,1456,l),
(71,1456,l),
(71,1402,l),
(234,1402,l),
(234,54,l),
(71,54,l),
(71,0,l),
(452,0,l)
);
}
);
width = 1517;
},
{
layerId = "5711A9A5-FB70-4E23-B0BA-A0F8E72F65B6";
shapes = (
{
closed = 1;
nodes = (
(523,87,l),
(353,100,l),
(353,1255,l),
(359,1257,l),
(1200,0,l),
(1312,0,l),
(1312,1355,l),
(1475,1368,l),
(1475,1456,l),
(1029,1456,l),
(1029,1368,l),
(1199,1355,l),
(1199,206,l),
(1193,204,l),
(361,1456,l),
(77,1456,l),
(77,1368,l),
(240,1355,l),
(240,100,l),
(77,87,l),
(77,0,l),
(523,0,l)
);
}
);
width = 1552;
},
{
layerId = "C589F45C-3E8C-4D57-BBA0-76FE1AFDA3B7";
shapes = (
{
closed = 1;
nodes = (
(1346,1301,l),
(1509,1329,l),
(1509,1456,l),
(986,1456,l),
(986,1329,l),
(1165,1301,l),
(1165,323,l),
(1159,321,l),
(445,1456,l),
(83,1456,l),
(83,1329,l),
(246,1301,l),
(246,154,l),
(83,126,l),
(83,0,l),
(606,0,l),
(606,126,l),
(427,154,l),
(427,1139,l),
(433,1141,l),
(1166,0,l),
(1346,0,l)
);
}
);
userData = {
assembly = "NPUSHB[ ]	/* 43 values pushed */
20 19 16 15 13 10 9 8 7 4 3 1 12 0 1 1 76 2 1 1 1 31 77 4 3 2 0 0 32 0 78 0 0 0 21 0 21 21 21 21 5 8 25 
CALL[ ]	/* CallFunction */";
};
width = 1592;
},
{
layerId = "B9892E43-DBAA-41C3-9AC8-C95A43C93A60";
shapes = (
{
closed = 1;
nodes = (
(472,999,l),
(478,1000,l),
(1126,0,l),
(1408,0,l),
(1408,1250,l),
(1564,1280,l),
(1564,1456,l),
(961,1456,l),
(961,1280,l),
(1147,1250,l),
(1147,447,l),
(1141,446,l),
(507,1456,l),
(56,1456,l),
(56,1280,l),
(211,1250,l),
(211,205,l),
(56,175,l),
(56,0,l),
(659,0,l),
(659,175,l),
(472,205,l)
);
}
);
userData = {
assembly = "NPUSHB[ ]	/* 37 values pushed */
21 19 16 15 12 11 9 6 5 4 3 0 12 0 1 1 76 2 1 1 1 31 77 3 1 0 0 32 0 78 19 21 21 17 4 8 26 
CALL[ ]	/* CallFunction */";
};
width = 1604;
},
{
layerId = "14DC179B-5B87-47A1-B3E1-5CE1808186AA";
shapes = (
{
closed = 1;
nodes = (
(692,205,l),
(500,237,l),
(500,912,l),
(506,912,l),
(1101,0,l),
(1447,0,l),
(1447,1218,l),
(1598,1250,l),
(1598,1456,l),
(945,1456,l),
(945,1250,l),
(1136,1218,l),
(1136,524,l),
(1130,524,l),
(546,1456,l),
(39,1456,l),
(39,1250,l),
(189,1218,l),
(189,237,l),
(39,205,l),
(39,0,l),
(692,0,l)
);
}
);
width = 1611;
}
);
note = N;
unicode = 78;
},
{
glyphname = O;
lastChange = "2022-11-15 15:09:44 +0000";
layers = (
{
layerId = m01;
shapes = (
{
closed = 1;
nodes = (
(1099,-21,o),
(1348,268,o),
(1348,719,cs),
(1348,737,ls),
(1348,961,o),
(1287,1145,o),
(1179,1275,cs),
(1070,1405,o),
(918,1477,o),
(738,1477,cs),
(557,1477,o),
(406,1405,o),
(298,1275,cs),
(190,1145,o),
(130,961,o),
(130,737,cs),
(130,719,ls),
(130,495,o),
(191,312,o),
(299,182,cs),
(407,52,o),
(559,-21,o),
(740,-21,cs)
);
},
{
closed = 1;
nodes = (
(185,739,ls),
(185,1014,o),
(281,1225,o),
(446,1338,cs),
(529,1395,o),
(626,1423,o),
(738,1423,cs),
(963,1423,o),
(1134,1304,o),
(1226,1099,cs),
(1271,996,o),
(1294,876,o),
(1294,739,cs),
(1294,719,ls),
(1294,443,o),
(1200,231,o),
(1034,118,cs),
(951,61,o),
(853,33,o),
(740,33,cs),
(515,33,o),
(345,152,o),
(254,358,cs),
(208,461,o),
(185,581,o),
(185,719,cs)
);
}
);
width = 1488;
},
{
layerId = "5711A9A5-FB70-4E23-B0BA-A0F8E72F65B6";
shapes = (
{
closed = 1;
nodes = (
(898,-21,o),
(1050,52,o),
(1155,183,cs),
(1260,314,o),
(1317,497,o),
(1317,718,cs),
(1317,737,ls),
(1317,958,o),
(1261,1141,o),
(1155,1273,cs),
(1049,1404,o),
(897,1477,o),
(709,1477,cs),
(525,1477,o),
(374,1404,o),
(267,1273,cs),
(160,1141,o),
(102,958,o),
(102,737,cs),
(102,718,ls),
(102,497,o),
(161,314,o),
(268,183,cs),
(375,52,o),
(526,-21,o),
(710,-21,cs)
);
},
{
closed = 1;
nodes = (
(223,739,ls),
(223,991,o),
(304,1187,o),
(449,1293,cs),
(522,1346,o),
(608,1372,o),
(709,1372,cs),
(1020,1372,o),
(1197,1123,o),
(1197,739,cs),
(1197,718,ls),
(1197,334,o),
(1024,84,o),
(710,84,cs),
(509,84,o),
(360,194,o),
(282,385,cs),
(243,480,o),
(223,591,o),
(223,718,cs)
);
}
);
width = 1425;
},
{
layerId = "C589F45C-3E8C-4D57-BBA0-76FE1AFDA3B7";
shapes = (
{
closed = 1;
nodes = (
(874,-21,o),
(1025,54,o),
(1127,186,cs),
(1229,317,o),
(1281,500,o),
(1281,717,cs),
(1281,738,ls),
(1281,954,o),
(1229,1138,o),
(1127,1270,cs),
(1025,1402,o),
(874,1477,o),
(675,1477,cs),
(487,1477,o),
(336,1402,o),
(232,1270,cs),
(127,1138,o),
(70,954,o),
(70,738,cs),
(70,717,ls),
(70,500,o),
(127,317,o),
(232,186,cs),
(336,54,o),
(487,-21,o),
(675,-21,cs)
);
},
{
closed = 1;
nodes = (
(268,740,ls),
(268,1082,o),
(416,1312,o),
(675,1312,cs),
(866,1312,o),
(984,1210,o),
(1041,1039,cs),
(1069,953,o),
(1083,853,o),
(1083,740,cs),
(1083,717,ls),
(1083,366,o),
(959,143,o),
(675,143,cs),
(414,143,o),
(268,372,o),
(268,717,cs)
);
}
);
userData = {
assembly = "NPUSHB[ ]	/* 42 values pushed */
0 3 3 1 97 0 1 1 37 77 5 1 2 2 0 97 4 1 0 0 38 0 78 23 22 1 0 32 30 22 39 23 39 12 10 0 21 1 21 6 8 22 
CALL[ ]	/* CallFunction */";
};
width = 1351;
},
{
layerId = "B9892E43-DBAA-41C3-9AC8-C95A43C93A60";
shapes = (
{
closed = 1;
nodes = (
(1117,-21,o),
(1385,291,o),
(1385,717,cs),
(1385,739,ls),
(1385,1164,o),
(1118,1477,o),
(722,1477,cs),
(327,1477,o),
(65,1162,o),
(65,739,cs),
(65,717,ls),
(65,290,o),
(331,-21,o),
(723,-21,cs)
);
},
{
closed = 1;
nodes = (
(357,741,ls),
(357,1051,o),
(481,1249,o),
(722,1249,cs),
(960,1249,o),
(1094,1065,o),
(1094,741,cs),
(1094,717,ls),
(1094,410,o),
(970,206,o),
(723,206,cs),
(487,206,o),
(357,391,o),
(357,717,cs)
);
}
);
userData = {
assembly = "NPUSHB[ ]	/* 42 values pushed */
0 3 3 1 97 0 1 1 37 77 5 1 2 2 0 97 4 1 0 0 38 0 78 23 22 1 0 32 30 22 39 23 39 12 10 0 21 1 21 6 8 22 
CALL[ ]	/* CallFunction */";
};
width = 1446;
},
{
layerId = "14DC179B-5B87-47A1-B3E1-5CE1808186AA";
shapes = (
{
closed = 1;
nodes = (
(1148,-21,o),
(1450,295,o),
(1450,717,cs),
(1450,740,ls),
(1450,1158,o),
(1150,1477,o),
(751,1477,cs),
(346,1477,o),
(62,1159,o),
(62,740,cs),
(62,717,ls),
(62,294,o),
(347,-21,o),
(753,-21,cs)
);
},
{
closed = 1;
nodes = (
(413,742,ls),
(413,1025,o),
(517,1210,o),
(751,1210,cs),
(899,1210,o),
(1004,1127,o),
(1060,987,cs),
(1087,916,o),
(1101,835,o),
(1101,742,cs),
(1101,717,ls),
(1101,427,o),
(969,245,o),
(753,245,cs),
(523,245,o),
(413,427,o),
(413,717,cs)
);
}
);
width = 1505;
}
);
note = O;
unicode = 79;
},
{
glyphname = P;
lastChange = "2022-11-15 15:09:44 +0000";
layers = (
{
layerId = m01;
shapes = (
{
closed = 1;
nodes = (
(451,54,l),
(288,54,l),
(288,625,l),
(639,625,ls),
(840,625,o),
(982,696,o),
(1055,821,cs),
(1091,883,o),
(1109,956,o),
(1109,1041,cs),
(1109,1208,o),
(1035,1336,o),
(895,1405,cs),
(825,1439,o),
(740,1456,o),
(639,1456,cs),
(71,1456,l),
(71,1402,l),
(234,1402,l),
(234,54,l),
(71,54,l),
(71,0,l),
(451,0,l)
);
},
{
closed = 1;
nodes = (
(288,1402,l),
(639,1402,ls),
(916,1402,o),
(1055,1250,o),
(1055,1039,cs),
(1055,834,o),
(915,679,o),
(639,679,cs),
(288,679,l)
);
}
);
width = 1255;
},
{
layerId = "5711A9A5-FB70-4E23-B0BA-A0F8E72F65B6";
shapes = (
{
closed = 1;
nodes = (
(522,87,l),
(359,100,l),
(359,606,l),
(690,606,ls),
(895,606,o),
(1039,679,o),
(1114,807,cs),
(1151,870,o),
(1170,945,o),
(1170,1031,cs),
(1170,1202,o),
(1094,1332,o),
(951,1403,cs),
(880,1438,o),
(793,1456,o),
(690,1456,cs),
(76,1456,l),
(76,1368,l),
(239,1355,l),
(239,100,l),
(76,87,l),
(76,0,l),
(522,0,l)
);
},
{
closed = 1;
nodes = (
(359,1355,l),
(690,1355,ls),
(931,1355,o),
(1050,1217,o),
(1050,1029,cs),
(1050,845,o),
(930,706,o),
(690,706,cs),
(359,706,l)
);
}
);
width = 1274;
},
{
layerId = "C589F45C-3E8C-4D57-BBA0-76FE1AFDA3B7";
shapes = (
{
closed = 1;
nodes = (
(750,584,ls),
(958,584,o),
(1107,659,o),
(1184,790,cs),
(1223,855,o),
(1242,932,o),
(1242,1020,cs),
(1242,1195,o),
(1163,1329,o),
(1016,1402,cs),
(943,1438,o),
(854,1456,o),
(750,1456,cs),
(81,1456,l),
(81,1329,l),
(244,1301,l),
(244,154,l),
(81,126,l),
(81,0,l),
(604,0,l),
(604,126,l),
(441,154,l),
(441,584,l)
);
},
{
closed = 1;
nodes = (
(441,738,l),
(441,1301,l),
(750,1301,ls),
(947,1301,o),
(1045,1179,o),
(1045,1018,cs),
(1045,857,o),
(947,738,o),
(750,738,cs)
);
}
);
userData = {
assembly = "NPUSHB[ ]	/* 57 values pushed */
7 1 3 1 5 4 1 0 4 0 2 2 76 6 1 3 1 75 0 4 0 2 0 4 2 103 5 1 3 3 1 95 0 1 1 31 77 0 0 0 32 0 78 21 20 24 22 20 28 21 28 38 53 18 6 8 25 
CALL[ ]	/* CallFunction */";
};
width = 1297;
},
{
layerId = "B9892E43-DBAA-41C3-9AC8-C95A43C93A60";
shapes = (
{
closed = 1;
nodes = (
(503,205,l),
(503,528,l),
(749,528,ls),
(972,528,o),
(1136,608,o),
(1223,748,cs),
(1266,817,o),
(1288,898,o),
(1288,991,cs),
(1288,1176,o),
(1198,1320,o),
(1037,1398,cs),
(956,1437,o),
(860,1456,o),
(749,1456,cs),
(56,1456,l),
(56,1280,l),
(211,1250,l),
(211,205,l),
(56,175,l),
(56,0,l),
(659,0,l),
(659,175,l)
);
},
{
closed = 1;
nodes = (
(503,1231,l),
(749,1231,ls),
(912,1231,o),
(996,1129,o),
(996,989,cs),
(996,852,o),
(912,753,o),
(749,753,cs),
(503,753,l)
);
}
);
width = 1325;
},
{
layerId = "14DC179B-5B87-47A1-B3E1-5CE1808186AA";
shapes = (
{
closed = 1;
nodes = (
(693,205,l),
(542,237,l),
(542,493,l),
(748,493,ls),
(980,493,o),
(1155,577,o),
(1248,721,cs),
(1294,793,o),
(1317,877,o),
(1317,973,cs),
(1317,1165,o),
(1221,1314,o),
(1050,1395,cs),
(965,1436,o),
(864,1456,o),
(748,1456,cs),
(40,1456,l),
(40,1250,l),
(191,1218,l),
(191,237,l),
(40,205,l),
(40,0,l),
(693,0,l)
);
},
{
closed = 1;
nodes = (
(542,1188,l),
(748,1188,ls),
(891,1188,o),
(966,1098,o),
(966,971,cs),
(966,848,o),
(891,762,o),
(748,762,cs),
(542,762,l)
);
}
);
width = 1342;
}
);
note = P;
unicode = 80;
},
{
glyphname = Q;
lastChange = "2022-11-15 15:09:44 +0000";
layers = (
{
layerId = m01;
shapes = (
{
closed = 1;
nodes = (
(1033,56,l),
(1230,171,o),
(1348,410,o),
(1348,719,cs),
(1348,737,ls),
(1348,961,o),
(1287,1145,o),
(1179,1275,cs),
(1070,1405,o),
(918,1477,o),
(738,1477,cs),
(557,1477,o),
(406,1405,o),
(298,1275,cs),
(190,1145,o),
(130,961,o),
(130,737,cs),
(130,719,ls),
(130,495,o),
(191,312,o),
(299,182,cs),
(407,52,o),
(559,-21,o),
(740,-21,cs),
(825,-21,o),
(906,-5,o),
(979,28,c),
(1308,-206,l),
(1343,-165,l)
);
},
{
closed = 1;
nodes = (
(185,739,ls),
(185,1014,o),
(281,1225,o),
(446,1338,cs),
(529,1395,o),
(626,1423,o),
(738,1423,cs),
(963,1423,o),
(1134,1304,o),
(1226,1099,cs),
(1271,996,o),
(1294,876,o),
(1294,739,cs),
(1294,719,ls),
(1294,443,o),
(1200,231,o),
(1034,118,cs),
(951,61,o),
(853,33,o),
(740,33,cs),
(515,33,o),
(345,152,o),
(254,358,cs),
(208,461,o),
(185,581,o),
(185,719,cs)
);
}
);
width = 1478;
},
{
layerId = "5711A9A5-FB70-4E23-B0BA-A0F8E72F65B6";
shapes = (
{
closed = 1;
nodes = (
(1044,79,l),
(1229,200,o),
(1316,430,o),
(1316,718,cs),
(1316,737,ls),
(1316,958,o),
(1260,1141,o),
(1154,1273,cs),
(1048,1404,o),
(896,1477,o),
(708,1477,cs),
(524,1477,o),
(374,1404,o),
(267,1273,cs),
(160,1141,o),
(102,958,o),
(102,737,cs),
(102,718,ls),
(102,498,o),
(161,315,o),
(268,184,cs),
(375,52,o),
(526,-21,o),
(710,-21,cs),
(789,-21,o),
(865,-7,o),
(936,21,c),
(1275,-224,l),
(1345,-134,l)
);
},
{
closed = 1;
nodes = (
(223,739,ls),
(223,991,o),
(304,1187,o),
(449,1293,cs),
(522,1346,o),
(608,1372,o),
(708,1372,cs),
(1019,1372,o),
(1196,1123,o),
(1196,739,cs),
(1196,718,ls),
(1196,465,o),
(1119,268,o),
(975,163,cs),
(902,110,o),
(814,84,o),
(710,84,cs),
(507,84,o),
(360,194,o),
(282,385,cs),
(243,480,o),
(223,591,o),
(223,718,cs)
);
}
);
width = 1431;
},
{
layerId = "C589F45C-3E8C-4D57-BBA0-76FE1AFDA3B7";
shapes = (
{
closed = 1;
nodes = (
(1228,236,o),
(1279,454,o),
(1279,717,cs),
(1279,738,ls),
(1279,1188,o),
(1062,1477,o),
(674,1477,cs),
(304,1477,o),
(70,1188,o),
(70,738,cs),
(70,717,ls),
(70,271,o),
(306,-21,o),
(674,-21,cs),
(747,-21,o),
(818,-8,o),
(885,13,c),
(1237,-245,l),
(1348,-98,l),
(1056,105,l)
);
},
{
closed = 1;
nodes = (
(267,740,ls),
(267,1083,o),
(417,1312,o),
(674,1312,cs),
(865,1312,o),
(983,1210,o),
(1040,1039,cs),
(1068,953,o),
(1082,853,o),
(1082,740,cs),
(1082,717,ls),
(1082,369,o),
(953,143,o),
(674,143,cs),
(411,143,o),
(267,373,o),
(267,717,cs)
);
}
);
userData = {
assembly = "NPUSHB[ ]	/* 46 values pushed */
3 1 0 2 1 76 2 1 2 0 73 0 3 3 1 97 0 1 1 37 77 4 1 2 2 0 97 0 0 0 38 0 78 27 26 36 34 26 43 27 43 41 37 5 8 24 
CALL[ ]	/* CallFunction */";
};
width = 1376;
},
{
layerId = "B9892E43-DBAA-41C3-9AC8-C95A43C93A60";
shapes = (
{
closed = 1;
nodes = (
(1291,246,o),
(1387,464,o),
(1387,717,cs),
(1387,739,ls),
(1387,1165,o),
(1119,1477,o),
(724,1477,cs),
(332,1477,o),
(67,1166,o),
(67,739,cs),
(67,717,ls),
(67,282,o),
(336,-21,o),
(725,-21,cs),
(777,-21,o),
(830,-14,o),
(882,-3,c),
(1293,-281,l),
(1437,-79,l),
(1127,114,l)
);
},
{
closed = 1;
nodes = (
(359,741,ls),
(359,1051,o),
(481,1249,o),
(724,1249,cs),
(962,1249,o),
(1096,1065,o),
(1096,741,cs),
(1096,717,ls),
(1096,391,o),
(965,206,o),
(725,206,cs),
(564,206,o),
(454,296,o),
(400,449,cs),
(373,526,o),
(359,615,o),
(359,717,cs)
);
}
);
userData = {
assembly = "NPUSHB[ ]	/* 45 values pushed */
25 1 0 2 1 76 1 1 0 73 0 3 3 1 97 0 1 1 37 77 4 1 2 2 0 97 0 0 0 38 0 78 27 26 36 34 26 43 27 43 41 36 5 8 24 
CALL[ ]	/* CallFunction */";
};
width = 1449;
},
{
layerId = "14DC179B-5B87-47A1-B3E1-5CE1808186AA";
shapes = (
{
closed = 1;
nodes = (
(1171,120,l),
(1330,252,o),
(1454,470,o),
(1454,717,cs),
(1454,740,ls),
(1454,1161,o),
(1153,1477,o),
(755,1477,cs),
(351,1477,o),
(65,1161,o),
(65,740,cs),
(65,717,ls),
(65,294,o),
(350,-21,o),
(757,-21,cs),
(796,-21,o),
(837,-17,o),
(880,-13,c),
(1328,-303,l),
(1492,-67,l)
);
},
{
closed = 1;
nodes = (
(416,742,ls),
(416,931,o),
(462,1075,o),
(562,1152,cs),
(612,1191,o),
(676,1210,o),
(755,1210,cs),
(903,1210,o),
(1008,1127,o),
(1064,987,cs),
(1091,916,o),
(1105,835,o),
(1105,742,cs),
(1105,717,ls),
(1105,432,o),
(982,245,o),
(757,245,cs),
(528,245,o),
(416,428,o),
(416,717,cs)
);
}
);
width = 1494;
}
);
note = Q;
unicode = 81;
},
{
glyphname = R;
lastChange = "2022-11-15 15:09:44 +0000";
layers = (
{
layerId = m01;
shapes = (
{
closed = 1;
nodes = (
(451,53,l),
(288,53,l),
(288,683,l),
(652,683,ls),
(695,683,o),
(735,686,o),
(773,692,c),
(1067,-1,l),
(1236,-1,l),
(1236,53,l),
(1103,53,l),
(823,702,l),
(1015,747,o),
(1134,873,o),
(1134,1065,cs),
(1134,1236,o),
(1059,1351,o),
(917,1411,cs),
(846,1440,o),
(759,1455,o),
(656,1455,cs),
(71,1455,l),
(71,1401,l),
(234,1401,l),
(234,53,l),
(71,53,l),
(71,-1,l),
(451,-1,l)
);
},
{
closed = 1;
nodes = (
(288,1401,l),
(656,1401,ls),
(937,1401,o),
(1080,1282,o),
(1080,1065,cs),
(1080,878,o),
(946,737,o),
(651,737,cs),
(288,737,l)
);
}
);
width = 1364;
},
{
layerId = "5711A9A5-FB70-4E23-B0BA-A0F8E72F65B6";
shapes = (
{
closed = 1;
nodes = (
(522,87,l),
(359,100,l),
(359,668,l),
(705,671,ls),
(725,671,o),
(744,672,o),
(763,673,c),
(1055,-1,l),
(1259,-1,l),
(1259,88,l),
(1140,96,l),
(876,691,l),
(1065,738,o),
(1175,866,o),
(1175,1058,cs),
(1175,1230,o),
(1098,1348,o),
(954,1409,cs),
(882,1440,o),
(794,1455,o),
(690,1455,cs),
(76,1455,l),
(76,1368,l),
(239,1355,l),
(239,100,l),
(76,87,l),
(76,-1,l),
(522,-1,l)
);
},
{
closed = 1;
nodes = (
(359,1355,l),
(690,1355,ls),
(934,1355,o),
(1055,1247,o),
(1055,1059,cs),
(1055,884,o),
(938,768,o),
(678,768,cs),
(359,768,l)
);
}
);
width = 1374;
},
{
layerId = "C589F45C-3E8C-4D57-BBA0-76FE1AFDA3B7";
shapes = (
{
closed = 1;
nodes = (
(750,656,l),
(1042,0,l),
(1285,0,l),
(1285,129,l),
(1184,147,l),
(938,679,l),
(1119,727,o),
(1222,853,o),
(1222,1050,cs),
(1222,1223,o),
(1145,1344,o),
(999,1408,cs),
(926,1439,o),
(836,1455,o),
(730,1455,cs),
(81,1455,l),
(81,1329,l),
(244,1301,l),
(244,154,l),
(81,126,l),
(81,0,l),
(604,0,l),
(604,126,l),
(441,154,l),
(441,650,l)
);
},
{
closed = 1;
nodes = (
(441,805,l),
(441,1301,l),
(730,1301,ls),
(931,1301,o),
(1025,1205,o),
(1025,1052,cs),
(1025,891,o),
(930,805,o),
(710,805,cs)
);
}
);
userData = {
assembly = "NPUSHB[ ]	/* 19 values pushed */
7 1 3 1 32 5 4 1 0 5 0 2 2 76 6 1 3 1 75 
MPPEM[ ]	/* MeasurePixelPerEm */
PUSHB[ ]	/* 1 value pushed */
33 
LT[ ]	/* LessThan */
IF[ ]	/* If */
NPUSHB[ ]	/* 34 values pushed */
0 5 4 2 4 5 114 0 4 0 2 0 4 2 103 7 1 3 3 1 95 0 1 1 31 77 8 6 2 0 0 32 0 78 
ELSE[ ]	/* Else */
NPUSHB[ ]	/* 35 values pushed */
0 5 4 2 4 5 2 128 0 4 0 2 0 4 2 103 7 1 3 3 1 95 0 1 1 31 77 8 6 2 0 0 32 0 78 
EIF[ ]	/* EndIf */
NPUSHB[ ]	/* 22 values pushed */
28 28 20 19 28 33 28 33 30 29 23 21 19 27 20 27 38 37 18 9 8 25 
CALL[ ]	/* CallFunction */";
};
width = 1385;
},
{
layerId = "B9892E43-DBAA-41C3-9AC8-C95A43C93A60";
shapes = (
{
closed = 1;
nodes = (
(909,1231,o),
(992,1144,o),
(992,1009,cs),
(992,873,o),
(909,800,o),
(741,800,cs),
(503,800,l),
(503,1231,l),
(746,1231,ls)
);
},
{
closed = 1;
nodes = (
(659,0,l),
(659,175,l),
(503,205,l),
(503,575,l),
(769,575,l),
(993,0,l),
(1347,0,l),
(1347,175,l),
(1223,204,l),
(1038,632,l),
(1041,634,ls),
(1193,711,o),
(1283,851,o),
(1283,1022,cs),
(1283,1203,o),
(1194,1335,o),
(1034,1404,cs),
(954,1439,o),
(858,1456,o),
(746,1456,cs),
(56,1456,l),
(56,1280,l),
(211,1250,l),
(211,205,l),
(56,175,l),
(56,0,l)
);
}
);
width = 1408;
},
{
layerId = "14DC179B-5B87-47A1-B3E1-5CE1808186AA";
shapes = (
{
closed = 1;
nodes = (
(693,205,l),
(542,237,l),
(542,528,l),
(781,525,l),
(962,0,l),
(1386,0,l),
(1386,204,l),
(1248,239,l),
(1096,611,l),
(1159,652,o),
(1212,705,o),
(1252,767,cs),
(1298,840,o),
(1321,920,o),
(1321,1005,cs),
(1321,1190,o),
(1225,1329,o),
(1056,1402,cs),
(971,1439,o),
(871,1457,o),
(756,1457,cs),
(40,1457,l),
(40,1250,l),
(191,1218,l),
(191,237,l),
(40,205,l),
(40,0,l),
(693,0,l)
);
},
{
closed = 1;
nodes = (
(542,1188,l),
(756,1188,ls),
(895,1188,o),
(972,1106,o),
(972,982,cs),
(972,862,o),
(896,797,o),
(760,797,cs),
(542,797,l)
);
}
);
width = 1422;
}
);
note = R;
unicode = 82;
},
{
glyphname = S;
lastChange = "2022-11-15 15:09:44 +0000";
layers = (
{
layerId = m01;
shapes = (
{
closed = 1;
nodes = (
(778,-21,o),
(933,41,o),
(1019,153,cs),
(1062,208,o),
(1083,274,o),
(1083,351,cs),
(1083,580,o),
(917,694,o),
(594,781,cs),
(373,841,o),
(263,903,o),
(219,987,cs),
(197,1028,o),
(186,1076,o),
(186,1131,cs),
(186,1235,o),
(249,1329,o),
(367,1383,cs),
(426,1410,o),
(497,1423,o),
(582,1423,cs),
(738,1423,o),
(877,1379,o),
(981,1292,c),
(981,1088,l),
(1035,1088,l),
(1035,1322,l),
(922,1417,o),
(770,1477,o),
(582,1477,cs),
(402,1477,o),
(263,1415,o),
(188,1311,cs),
(151,1259,o),
(132,1198,o),
(132,1129,cs),
(132,988,o),
(184,896,o),
(315,827,cs),
(380,792,o),
(468,760,o),
(579,729,cs),
(800,668,o),
(927,600,o),
(985,509,cs),
(1014,464,o),
(1028,410,o),
(1028,349,cs),
(1028,225,o),
(948,126,o),
(816,73,cs),
(750,46,o),
(674,33,o),
(589,33,cs),
(449,33,o),
(298,73,o),
(154,164,c),
(154,390,l),
(100,390,l),
(100,133,l),
(259,26,o),
(433,-21,o),
(589,-21,cs)
);
}
);
width = 1183;
},
{
layerId = "5711A9A5-FB70-4E23-B0BA-A0F8E72F65B6";
shapes = (
{
closed = 1;
nodes = (
(794,-21,o),
(950,46,o),
(1035,162,cs),
(1077,219,o),
(1098,287,o),
(1098,364,cs),
(1098,588,o),
(935,719,o),
(619,800,cs),
(424,852,o),
(322,906,o),
(278,980,cs),
(256,1017,o),
(245,1059,o),
(245,1108,cs),
(245,1261,o),
(379,1375,o),
(589,1375,cs),
(734,1375,o),
(849,1334,o),
(933,1266,c),
(948,1060,l),
(1047,1060,l),
(1047,1320,l),
(940,1412,o),
(785,1477,o),
(589,1477,cs),
(404,1477,o),
(260,1410,o),
(183,1299,cs),
(144,1243,o),
(125,1179,o),
(125,1106,cs),
(125,963,o),
(187,862,o),
(321,789,cs),
(388,752,o),
(474,720,o),
(580,693,cs),
(777,642,o),
(888,583,o),
(940,503,cs),
(965,462,o),
(978,415,o),
(978,362,cs),
(978,251,o),
(912,164,o),
(798,117,cs),
(741,93,o),
(674,81,o),
(597,81,cs),
(468,81,o),
(339,117,o),
(222,190,c),
(207,417,l),
(107,417,l),
(107,135,l),
(262,28,o),
(430,-21,o),
(597,-21,cs)
);
}
);
width = 1194;
},
{
layerId = "C589F45C-3E8C-4D57-BBA0-76FE1AFDA3B7";
shapes = (
{
closed = 1;
nodes = (
(813,-21,o),
(969,51,o),
(1053,172,cs),
(1095,232,o),
(1116,301,o),
(1116,379,cs),
(1116,598,o),
(956,747,o),
(649,823,cs),
(485,864,o),
(390,909,o),
(347,972,cs),
(325,1003,o),
(314,1040,o),
(314,1082,cs),
(314,1225,o),
(430,1319,o),
(598,1319,cs),
(730,1319,o),
(816,1283,o),
(876,1235,c),
(909,1027,l),
(1062,1027,l),
(1062,1318,l),
(961,1406,o),
(802,1477,o),
(598,1477,cs),
(406,1477,o),
(258,1403,o),
(178,1283,cs),
(137,1223,o),
(117,1155,o),
(117,1079,cs),
(117,935,o),
(190,824,o),
(328,746,cs),
(397,707,o),
(481,675,o),
(581,652,cs),
(823,597,o),
(919,516,o),
(919,377,cs),
(919,281,o),
(868,207,o),
(776,167,cs),
(729,146,o),
(673,136,o),
(606,136,cs),
(489,136,o),
(388,167,o),
(301,220,c),
(268,449,l),
(115,449,l),
(115,138,l),
(264,30,o),
(429,-21,o),
(606,-21,cs)
);
}
);
userData = {
assembly = "NPUSHB[ ]	/* 66 values pushed */
28 1 4 5 3 1 2 1 2 76 0 4 5 1 5 4 1 128 0 1 2 5 1 2 126 0 5 5 3 97 0 3 3 37 77 0 2 2 0 97 6 1 0 0 38 0 78 1 0 35 33 30 29 26 24 10 8 5 4 0 48 1 48 7 8 22 
CALL[ ]	/* CallFunction */";
};
width = 1206;
},
{
layerId = "B9892E43-DBAA-41C3-9AC8-C95A43C93A60";
shapes = (
{
closed = 1;
nodes = (
(866,-21,o),
(1032,47,o),
(1121,168,cs),
(1166,228,o),
(1188,299,o),
(1188,382,cs),
(1188,621,o),
(1019,759,o),
(698,848,c),
(490,917,o),
(405,969,o),
(405,1072,cs),
(405,1183,o),
(501,1251,o),
(644,1251,cs),
(753,1251,o),
(842,1223,o),
(893,1191,c),
(931,991,l),
(1150,991,l),
(1150,1319,l),
(1087,1369,o),
(1013,1408,o),
(927,1436,cs),
(844,1463,o),
(750,1476,o),
(644,1476,cs),
(629,1476,ls),
(426,1473,o),
(267,1400,o),
(180,1280,cs),
(136,1219,o),
(114,1150,o),
(114,1071,cs),
(114,912,o),
(189,803,o),
(341,723,cs),
(416,682,o),
(512,645,o),
(627,611,cs),
(817,552,o),
(895,488,o),
(895,380,cs),
(895,270,o),
(808,200,o),
(650,200,cs),
(526,200,o),
(414,234,o),
(354,285,c),
(323,492,l),
(97,492,l),
(97,140,l),
(268,21,o),
(435,-21,o),
(650,-21,cs)
);
}
);
width = 1247;
},
{
layerId = "14DC179B-5B87-47A1-B3E1-5CE1808186AA";
shapes = (
{
closed = 1;
nodes = (
(898,-21,o),
(1070,44,o),
(1163,165,cs),
(1210,225,o),
(1233,298,o),
(1233,384,cs),
(1233,635,o),
(1059,767,o),
(728,864,c),
(659,891,o),
(605,914,o),
(566,935,cs),
(489,975,o),
(462,1013,o),
(462,1065,cs),
(462,1157,o),
(541,1209,o),
(673,1209,cs),
(768,1209,o),
(859,1187,o),
(904,1164,c),
(945,969,l),
(1205,969,l),
(1205,1320,l),
(1065,1427,o),
(885,1480,o),
(648,1475,cs),
(440,1471,o),
(273,1398,o),
(181,1278,cs),
(135,1217,o),
(112,1147,o),
(112,1066,cs),
(112,898,o),
(189,791,o),
(349,708,cs),
(429,667,o),
(531,626,o),
(656,586,c),
(814,525,o),
(880,471,o),
(880,382,cs),
(880,292,o),
(811,240,o),
(677,240,cs),
(549,240,o),
(430,277,o),
(387,325,c),
(357,519,l),
(86,519,l),
(86,141,l),
(269,16,o),
(440,-21,o),
(677,-21,cs)
);
}
);
width = 1272;
}
);
note = S;
unicode = 83;
},
{
glyphname = T;
lastChange = "2022-11-15 15:09:44 +0000";
layers = (
{
layerId = m01;
shapes = (
{
closed = 1;
nodes = (
(827,54,l),
(664,54,l),
(664,1402,l),
(1140,1402,l),
(1140,1163,l),
(1194,1163,l),
(1194,1456,l),
(80,1456,l),
(80,1163,l),
(134,1163,l),
(134,1402,l),
(610,1402,l),
(610,54,l),
(447,54,l),
(447,0,l),
(827,0,l)
);
}
);
width = 1277;
},
{
layerId = "5711A9A5-FB70-4E23-B0BA-A0F8E72F65B6";
shapes = (
{
closed = 1;
nodes = (
(890,87,l),
(727,100,l),
(727,1358,l),
(1135,1358,l),
(1149,1136,l),
(1246,1136,l),
(1246,1456,l),
(87,1456,l),
(87,1136,l),
(185,1136,l),
(198,1358,l),
(607,1358,l),
(607,100,l),
(444,87,l),
(444,0,l),
(890,0,l)
);
}
);
width = 1337;
},
{
layerId = "C589F45C-3E8C-4D57-BBA0-76FE1AFDA3B7";
shapes = (
{
closed = 1;
nodes = (
(1306,1456,l),
(96,1456,l),
(96,1105,l),
(244,1105,l),
(273,1307,l),
(603,1307,l),
(603,154,l),
(440,126,l),
(440,0,l),
(963,0,l),
(963,126,l),
(800,154,l),
(800,1307,l),
(1130,1307,l),
(1160,1105,l),
(1306,1105,l)
);
}
);
userData = {
assembly = "NPUSHB[ ]	/* 9 values pushed */
8 7 4 3 4 1 3 1 76 
MPPEM[ ]	/* MeasurePixelPerEm */
PUSHB[ ]	/* 1 value pushed */
12 
LT[ ]	/* LessThan */
IF[ ]	/* If */
NPUSHB[ ]	/* 26 values pushed */
6 5 2 3 0 1 0 3 114 2 1 0 0 4 95 0 4 4 31 77 0 1 1 32 1 78 
ELSE[ ]	/* Else */
NPUSHB[ ]	/* 27 values pushed */
6 5 2 3 0 1 0 3 1 128 2 1 0 0 4 95 0 4 4 31 77 0 1 1 32 1 78 
EIF[ ]	/* EndIf */
NPUSHB[ ]	/* 14 values pushed */
0 0 0 15 0 15 17 17 19 19 17 7 8 27 
CALL[ ]	/* CallFunction */";
};
width = 1406;
},
{
layerId = "B9892E43-DBAA-41C3-9AC8-C95A43C93A60";
shapes = (
{
closed = 1;
nodes = (
(839,1231,l),
(1106,1231,l),
(1122,1057,l),
(1344,1057,l),
(1344,1456,l),
(45,1456,l),
(45,1057,l),
(266,1057,l),
(282,1231,l),
(547,1231,l),
(547,205,l),
(391,175,l),
(391,0,l),
(996,0,l),
(996,175,l),
(839,205,l)
);
}
);
userData = {
assembly = "NPUSHB[ ]	/* 9 values pushed */
15 4 3 0 4 0 2 1 76 
MPPEM[ ]	/* MeasurePixelPerEm */
PUSHB[ ]	/* 1 value pushed */
14 
LT[ ]	/* LessThan */
IF[ ]	/* If */
NPUSHB[ ]	/* 25 values pushed */
4 1 2 1 0 1 2 114 5 1 1 1 3 95 0 3 3 31 77 0 0 0 32 0 78 
ELSE[ ]	/* Else */
NPUSHB[ ]	/* 26 values pushed */
4 1 2 1 0 1 2 0 128 5 1 1 1 3 95 0 3 3 31 77 0 0 0 32 0 78 
EIF[ ]	/* EndIf */
NPUSHB[ ]	/* 9 values pushed */
17 17 17 17 19 17 6 8 28 
CALL[ ]	/* CallFunction */";
};
width = 1389;
},
{
layerId = "14DC179B-5B87-47A1-B3E1-5CE1808186AA";
shapes = (
{
closed = 1;
nodes = (
(1016,205,l),
(864,237,l),
(864,1184,l),
(1091,1184,l),
(1099,1027,l),
(1367,1027,l),
(1367,1456,l),
(14,1456,l),
(14,1027,l),
(279,1027,l),
(288,1184,l),
(513,1184,l),
(513,237,l),
(361,205,l),
(361,0,l),
(1016,0,l)
);
}
);
width = 1379;
}
);
note = T;
unicode = 84;
},
{
glyphname = U;
lastChange = "2022-11-15 15:09:44 +0000";
layers = (
{
layerId = m01;
shapes = (
{
closed = 1;
nodes = (
(917,-21,o),
(1071,56,o),
(1155,201,cs),
(1197,274,o),
(1218,363,o),
(1218,469,cs),
(1218,1402,l),
(1381,1402,l),
(1381,1456,l),
(1001,1456,l),
(1001,1402,l),
(1164,1402,l),
(1164,469,ls),
(1164,286,o),
(1084,154,o),
(951,85,cs),
(884,50,o),
(808,33,o),
(721,33,cs),
(546,33,o),
(409,105,o),
(334,235,cs),
(296,300,o),
(277,378,o),
(277,469,cs),
(277,1402,l),
(440,1402,l),
(440,1456,l),
(60,1456,l),
(60,1402,l),
(223,1402,l),
(223,469,ls),
(223,159,o),
(414,-21,o),
(721,-21,cs)
);
}
);
width = 1441;
},
{
layerId = "5711A9A5-FB70-4E23-B0BA-A0F8E72F65B6";
shapes = (
{
closed = 1;
nodes = (
(941,-21,o),
(1101,56,o),
(1187,201,cs),
(1230,274,o),
(1251,363,o),
(1251,469,cs),
(1251,1355,l),
(1414,1368,l),
(1414,1456,l),
(968,1456,l),
(968,1368,l),
(1131,1355,l),
(1131,469,ls),
(1131,225,o),
(979,81,o),
(738,81,cs),
(585,81,o),
(464,143,o),
(398,259,cs),
(365,316,o),
(348,386,o),
(348,469,cs),
(348,1355,l),
(511,1368,l),
(511,1456,l),
(65,1456,l),
(65,1368,l),
(228,1355,l),
(228,469,ls),
(228,261,o),
(320,113,o),
(473,37,cs),
(549,-2,o),
(637,-21,o),
(737,-21,cs)
);
}
);
width = 1478;
},
{
layerId = "C589F45C-3E8C-4D57-BBA0-76FE1AFDA3B7";
shapes = (
{
closed = 1;
nodes = (
(1086,-21,o),
(1289,159,o),
(1289,469,cs),
(1289,1301,l),
(1452,1329,l),
(1452,1456,l),
(929,1456,l),
(929,1329,l),
(1092,1301,l),
(1092,469,ls),
(1092,254,o),
(962,137,o),
(758,137,cs),
(557,137,o),
(430,256,o),
(430,469,cs),
(430,1301,l),
(593,1329,l),
(593,1456,l),
(70,1456,l),
(70,1329,l),
(233,1301,l),
(233,469,ls),
(233,265,o),
(330,117,o),
(487,38,cs),
(566,-1,o),
(655,-21,o),
(755,-21,cs)
);
}
);
userData = {
assembly = "NPUSHB[ ]	/* 46 values pushed */
25 24 21 20 10 9 6 5 8 2 1 1 76 3 1 1 1 31 77 0 2 2 0 97 4 1 0 0 38 0 78 1 0 23 22 16 14 8 7 0 29 1 29 5 8 22 
CALL[ ]	/* CallFunction */";
};
width = 1522;
},
{
layerId = "B9892E43-DBAA-41C3-9AC8-C95A43C93A60";
shapes = (
{
closed = 1;
nodes = (
(1137,-21,o),
(1361,170,o),
(1361,490,cs),
(1361,1250,l),
(1517,1280,l),
(1517,1456,l),
(914,1456,l),
(914,1280,l),
(1069,1250,l),
(1069,490,ls),
(1069,300,o),
(962,203,o),
(776,203,cs),
(593,203,o),
(486,301,o),
(486,490,cs),
(486,1250,l),
(642,1280,l),
(642,1456,l),
(39,1456,l),
(39,1280,l),
(194,1250,l),
(194,490,ls),
(194,273,o),
(296,119,o),
(472,39,cs),
(559,-1,o),
(661,-21,o),
(776,-21,cs)
);
}
);
userData = {
assembly = "NPUSHB[ ]	/* 46 values pushed */
25 24 21 20 10 9 6 5 8 2 1 1 76 3 1 1 1 31 77 0 2 2 0 98 4 1 0 0 38 0 78 1 0 23 22 16 14 8 7 0 29 1 29 5 8 22 
CALL[ ]	/* CallFunction */";
};
width = 1555;
},
{
layerId = "14DC179B-5B87-47A1-B3E1-5CE1808186AA";
shapes = (
{
closed = 1;
nodes = (
(1167,-21,o),
(1406,178,o),
(1406,503,cs),
(1406,1218,l),
(1557,1250,l),
(1557,1456,l),
(905,1456,l),
(905,1250,l),
(1055,1218,l),
(1055,503,ls),
(1055,327,o),
(963,244,o),
(787,244,cs),
(616,244,o),
(521,327,o),
(521,503,cs),
(521,1218,l),
(672,1250,l),
(672,1456,l),
(20,1456,l),
(20,1250,l),
(170,1218,l),
(170,503,ls),
(170,172,o),
(402,-21,o),
(789,-21,cs)
);
}
);
width = 1575;
}
);
note = U;
unicode = 85;
},
{
glyphname = V;
lastChange = "2022-11-15 15:09:44 +0000";
layers = (
{
layerId = m01;
shapes = (
{
closed = 1;
nodes = (
(1276,1402,l),
(1383,1402,l),
(1383,1456,l),
(1064,1456,l),
(1064,1402,l),
(1217,1402,l),
(748,142,l),
(722,63,l),
(716,63,l),
(690,142,l),
(221,1402,l),
(374,1402,l),
(374,1456,l),
(55,1456,l),
(55,1402,l),
(162,1402,l),
(686,0,l),
(752,0,l)
);
}
);
width = 1434;
},
{
layerId = "5711A9A5-FB70-4E23-B0BA-A0F8E72F65B6";
shapes = (
{
closed = 1;
nodes = (
(1299,1361,l),
(1411,1368,l),
(1411,1456,l),
(1027,1456,l),
(1027,1368,l),
(1178,1359,l),
(769,253,l),
(739,157,l),
(733,157,l),
(703,253,l),
(300,1359,l),
(444,1368,l),
(444,1456,l),
(60,1456,l),
(60,1368,l),
(171,1361,l),
(678,0,l),
(792,0,l)
);
}
);
width = 1468;
},
{
layerId = "C589F45C-3E8C-4D57-BBA0-76FE1AFDA3B7";
shapes = (
{
closed = 1;
nodes = (
(794,382,l),
(758,267,l),
(752,267,l),
(718,382,l),
(392,1308,l),
(525,1329,l),
(525,1456,l),
(65,1456,l),
(65,1329,l),
(181,1313,l),
(669,0,l),
(838,0,l),
(1326,1313,l),
(1443,1329,l),
(1443,1456,l),
(984,1456,l),
(984,1329,l),
(1132,1309,l)
);
}
);
userData = {
assembly = "NPUSHB[ ]	/* 30 values pushed */
17 14 12 11 8 3 0 7 1 0 1 76 2 1 0 0 31 77 0 1 1 32 1 78 19 19 17 3 8 25 
CALL[ ]	/* CallFunction */";
};
width = 1508;
},
{
layerId = "B9892E43-DBAA-41C3-9AC8-C95A43C93A60";
shapes = (
{
closed = 1;
nodes = (
(1502,1456,l),
(950,1456,l),
(950,1280,l),
(1103,1260,l),
(817,399,l),
(796,321,l),
(790,321,l),
(768,401,l),
(482,1260,l),
(613,1280,l),
(613,1456,l),
(34,1456,l),
(34,1280,l),
(164,1264,l),
(632,0,l),
(931,0,l),
(1370,1264,l),
(1502,1280,l)
);
}
);
userData = {
assembly = "NPUSHB[ ]	/* 30 values pushed */
17 14 13 10 8 7 4 7 0 1 1 76 2 1 1 1 31 77 0 0 0 32 0 78 25 19 17 3 8 25 
CALL[ ]	/* CallFunction */";
};
width = 1535;
},
{
layerId = "14DC179B-5B87-47A1-B3E1-5CE1808186AA";
shapes = (
{
closed = 1;
nodes = (
(1397,1234,l),
(1539,1250,l),
(1539,1456,l),
(929,1456,l),
(929,1250,l),
(1085,1230,l),
(832,409,l),
(819,355,l),
(813,355,l),
(799,412,l),
(538,1230,l),
(668,1250,l),
(668,1456,l),
(15,1456,l),
(15,1250,l),
(153,1234,l),
(609,0,l),
(989,0,l)
);
}
);
width = 1552;
}
);
note = V;
unicode = 86;
},
{
glyphname = W;
lastChange = "2022-11-15 15:09:44 +0000";
layers = (
{
layerId = m01;
shapes = (
{
closed = 1;
nodes = (
(1008,1359,l),
(1014,1359,l),
(1062,1214,l),
(1443,0,l),
(1504,0,l),
(1862,1402,l),
(1963,1402,l),
(1963,1456,l),
(1644,1456,l),
(1644,1402,l),
(1803,1402,l),
(1537,330,l),
(1472,101,l),
(1466,101,l),
(1404,330,l),
(1042,1456,l),
(982,1456,l),
(618,330,l),
(555,101,l),
(549,101,l),
(486,330,l),
(217,1402,l),
(377,1402,l),
(377,1456,l),
(57,1456,l),
(57,1402,l),
(158,1402,l),
(517,0,l),
(578,0,l)
);
}
);
width = 2000;
},
{
layerId = "5711A9A5-FB70-4E23-B0BA-A0F8E72F65B6";
shapes = (
{
closed = 1;
nodes = (
(992,1119,l),
(1035,1265,l),
(1041,1265,l),
(1086,1119,l),
(1437,0,l),
(1556,0,l),
(1899,1361,l),
(2006,1368,l),
(2006,1456,l),
(1620,1456,l),
(1620,1368,l),
(1781,1358,l),
(1551,410,l),
(1492,196,l),
(1486,196,l),
(1427,410,l),
(1095,1456,l),
(983,1456,l),
(652,410,l),
(591,201,l),
(585,201,l),
(531,411,l),
(298,1358,l),
(454,1368,l),
(454,1456,l),
(64,1456,l),
(64,1368,l),
(175,1361,l),
(525,0,l),
(639,0,l)
);
}
);
width = 2060;
},
{
layerId = "C589F45C-3E8C-4D57-BBA0-76FE1AFDA3B7";
shapes = (
{
closed = 1;
nodes = (
(1942,1314,l),
(2057,1329,l),
(2057,1456,l),
(1593,1456,l),
(1593,1329,l),
(1756,1306,l),
(1568,504,l),
(1516,306,l),
(1510,306,l),
(1453,504,l),
(1157,1456,l),
(984,1456,l),
(691,504,l),
(633,317,l),
(627,318,l),
(583,505,l),
(393,1306,l),
(544,1329,l),
(544,1456,l),
(72,1456,l),
(72,1329,l),
(195,1314,l),
(535,0,l),
(711,0,l),
(1028,1008,l),
(1067,1155,l),
(1073,1155,l),
(1113,1008,l),
(1429,0,l),
(1616,0,l)
);
}
);
userData = {
assembly = "NPUSHB[ ]	/* 42 values pushed */
27 24 23 20 14 12 11 8 2 9 0 1 1 76 3 2 2 1 1 31 77 5 4 2 0 0 32 0 78 0 0 0 29 0 29 23 23 19 21 6 8 26 
CALL[ ]	/* CallFunction */";
};
width = 2129;
},
{
layerId = "B9892E43-DBAA-41C3-9AC8-C95A43C93A60";
shapes = (
{
closed = 1;
nodes = (
(1111,971,l),
(1146,851,l),
(1422,0,l),
(1686,0,l),
(2028,1265,l),
(2167,1280,l),
(2167,1456,l),
(1592,1456,l),
(1592,1280,l),
(1758,1257,l),
(1581,524,l),
(1551,409,l),
(1545,409,l),
(1510,524,l),
(1211,1456,l),
(996,1456,l),
(708,549,l),
(671,419,l),
(665,419,l),
(634,549,l),
(463,1257,l),
(620,1280,l),
(620,1456,l),
(34,1456,l),
(34,1280,l),
(183,1265,l),
(521,0,l),
(787,0,l),
(1066,847,l),
(1105,971,l)
);
}
);
userData = {
assembly = "NPUSHB[ ]	/* 36 values pushed */
28 23 20 19 16 10 8 7 4 9 0 1 1 76 3 2 2 1 1 31 77 4 1 0 0 32 0 78 19 23 23 19 17 5 8 27 
CALL[ ]	/* CallFunction */";
};
width = 2202;
},
{
layerId = "14DC179B-5B87-47A1-B3E1-5CE1808186AA";
shapes = (
{
closed = 1;
nodes = (
(1090,747,l),
(1129,857,l),
(1135,857,l),
(1166,753,l),
(1417,0,l),
(1730,0,l),
(2081,1235,l),
(2236,1250,l),
(2236,1456,l),
(1592,1456,l),
(1592,1250,l),
(1759,1227,l),
(1589,536,l),
(1572,473,l),
(1566,473,l),
(1545,536,l),
(1245,1456,l),
(1003,1456,l),
(718,577,l),
(694,482,l),
(688,482,l),
(506,1227,l),
(668,1250,l),
(668,1456,l),
(11,1456,l),
(11,1250,l),
(176,1235,l),
(512,0,l),
(835,0,l)
);
}
);
width = 2247;
}
);
note = W;
unicode = 87;
},
{
glyphname = X;
lastChange = "2022-11-15 15:09:44 +0000";
layers = (
{
layerId = m01;
shapes = (
{
closed = 1;
nodes = (
(403,54,l),
(238,54,l),
(691,701,l),
(1145,54,l),
(980,54,l),
(980,0,l),
(1327,0,l),
(1327,54,l),
(1212,54,l),
(726,743,l),
(1191,1402,l),
(1306,1402,l),
(1306,1456,l),
(959,1456,l),
(959,1402,l),
(1124,1402,l),
(691,785,l),
(259,1402,l),
(425,1402,l),
(425,1456,l),
(77,1456,l),
(77,1402,l),
(192,1402,l),
(658,743,l),
(172,54,l),
(57,54,l),
(57,0,l),
(403,0,l)
);
}
);
width = 1384;
},
{
layerId = "5711A9A5-FB70-4E23-B0BA-A0F8E72F65B6";
shapes = (
{
closed = 1;
nodes = (
(474,87,l),
(323,93,l),
(726,660,l),
(1130,93,l),
(976,87,l),
(976,0,l),
(1383,0,l),
(1383,87,l),
(1262,97,l),
(798,741,l),
(1231,1358,l),
(1354,1368,l),
(1354,1456,l),
(948,1456,l),
(948,1368,l),
(1101,1362,l),
(727,823,l),
(346,1362,l),
(498,1368,l),
(498,1456,l),
(93,1456,l),
(93,1368,l),
(214,1358,l),
(658,741,l),
(188,97,l),
(68,87,l),
(68,0,l),
(474,0,l)
);
}
);
width = 1451;
},
{
layerId = "C589F45C-3E8C-4D57-BBA0-76FE1AFDA3B7";
shapes = (
{
closed = 1;
nodes = (
(1449,0,l),
(1449,126,l),
(1320,148,l),
(882,739,l),
(1277,1307,l),
(1410,1329,l),
(1410,1456,l),
(935,1456,l),
(935,1329,l),
(1075,1316,l),
(769,867,l),
(447,1316,l),
(584,1329,l),
(584,1456,l),
(112,1456,l),
(112,1329,l),
(239,1307,l),
(657,739,l),
(206,148,l),
(80,126,l),
(80,0,l),
(556,0,l),
(556,126,l),
(423,139,l),
(767,612,l),
(1112,139,l),
(971,126,l),
(971,0,l)
);
}
);
userData = {
assembly = "NPUSHB[ ]	/* 41 values pushed */
25 23 21 18 17 16 15 14 11 9 7 4 3 2 1 0 16 0 1 1 76 2 1 1 1 31 77 3 1 0 0 32 0 78 22 22 22 21 4 8 26 
CALL[ ]	/* CallFunction */";
};
width = 1529;
},
{
layerId = "B9892E43-DBAA-41C3-9AC8-C95A43C93A60";
shapes = (
{
closed = 1;
nodes = (
(751,557,l),
(1021,187,l),
(896,175,l),
(896,0,l),
(1479,0,l),
(1479,175,l),
(1340,200,l),
(922,747,l),
(1295,1255,l),
(1424,1280,l),
(1424,1456,l),
(863,1456,l),
(863,1280,l),
(999,1267,l),
(749,917,l),
(499,1267,l),
(638,1280,l),
(638,1456,l),
(69,1456,l),
(69,1280,l),
(187,1255,l),
(575,721,l),
(163,199,l),
(36,175,l),
(36,0,l),
(597,0,l),
(597,175,l),
(475,187,l)
);
}
);
userData = {
assembly = "NPUSHB[ ]	/* 41 values pushed */
27 26 25 24 21 19 17 14 13 12 11 10 7 5 3 0 16 0 1 1 76 2 1 1 1 31 77 3 1 0 0 32 0 78 22 22 22 17 4 8 26 
CALL[ ]	/* CallFunction */";
};
width = 1514;
},
{
layerId = "14DC179B-5B87-47A1-B3E1-5CE1808186AA";
shapes = (
{
closed = 1;
nodes = (
(623,205,l),
(508,217,l),
(741,523,l),
(965,217,l),
(849,205,l),
(849,0,l),
(1497,0,l),
(1497,205,l),
(1353,232,l),
(947,752,l),
(1306,1223,l),
(1432,1250,l),
(1432,1456,l),
(818,1456,l),
(818,1250,l),
(951,1237,l),
(737,948,l),
(531,1237,l),
(671,1250,l),
(671,1456,l),
(42,1456,l),
(42,1250,l),
(154,1223,l),
(524,710,l),
(137,231,l),
(8,205,l),
(8,0,l),
(623,0,l)
);
}
);
width = 1505;
}
);
note = X;
unicode = 88;
},
{
glyphname = Y;
lastChange = "2022-11-15 15:09:44 +0000";
layers = (
{
layerId = m01;
shapes = (
{
closed = 1;
nodes = (
(907,54,l),
(744,54,l),
(744,553,l),
(1258,1402,l),
(1378,1402,l),
(1378,1456,l),
(1052,1456,l),
(1052,1402,l),
(1193,1402,l),
(742,647,l),
(716,599,l),
(715,597,l),
(689,647,l),
(240,1402,l),
(381,1402,l),
(381,1456,l),
(55,1456,l),
(55,1402,l),
(174,1402,l),
(689,553,l),
(689,54,l),
(526,54,l),
(526,0,l),
(907,0,l)
);
}
);
width = 1429;
},
{
layerId = "5711A9A5-FB70-4E23-B0BA-A0F8E72F65B6";
shapes = (
{
closed = 1;
nodes = (
(946,87,l),
(783,100,l),
(783,549,l),
(1263,1360,l),
(1386,1368,l),
(1386,1456,l),
(984,1456,l),
(984,1368,l),
(1139,1360,l),
(747,689,l),
(723,646,l),
(722,644,l),
(699,689,l),
(314,1360,l),
(467,1368,l),
(467,1456,l),
(60,1456,l),
(60,1368,l),
(179,1360,l),
(663,542,l),
(663,100,l),
(500,87,l),
(500,0,l),
(946,0,l)
);
}
);
width = 1444;
},
{
layerId = "C589F45C-3E8C-4D57-BBA0-76FE1AFDA3B7";
shapes = (
{
closed = 1;
nodes = (
(904,1456,l),
(904,1329,l),
(1076,1310,l),
(752,738,l),
(732,701,l),
(731,699,l),
(401,1310,l),
(567,1329,l),
(567,1456,l),
(65,1456,l),
(65,1329,l),
(185,1310,l),
(633,530,l),
(633,154,l),
(470,126,l),
(470,0,l),
(992,0,l),
(992,126,l),
(829,154,l),
(829,545,l),
(1269,1310,l),
(1396,1329,l),
(1396,1456,l)
);
}
);
userData = {
assembly = "NPUSHB[ ]	/* 36 values pushed */
20 19 16 15 14 11 9 8 7 4 3 2 0 13 0 1 1 76 2 1 1 1 31 77 0 0 0 32 0 78 24 22 21 3 8 25 
CALL[ ]	/* CallFunction */";
};
width = 1461;
},
{
layerId = "B9892E43-DBAA-41C3-9AC8-C95A43C93A60";
shapes = (
{
closed = 1;
nodes = (
(899,522,l),
(1325,1260,l),
(1469,1280,l),
(1469,1456,l),
(899,1456,l),
(899,1280,l),
(1059,1263,l),
(790,796,l),
(768,752,l),
(762,751,l),
(740,798,l),
(498,1263,l),
(617,1280,l),
(617,1456,l),
(36,1456,l),
(36,1280,l),
(176,1260,l),
(608,499,l),
(608,205,l),
(452,175,l),
(452,0,l),
(1055,0,l),
(1055,175,l),
(899,205,l)
);
}
);
userData = {
assembly = "NPUSHB[ ]	/* 36 values pushed */
23 22 20 17 16 13 11 10 7 5 4 3 0 13 0 1 1 76 2 1 1 1 31 77 0 0 0 32 0 78 25 22 17 3 8 25 
CALL[ ]	/* CallFunction */";
};
width = 1508;
},
{
layerId = "14DC179B-5B87-47A1-B3E1-5CE1808186AA";
shapes = (
{
closed = 1;
nodes = (
(1094,205,l),
(942,237,l),
(942,508,l),
(1360,1229,l),
(1514,1250,l),
(1514,1456,l),
(896,1456,l),
(896,1250,l),
(1048,1234,l),
(814,832,l),
(790,784,l),
(781,784,l),
(758,835,l),
(558,1234,l),
(648,1250,l),
(648,1456,l),
(18,1456,l),
(18,1250,l),
(170,1229,l),
(592,480,l),
(592,237,l),
(441,205,l),
(441,0,l),
(1094,0,l)
);
}
);
width = 1537;
}
);
note = Y;
unicode = 89;
},
{
glyphname = Z;
lastChange = "2022-11-15 15:09:44 +0000";
layers = (
{
layerId = m01;
shapes = (
{
closed = 1;
nodes = (
(1128,293,l),
(1074,293,l),
(1074,54,l),
(166,54,l),
(1096,1418,l),
(1096,1456,l),
(132,1456,l),
(132,1163,l),
(186,1163,l),
(186,1403,l),
(1021,1403,l),
(92,44,l),
(92,0,l),
(1128,0,l)
);
}
);
width = 1220;
},
{
layerId = "5711A9A5-FB70-4E23-B0BA-A0F8E72F65B6";
shapes = (
{
closed = 1;
nodes = (
(1118,324,l),
(1017,324,l),
(1008,100,l),
(234,100,l),
(1086,1369,l),
(1086,1456,l),
(120,1456,l),
(120,1140,l),
(222,1140,l),
(230,1356,l),
(941,1356,l),
(91,92,l),
(91,0,l),
(1118,0,l)
);
}
);
width = 1209;
},
{
layerId = "C589F45C-3E8C-4D57-BBA0-76FE1AFDA3B7";
shapes = (
{
closed = 1;
nodes = (
(105,1456,l),
(105,1114,l),
(263,1114,l),
(281,1302,l),
(847,1302,l),
(90,149,l),
(90,0,l),
(1107,0,l),
(1107,360,l),
(950,360,l),
(932,153,l),
(313,153,l),
(1074,1311,l),
(1074,1456,l)
);
}
);
userData = {
assembly = "NPUSHB[ ]	/* 10 values pushed */
0 1 3 5 7 1 2 0 2 76 
MPPEM[ ]	/* MeasurePixelPerEm */
PUSHB[ ]	/* 1 value pushed */
12 
LT[ ]	/* LessThan */
IF[ ]	/* If */
NPUSHB[ ]	/* 34 values pushed */
0 4 3 1 3 4 114 0 1 0 0 1 112 0 3 3 5 95 0 5 5 31 77 0 0 0 2 96 0 2 2 32 2 78 
ELSE[ ]	/* Else */
MPPEM[ ]	/* MeasurePixelPerEm */
PUSHB[ ]	/* 1 value pushed */
14 
LT[ ]	/* LessThan */
IF[ ]	/* If */
NPUSHB[ ]	/* 35 values pushed */
0 4 3 1 3 4 114 0 1 0 3 1 0 126 0 3 3 5 95 0 5 5 31 77 0 0 0 2 96 0 2 2 32 2 78 
ELSE[ ]	/* Else */
NPUSHB[ ]	/* 36 values pushed */
0 4 3 1 3 4 1 128 0 1 0 3 1 0 126 0 3 3 5 95 0 5 5 31 77 0 0 0 2 96 0 2 2 32 2 78 
EIF[ ]	/* EndIf */
EIF[ ]	/* EndIf */
NPUSHB[ ]	/* 9 values pushed */
17 17 18 17 17 17 6 8 28 
CALL[ ]	/* CallFunction */";
};
width = 1197;
},
{
layerId = "B9892E43-DBAA-41C3-9AC8-C95A43C93A60";
shapes = (
{
closed = 1;
nodes = (
(937,224,l),
(430,224,l),
(1143,1270,l),
(1143,1456,l),
(107,1456,l),
(95,1045,l),
(318,1045,l),
(341,1231,l),
(784,1231,l),
(74,192,l),
(74,0,l),
(1165,0,l),
(1183,410,l),
(961,410,l)
);
}
);
userData = {
assembly = "NPUSHB[ ]	/* 10 values pushed */
10 1 1 3 3 1 0 4 2 76 
MPPEM[ ]	/* MeasurePixelPerEm */
PUSHB[ ]	/* 1 value pushed */
14 
LT[ ]	/* LessThan */
IF[ ]	/* If */
NPUSHB[ ]	/* 35 values pushed */
0 2 1 5 1 2 114 6 1 5 4 4 5 112 0 1 1 3 95 0 3 3 31 77 0 4 4 0 96 0 0 0 32 0 78 
ELSE[ ]	/* Else */
NPUSHB[ ]	/* 37 values pushed */
0 2 1 5 1 2 5 128 6 1 5 4 1 5 4 126 0 1 1 3 95 0 3 3 31 77 0 4 4 0 96 0 0 0 32 0 78 
EIF[ ]	/* EndIf */
NPUSHB[ ]	/* 14 values pushed */
0 0 0 13 0 13 18 17 17 18 17 7 8 27 
CALL[ ]	/* CallFunction */";
};
width = 1226;
},
{
layerId = "14DC179B-5B87-47A1-B3E1-5CE1808186AA";
shapes = (
{
closed = 1;
nodes = (
(1230,441,l),
(968,441,l),
(940,268,l),
(503,268,l),
(1186,1245,l),
(1186,1456,l),
(108,1456,l),
(89,1002,l),
(352,1002,l),
(378,1187,l),
(745,1187,l),
(64,219,l),
(64,0,l),
(1201,0,l)
);
}
);
width = 1244;
}
);
note = Z;
unicode = 90;
},
{
glyphname = a;
lastChange = "2022-11-15 15:09:44 +0000";
layers = (
{
layerId = m01;
shapes = (
{
closed = 1;
nodes = (
(598,-21,o),
(746,68,o),
(827,199,c),
(827,128,o),
(832,95,o),
(849,0,c),
(1046,0,l),
(1046,54,l),
(896,54,l),
(885,107,o),
(881,162,o),
(881,218,cs),
(881,740,ls),
(881,963,o),
(754,1102,o),
(505,1102,cs),
(361,1102,o),
(254,1048,o),
(165,965,c),
(165,759,l),
(219,759,l),
(219,936,l),
(287,999,o),
(387,1049,o),
(504,1049,cs),
(727,1049,o),
(827,922,o),
(827,742,cs),
(827,604,l),
(578,604,ls),
(386,604,o),
(241,545,o),
(163,446,cs),
(124,396,o),
(104,339,o),
(104,274,cs),
(104,98,o),
(228,-21,o),
(417,-21,cs)
);
},
{
closed = 1;
nodes = (
(158,435,o),
(326,549,o),
(581,549,cs),
(827,549,l),
(827,292,l),
(751,129,o),
(581,32,o),
(417,32,cs),
(266,32,o),
(158,135,o),
(158,270,cs)
);
}
);
width = 1116;
},
{
layerId = "5711A9A5-FB70-4E23-B0BA-A0F8E72F65B6";
shapes = (
{
closed = 1;
nodes = (
(577,-21,o),
(712,60,o),
(791,176,c),
(792,116,o),
(797,79,o),
(813,0,c),
(1049,0,l),
(1049,87,l),
(920,92,l),
(913,133,o),
(911,175,o),
(911,218,cs),
(911,740,ls),
(911,967,o),
(769,1102,o),
(514,1102,cs),
(363,1102,o),
(246,1053,o),
(153,973,c),
(153,747,l),
(252,747,l),
(262,912,l),
(323,964,o),
(407,1002,o),
(512,1002,cs),
(699,1002,o),
(791,898,o),
(791,742,cs),
(791,618,l),
(567,618,ls),
(372,618,o),
(227,559,o),
(150,459,cs),
(111,408,o),
(92,350,o),
(92,283,cs),
(92,96,o),
(215,-21,o),
(420,-21,cs)
);
},
{
closed = 1;
nodes = (
(212,418,o),
(345,526,o),
(566,526,cs),
(791,526,l),
(791,298,l),
(728,169,o),
(582,84,o),
(434,84,cs),
(298,84,o),
(212,163,o),
(212,279,cs)
);
}
);
width = 1123;
},
{
layerId = "C589F45C-3E8C-4D57-BBA0-76FE1AFDA3B7";
shapes = (
{
closed = 1;
nodes = (
(553,-21,o),
(673,52,o),
(749,149,c),
(752,102,o),
(758,59,o),
(770,0,c),
(1053,0,l),
(1053,126,l),
(948,137,l),
(945,164,o),
(945,190,o),
(945,218,cs),
(945,739,ls),
(945,972,o),
(787,1102,o),
(524,1102,cs),
(367,1102,o),
(236,1061,o),
(139,982,c),
(139,734,l),
(291,734,l),
(312,885,l),
(367,924,o),
(430,947,o),
(521,947,cs),
(665,947,o),
(748,872,o),
(748,741,cs),
(748,635,l),
(555,635,ls),
(356,635,o),
(211,576,o),
(136,474,cs),
(98,423,o),
(79,363,o),
(79,294,cs),
(79,94,o),
(199,-21,o),
(424,-21,cs)
);
},
{
closed = 1;
nodes = (
(276,397,o),
(367,500,o),
(548,500,cs),
(748,500,l),
(748,304,l),
(701,216,o),
(584,144,o),
(453,144,cs),
(334,144,o),
(276,195,o),
(276,290,cs)
);
}
);
userData = {
assembly = "MPPEM[ ]	/* MeasurePixelPerEm */
PUSHB[ ]	/* 1 value pushed */
23 
LT[ ]	/* LessThan */
IF[ ]	/* If */
NPUSHB[ ]	/* 15 values pushed */
18 1 2 4 40 34 2 6 7 29 1 0 6 3 76 
ELSE[ ]	/* Else */
NPUSHB[ ]	/* 15 values pushed */
18 1 2 4 40 34 2 6 7 29 1 5 6 3 76 
EIF[ ]	/* EndIf */
MPPEM[ ]	/* MeasurePixelPerEm */
PUSHB[ ]	/* 1 value pushed */
23 
LT[ ]	/* LessThan */
IF[ ]	/* If */
NPUSHB[ ]	/* 40 values pushed */
0 3 2 1 2 3 1 128 0 1 0 7 6 1 7 103 0 2 2 4 97 0 4 4 40 77 9 1 6 6 0 97 5 8 2 0 0 38 0 78 
ELSE[ ]	/* Else */
NPUSHB[ ]	/* 44 values pushed */
0 3 2 1 2 3 1 128 0 1 0 7 6 1 7 103 0 2 2 4 97 0 4 4 40 77 0 5 5 32 77 9 1 6 6 0 97 8 1 0 0 38 0 78 
EIF[ ]	/* EndIf */
NPUSHB[ ]	/* 27 values pushed */
38 37 1 0 43 41 37 47 38 47 31 30 22 20 17 16 13 11 8 6 0 36 1 36 10 8 22 
CALL[ ]	/* CallFunction */";
};
width = 1132;
},
{
layerId = "B9892E43-DBAA-41C3-9AC8-C95A43C93A60";
shapes = (
{
closed = 1;
nodes = (
(552,-21,o),
(644,36,o),
(713,124,c),
(720,81,o),
(736,37,o),
(751,0,c),
(1113,0,l),
(1113,175,l),
(1000,191,l),
(996,218,o),
(996,247,o),
(996,276,cs),
(996,722,ls),
(996,966,o),
(821,1102,o),
(538,1102,cs),
(375,1102,o),
(246,1058,o),
(133,994,c),
(137,713,l),
(347,713,l),
(370,856,l),
(410,884,o),
(459,900,o),
(522,900,cs),
(643,900,o),
(704,829,o),
(704,725,cs),
(704,645,l),
(561,645,ls),
(349,645,o),
(204,583,o),
(130,480,cs),
(93,429,o),
(74,369,o),
(74,301,cs),
(74,102,o),
(210,-21,o),
(425,-21,cs)
);
},
{
closed = 1;
nodes = (
(365,399,o),
(432,466,o),
(560,466,cs),
(704,466,l),
(704,295,l),
(664,235,o),
(584,195,o),
(503,195,cs),
(416,195,o),
(365,239,o),
(365,316,cs)
);
}
);
userData = {
assembly = "MPPEM[ ]	/* MeasurePixelPerEm */
PUSHB[ ]	/* 1 value pushed */
23 
LT[ ]	/* LessThan */
IF[ ]	/* If */
NPUSHB[ ]	/* 15 values pushed */
18 1 2 4 40 1 6 7 34 29 2 0 6 3 76 
ELSE[ ]	/* Else */
NPUSHB[ ]	/* 15 values pushed */
18 1 2 4 40 1 6 7 34 29 2 5 6 3 76 
EIF[ ]	/* EndIf */
MPPEM[ ]	/* MeasurePixelPerEm */
PUSHB[ ]	/* 1 value pushed */
23 
LT[ ]	/* LessThan */
IF[ ]	/* If */
NPUSHB[ ]	/* 40 values pushed */
0 3 2 1 2 3 1 128 0 1 0 7 6 1 7 105 0 2 2 4 97 0 4 4 40 77 9 1 6 6 0 97 5 8 2 0 0 38 0 78 
ELSE[ ]	/* Else */
NPUSHB[ ]	/* 44 values pushed */
0 3 2 1 2 3 1 128 0 1 0 7 6 1 7 105 0 2 2 4 97 0 4 4 40 77 0 5 5 32 77 9 1 6 6 0 97 8 1 0 0 38 0 78 
EIF[ ]	/* EndIf */
NPUSHB[ ]	/* 27 values pushed */
38 37 1 0 43 41 37 47 38 47 31 30 22 20 17 16 13 11 8 6 0 36 1 36 10 8 22 
CALL[ ]	/* CallFunction */";
};
width = 1154;
},
{
layerId = "14DC179B-5B87-47A1-B3E1-5CE1808186AA";
shapes = (
{
closed = 1;
nodes = (
(551,-21,o),
(626,27,o),
(691,108,c),
(699,68,o),
(723,24,o),
(740,0,c),
(1150,0,l),
(1150,205,l),
(1033,225,l),
(1028,252,o),
(1028,281,o),
(1028,312,cs),
(1028,711,ls),
(1028,962,o),
(842,1102,o),
(547,1102,cs),
(382,1102,o),
(253,1056,o),
(130,1001,c),
(135,700,l),
(382,700,l),
(406,838,l),
(438,859,o),
(478,871,o),
(523,871,cs),
(630,871,o),
(677,802,o),
(677,715,cs),
(677,651,l),
(564,651,ls),
(344,651,o),
(198,588,o),
(126,484,cs),
(89,432,o),
(71,372,o),
(71,305,cs),
(71,108,o),
(217,-21,o),
(426,-21,cs)
);
},
{
closed = 1;
nodes = (
(420,400,o),
(473,445,o),
(568,445,cs),
(677,445,l),
(677,289,l),
(640,248,o),
(585,227,o),
(534,227,cs),
(467,227,o),
(420,267,o),
(420,332,cs)
);
}
);
width = 1167;
}
);
note = a;
unicode = 97;
},
{
glyphname = b;
lastChange = "2022-11-15 15:09:44 +0000";
layers = (
{
layerId = m01;
shapes = (
{
closed = 1;
nodes = (
(747,-21,o),
(871,71,o),
(936,233,cs),
(968,314,o),
(984,410,o),
(984,521,cs),
(984,542,ls),
(984,770,o),
(917,942,o),
(795,1034,cs),
(734,1079,o),
(661,1102,o),
(576,1102,cs),
(404,1102,o),
(281,1020,o),
(209,885,c),
(209,1560,l),
(-8,1560,l),
(-8,1506,l),
(155,1506,l),
(155,0,l),
(200,0,l),
(207,173,l),
(278,54,o),
(406,-21,o),
(578,-21,cs)
);
},
{
closed = 1;
nodes = (
(209,770,l),
(258,926,o),
(366,1048,o),
(577,1048,cs),
(804,1048,o),
(928,846,o),
(928,542,cs),
(928,521,ls),
(928,222,o),
(807,33,o),
(579,33,cs),
(387,33,o),
(261,127,o),
(209,274,c)
);
}
);
width = 1088;
},
{
layerId = "5711A9A5-FB70-4E23-B0BA-A0F8E72F65B6";
shapes = (
{
closed = 1;
nodes = (
(783,-21,o),
(909,71,o),
(975,230,cs),
(1008,309,o),
(1024,403,o),
(1024,511,cs),
(1024,532,ls),
(1024,763,o),
(956,938,o),
(832,1032,cs),
(770,1079,o),
(696,1102,o),
(609,1102,cs),
(454,1102,o),
(342,1033,o),
(271,917,c),
(271,1560,l),
(-12,1560,l),
(-12,1472,l),
(151,1459,l),
(151,0,l),
(254,0,l),
(266,157,l),
(337,45,o),
(452,-21,o),
(611,-21,cs)
);
},
{
closed = 1;
nodes = (
(271,775,l),
(320,904,o),
(417,999,o),
(586,999,cs),
(789,999,o),
(903,829,o),
(903,532,cs),
(903,511,ls),
(903,250,o),
(796,82,o),
(588,82,cs),
(429,82,o),
(322,162,o),
(271,287,c)
);
}
);
width = 1114;
},
{
layerId = "C589F45C-3E8C-4D57-BBA0-76FE1AFDA3B7";
shapes = (
{
closed = 1;
nodes = (
(825,-21,o),
(953,71,o),
(1021,227,cs),
(1054,305,o),
(1071,396,o),
(1071,500,cs),
(1071,521,ls),
(1071,753,o),
(1002,933,o),
(876,1030,cs),
(813,1078,o),
(736,1102,o),
(647,1102,cs),
(512,1102,o),
(412,1050,o),
(344,954,c),
(344,1560,l),
(-16,1560,l),
(-16,1433,l),
(147,1405,l),
(147,0,l),
(317,0,l),
(335,139,l),
(404,34,o),
(508,-21,o),
(649,-21,cs)
);
},
{
closed = 1;
nodes = (
(344,780,l),
(393,879,o),
(476,942,o),
(597,942,cs),
(783,942,o),
(873,773,o),
(873,521,cs),
(873,500,ls),
(873,283,o),
(784,139,o),
(599,139,cs),
(478,139,o),
(393,202,o),
(344,302,c)
);
}
);
userData = {
assembly = "NPUSHB[ ]	/* 21 values pushed */
7 6 2 3 2 10 1 5 3 34 33 2 4 5 3 76 3 1 4 1 75 
MPPEM[ ]	/* MeasurePixelPerEm */
PUSHB[ ]	/* 1 value pushed */
23 
LT[ ]	/* LessThan */
IF[ ]	/* If */
NPUSHB[ ]	/* 29 values pushed */
0 2 2 33 77 0 5 5 3 97 0 3 3 40 77 7 1 4 4 0 97 1 6 2 0 0 38 0 78 
ELSE[ ]	/* Else */
NPUSHB[ ]	/* 33 values pushed */
0 2 2 33 77 0 5 5 3 97 0 3 3 40 77 0 1 1 32 77 7 1 4 4 0 97 6 1 0 0 38 0 78 
EIF[ ]	/* EndIf */
NPUSHB[ ]	/* 23 values pushed */
23 22 1 0 31 29 22 36 23 36 14 12 9 8 5 4 0 21 1 21 8 8 22 
CALL[ ]	/* CallFunction */";
};
width = 1145;
},
{
layerId = "B9892E43-DBAA-41C3-9AC8-C95A43C93A60";
shapes = (
{
closed = 1;
nodes = (
(873,-21,o),
(997,71,o),
(1061,231,cs),
(1093,310,o),
(1109,404,o),
(1109,511,cs),
(1109,532,ls),
(1109,763,o),
(1044,938,o),
(922,1032,cs),
(861,1079,o),
(786,1102,o),
(699,1102,cs),
(578,1102,o),
(487,1054,o),
(424,967,c),
(424,1560,l),
(-22,1560,l),
(-22,1384,l),
(133,1354,l),
(133,0,l),
(385,0,l),
(406,133,l),
(470,33,o),
(563,-21,o),
(696,-21,cs)
);
},
{
closed = 1;
nodes = (
(424,760,l),
(460,831,o),
(523,875,o),
(611,875,cs),
(756,875,o),
(818,744,o),
(818,532,cs),
(818,511,ls),
(818,316,o),
(757,206,o),
(608,206,cs),
(527,206,o),
(464,241,o),
(424,308,c)
);
}
);
userData = {
assembly = "MPPEM[ ]	/* MeasurePixelPerEm */
PUSHB[ ]	/* 1 value pushed */
23 
LT[ ]	/* LessThan */
IF[ ]	/* If */
NPUSHB[ ]	/* 20 values pushed */
7 6 2 3 2 10 1 5 3 34 33 2 4 5 3 1 0 4 4 76 
ELSE[ ]	/* Else */
NPUSHB[ ]	/* 20 values pushed */
7 6 2 3 2 10 1 5 3 34 33 2 4 5 3 1 1 4 4 76 
EIF[ ]	/* EndIf */
MPPEM[ ]	/* MeasurePixelPerEm */
PUSHB[ ]	/* 1 value pushed */
23 
LT[ ]	/* LessThan */
IF[ ]	/* If */
NPUSHB[ ]	/* 29 values pushed */
0 2 2 33 77 0 5 5 3 97 0 3 3 40 77 7 1 4 4 0 97 1 6 2 0 0 38 0 78 
ELSE[ ]	/* Else */
NPUSHB[ ]	/* 33 values pushed */
0 2 2 33 77 0 5 5 3 97 0 3 3 40 77 0 1 1 32 77 7 1 4 4 0 97 6 1 0 0 38 0 78 
EIF[ ]	/* EndIf */
NPUSHB[ ]	/* 23 values pushed */
23 22 1 0 31 29 22 36 23 36 14 12 9 8 5 4 0 21 1 21 8 8 22 
CALL[ ]	/* CallFunction */";
};
width = 1181;
},
{
layerId = "14DC179B-5B87-47A1-B3E1-5CE1808186AA";
shapes = (
{
closed = 1;
nodes = (
(993,-21,o),
(1133,190,o),
(1133,518,cs),
(1133,539,ls),
(1133,887,o),
(988,1102,o),
(732,1102,cs),
(619,1102,o),
(533,1056,o),
(474,975,c),
(474,1560,l),
(-26,1560,l),
(-26,1354,l),
(124,1322,l),
(124,0,l),
(427,0,l),
(450,129,l),
(511,32,o),
(597,-21,o),
(726,-21,cs)
);
},
{
closed = 1;
nodes = (
(474,747,l),
(502,800,o),
(554,833,o),
(619,833,cs),
(740,833,o),
(784,724,o),
(784,539,cs),
(784,518,ls),
(784,337,o),
(741,248,o),
(614,248,cs),
(557,248,o),
(509,267,o),
(474,312,c)
);
}
);
width = 1203;
}
);
note = b;
unicode = 98;
},
{
glyphname = c;
lastChange = "2022-11-15 15:09:44 +0000";
layers = (
{
layerId = m01;
shapes = (
{
closed = 1;
nodes = (
(764,-21,o),
(913,98,o),
(937,317,c),
(935,323,l),
(889,323,l),
(865,126,o),
(728,33,o),
(543,33,cs),
(388,33,o),
(270,119,o),
(206,266,cs),
(174,339,o),
(158,424,o),
(158,520,cs),
(158,562,ls),
(158,753,o),
(224,903,o),
(339,986,cs),
(396,1027,o),
(463,1048,o),
(539,1048,cs),
(674,1048,o),
(781,996,o),
(866,905,c),
(866,693,l),
(920,693,l),
(920,925,l),
(833,1024,o),
(701,1102,o),
(538,1102,cs),
(369,1102,o),
(234,1008,o),
(160,846,cs),
(123,765,o),
(104,670,o),
(104,562,cs),
(104,520,ls),
(104,304,o),
(185,138,o),
(317,47,cs),
(383,2,o),
(457,-21,o),
(540,-21,cs)
);
}
);
width = 1082;
},
{
layerId = "5711A9A5-FB70-4E23-B0BA-A0F8E72F65B6";
shapes = (
{
closed = 1;
nodes = (
(712,-21,o),
(832,40,o),
(901,144,cs),
(935,196,o),
(955,256,o),
(961,324,c),
(959,330,l),
(852,330,l),
(829,165,o),
(713,79,o),
(552,79,cs),
(413,79,o),
(310,156,o),
(254,289,cs),
(226,355,o),
(212,432,o),
(212,520,cs),
(212,562,ls),
(212,730,o),
(271,868,o),
(374,944,cs),
(425,982,o),
(485,1001,o),
(553,1001,cs),
(669,1001,o),
(757,960,o),
(824,889,c),
(840,687,l),
(940,687,l),
(938,932,l),
(850,1032,o),
(718,1102,o),
(550,1102,cs),
(365,1102,o),
(224,1005,o),
(149,842,cs),
(111,761,o),
(92,667,o),
(92,562,cs),
(92,520,ls),
(92,305,o),
(175,138,o),
(313,47,cs),
(382,2,o),
(461,-21,o),
(551,-21,cs)
);
}
);
width = 1075;
},
{
layerId = "C589F45C-3E8C-4D57-BBA0-76FE1AFDA3B7";
shapes = (
{
closed = 1;
nodes = (
(743,-21,o),
(866,51,o),
(933,159,cs),
(966,213,o),
(985,271,o),
(988,333,c),
(986,339,l),
(809,339,l),
(789,211,o),
(695,133,o),
(562,133,cs),
(386,133,o),
(275,280,o),
(275,520,cs),
(275,562,ls),
(275,705,o),
(327,826,o),
(416,895,cs),
(460,930,o),
(511,947,o),
(570,947,cs),
(662,947,o),
(730,917,o),
(775,870,c),
(809,681,l),
(963,681,l),
(958,941,l),
(869,1041,o),
(738,1102,o),
(563,1102,cs),
(362,1102,o),
(213,1001,o),
(136,838,cs),
(97,757,o),
(78,665,o),
(78,562,cs),
(78,520,ls),
(78,307,o),
(162,139,o),
(307,48,cs),
(380,2,o),
(465,-21,o),
(563,-21,cs)
);
}
);
userData = {
assembly = "NPUSHB[ ]	/* 62 values pushed */
12 1 2 3 1 76 0 2 3 5 3 2 5 128 0 5 4 3 5 4 126 0 3 3 1 97 0 1 1 40 77 0 4 4 0 97 6 1 0 0 38 0 78 1 0 31 30 28 26 19 17 14 13 10 8 0 35 1 35 7 8 22 
CALL[ ]	/* CallFunction */";
};
width = 1067;
},
{
layerId = "B9892E43-DBAA-41C3-9AC8-C95A43C93A60";
shapes = (
{
closed = 1;
nodes = (
(760,-21,o),
(879,41,o),
(947,153,cs),
(980,209,o),
(1003,275,o),
(1014,352,c),
(1011,358,l),
(762,358,l),
(738,259,o),
(677,203,o),
(574,203,cs),
(494,203,o),
(427,247,o),
(388,343,cs),
(369,390,o),
(359,451,o),
(359,525,cs),
(359,555,ls),
(359,765,o),
(438,888,o),
(596,888,cs),
(647,888,o),
(700,866,o),
(732,834,c),
(771,641,l),
(991,641,l),
(993,951,l),
(905,1031,o),
(765,1102,o),
(570,1102,cs),
(366,1102,o),
(212,1002,o),
(129,838,cs),
(88,756,o),
(67,662,o),
(67,555,cs),
(67,525,ls),
(67,313,o),
(151,142,o),
(303,49,cs),
(378,2,o),
(468,-21,o),
(572,-21,cs)
);
}
);
userData = {
assembly = "NPUSHB[ ]	/* 62 values pushed */
12 1 3 1 1 76 0 2 3 5 3 2 5 128 0 5 4 3 5 4 126 0 3 3 1 97 0 1 1 40 77 0 4 4 0 97 6 1 0 0 38 0 78 1 0 31 30 28 26 19 17 14 13 10 8 0 35 1 35 7 8 22 
CALL[ ]	/* CallFunction */";
};
width = 1082;
},
{
layerId = "14DC179B-5B87-47A1-B3E1-5CE1808186AA";
shapes = (
{
closed = 1;
nodes = (
(772,-21,o),
(887,36,o),
(955,150,cs),
(989,207,o),
(1014,278,o),
(1030,364,c),
(1026,370,l),
(732,370,l),
(707,289,o),
(665,246,o),
(581,246,cs),
(526,246,o),
(471,278,o),
(437,360,cs),
(420,401,o),
(411,457,o),
(411,528,cs),
(411,551,ls),
(411,688,o),
(434,775,o),
(493,819,cs),
(522,840,o),
(562,851,o),
(612,851,cs),
(637,851,o),
(682,835,o),
(705,812,c),
(747,616,l),
(1008,616,l),
(1014,957,l),
(929,1025,o),
(781,1102,o),
(574,1102,cs),
(369,1102,o),
(211,1003,o),
(125,838,cs),
(82,755,o),
(60,660,o),
(60,551,cs),
(60,528,ls),
(60,316,o),
(145,145,o),
(300,50,cs),
(377,3,o),
(470,-21,o),
(577,-21,cs)
);
}
);
width = 1092;
}
);
note = c;
unicode = 99;
},
{
glyphname = d;
lastChange = "2022-11-15 15:09:44 +0000";
layers = (
{
layerId = m01;
shapes = (
{
closed = 1;
nodes = (
(681,-21,o),
(808,54,o),
(879,173,c),
(881,0,l),
(1096,0,l),
(1096,54,l),
(933,54,l),
(933,1560,l),
(716,1560,l),
(716,1506,l),
(879,1506,l),
(879,883,l),
(806,1019,o),
(683,1102,o),
(512,1102,cs),
(341,1102,o),
(217,1007,o),
(153,839,cs),
(120,755,o),
(104,656,o),
(104,542,cs),
(104,521,ls),
(104,298,o),
(171,133,o),
(292,45,cs),
(353,1,o),
(425,-21,o),
(510,-21,cs)
);
},
{
closed = 1;
nodes = (
(160,542,ls),
(160,847,o),
(284,1048,o),
(511,1048,cs),
(718,1048,o),
(827,930,o),
(879,775,c),
(879,268,l),
(823,125,o),
(697,33,o),
(509,33,cs),
(280,33,o),
(160,222,o),
(160,521,cs)
);
}
);
width = 1205;
},
{
layerId = "5711A9A5-FB70-4E23-B0BA-A0F8E72F65B6";
shapes = (
{
closed = 1;
nodes = (
(658,-21,o),
(774,44,o),
(845,153,c),
(854,0,l),
(1124,0,l),
(1124,87,l),
(961,100,l),
(961,1560,l),
(678,1560,l),
(678,1472,l),
(841,1459,l),
(841,920,l),
(769,1035,o),
(658,1102,o),
(507,1102,cs),
(251,1102,o),
(92,886,o),
(92,532,cs),
(92,511,ls),
(92,182,o),
(250,-21,o),
(505,-21,cs)
);
},
{
closed = 1;
nodes = (
(213,532,ls),
(213,813,o),
(321,999,o),
(529,999,cs),
(693,999,o),
(789,909,o),
(841,784,c),
(841,279,l),
(786,158,o),
(683,82,o),
(527,82,cs),
(318,82,o),
(213,250,o),
(213,511,cs)
);
}
);
width = 1211;
},
{
layerId = "C589F45C-3E8C-4D57-BBA0-76FE1AFDA3B7";
shapes = (
{
closed = 1;
nodes = (
(634,-21,o),
(735,30,o),
(806,129,c),
(822,0,l),
(1156,0,l),
(1156,126,l),
(993,154,l),
(993,1560,l),
(633,1560,l),
(633,1433,l),
(796,1405,l),
(796,964,l),
(727,1053,o),
(629,1102,o),
(501,1102,cs),
(237,1102,o),
(78,875,o),
(78,521,cs),
(78,500,ls),
(78,181,o),
(240,-21,o),
(499,-21,cs)
);
},
{
closed = 1;
nodes = (
(275,521,ls),
(275,773,o),
(365,942,o),
(551,942,cs),
(664,942,o),
(745,885,o),
(796,794,c),
(796,292,l),
(744,195,o),
(666,139,o),
(549,139,cs),
(362,139,o),
(275,283,o),
(275,500,cs)
);
}
);
userData = {
assembly = "MPPEM[ ]	/* MeasurePixelPerEm */
PUSHB[ ]	/* 1 value pushed */
23 
LT[ ]	/* LessThan */
IF[ ]	/* If */
NPUSHB[ ]	/* 22 values pushed */
14 13 2 1 2 12 1 5 1 29 28 18 3 4 5 22 19 2 0 4 4 76 
ELSE[ ]	/* Else */
NPUSHB[ ]	/* 22 values pushed */
14 13 2 1 2 12 1 5 1 29 28 18 3 4 5 22 19 2 3 4 4 76 
EIF[ ]	/* EndIf */
MPPEM[ ]	/* MeasurePixelPerEm */
PUSHB[ ]	/* 1 value pushed */
23 
LT[ ]	/* LessThan */
IF[ ]	/* If */
NPUSHB[ ]	/* 29 values pushed */
0 2 2 33 77 0 5 5 1 97 0 1 1 40 77 7 1 4 4 0 97 3 6 2 0 0 38 0 78 
ELSE[ ]	/* Else */
NPUSHB[ ]	/* 33 values pushed */
0 2 2 33 77 0 5 5 1 97 0 1 1 40 77 0 3 3 32 77 7 1 4 4 0 97 6 1 0 0 38 0 78 
EIF[ ]	/* EndIf */
NPUSHB[ ]	/* 23 values pushed */
26 25 1 0 33 31 25 39 26 39 21 20 17 15 10 8 0 24 1 24 8 8 22 
CALL[ ]	/* CallFunction */";
};
width = 1218;
},
{
layerId = "B9892E43-DBAA-41C3-9AC8-C95A43C93A60";
shapes = (
{
closed = 1;
nodes = (
(607,-21,o),
(699,32,o),
(767,132,c),
(789,0,l),
(1182,0,l),
(1182,175,l),
(1042,205,l),
(1042,1560,l),
(594,1560,l),
(594,1384,l),
(750,1354,l),
(750,966,l),
(685,1053,o),
(597,1102,o),
(478,1102,cs),
(307,1102,o),
(183,1002,o),
(117,831,cs),
(84,746,o),
(67,646,o),
(67,532,cs),
(67,511,ls),
(67,184,o),
(226,-21,o),
(479,-21,cs)
);
},
{
closed = 1;
nodes = (
(359,532,ls),
(359,668,o),
(387,774,o),
(449,832,cs),
(480,861,o),
(519,875,o),
(568,875,cs),
(648,875,o),
(710,835,o),
(750,766,c),
(750,307,l),
(709,242,o),
(647,206,o),
(566,206,cs),
(418,206,o),
(359,322,o),
(359,511,cs)
);
}
);
width = 1212;
},
{
layerId = "14DC179B-5B87-47A1-B3E1-5CE1808186AA";
shapes = (
{
closed = 1;
nodes = (
(590,-21,o),
(677,33,o),
(742,134,c),
(768,0,l),
(1198,0,l),
(1198,205,l),
(1072,237,l),
(1072,1560,l),
(569,1560,l),
(569,1354,l),
(721,1322,l),
(721,967,l),
(658,1052,o),
(578,1102,o),
(463,1102,cs),
(298,1102,o),
(174,1003,o),
(109,835,cs),
(76,750,o),
(60,652,o),
(60,539,cs),
(60,518,ls),
(60,187,o),
(216,-21,o),
(467,-21,cs)
);
},
{
closed = 1;
nodes = (
(411,539,ls),
(411,656,o),
(432,747,o),
(481,796,cs),
(506,821,o),
(538,833,o),
(578,833,cs),
(638,833,o),
(688,804,o),
(721,749,c),
(721,316,l),
(688,271,o),
(635,248,o),
(576,248,cs),
(452,248,o),
(411,346,o),
(411,518,cs)
);
}
);
width = 1208;
}
);
note = d;
unicode = 100;
},
{
glyphname = e;
lastChange = "2022-11-15 15:09:44 +0000";
layers = (
{
layerId = m01;
shapes = (
{
closed = 1;
nodes = (
(719,-21,o),
(828,38,o),
(917,123,c),
(888,165,l),
(805,84,o),
(701,33,o),
(564,33,cs),
(409,33,o),
(285,120,o),
(217,261,cs),
(183,331,o),
(166,411,o),
(166,500,cs),
(166,577,l),
(957,577,l),
(957,660,ls),
(957,840,o),
(887,975,o),
(765,1048,cs),
(704,1084,o),
(632,1102,o),
(551,1102,cs),
(383,1102,o),
(245,1003,o),
(169,841,cs),
(131,760,o),
(112,667,o),
(112,564,cs),
(112,500,ls),
(112,296,o),
(196,134,o),
(332,46,cs),
(400,1,o),
(477,-21,o),
(564,-21,cs)
);
},
{
closed = 1;
nodes = (
(186,793,o),
(258,922,o),
(367,994,cs),
(422,1030,o),
(483,1048,o),
(551,1048,cs),
(694,1048,o),
(802,977,o),
(860,861,cs),
(889,803,o),
(903,737,o),
(903,664,cs),
(903,631,l),
(177,631,l),
(174,637,l)
);
}
);
width = 1084;
},
{
layerId = "5711A9A5-FB70-4E23-B0BA-A0F8E72F65B6";
shapes = (
{
closed = 1;
nodes = (
(732,-21,o),
(848,38,o),
(932,118,c),
(881,200,l),
(802,125,o),
(701,79,o),
(565,79,cs),
(426,79,o),
(319,156,o),
(261,281,cs),
(232,344,o),
(217,415,o),
(216,495,cs),
(218,539,l),
(968,539,l),
(968,641,ls),
(968,828,o),
(899,969,o),
(773,1045,cs),
(710,1083,o),
(634,1102,o),
(545,1102,cs),
(377,1102,o),
(234,1003,o),
(154,841,cs),
(114,760,o),
(94,667,o),
(94,564,cs),
(94,509,ls),
(94,301,o),
(179,137,o),
(320,47,cs),
(391,2,o),
(472,-21,o),
(565,-21,cs)
);
},
{
closed = 1;
nodes = (
(237,781,o),
(298,893,o),
(390,955,cs),
(436,986,o),
(488,1001,o),
(545,1001,cs),
(672,1001,o),
(763,940,o),
(812,840,cs),
(836,789,o),
(848,732,o),
(848,669,cs),
(848,639,l),
(226,639,l),
(224,645,l)
);
}
);
width = 1072;
},
{
layerId = "C589F45C-3E8C-4D57-BBA0-76FE1AFDA3B7";
shapes = (
{
closed = 1;
nodes = (
(746,-21,o),
(873,37,o),
(950,112,c),
(873,240,l),
(800,173,o),
(700,133,o),
(567,133,cs),
(389,133,o),
(279,275,o),
(275,490,c),
(278,495,l),
(980,495,l),
(980,618,ls),
(980,919,o),
(824,1102,o),
(537,1102,cs),
(370,1102,o),
(222,1002,o),
(138,840,cs),
(95,759,o),
(74,667,o),
(74,564,cs),
(74,520,ls),
(74,307,o),
(158,139,o),
(306,48,cs),
(380,2,o),
(467,-21,o),
(567,-21,cs)
);
},
{
closed = 1;
nodes = (
(305,828,o),
(409,947,o),
(537,947,cs),
(696,947,o),
(783,838,o),
(783,675,cs),
(783,649,l),
(284,649,l),
(282,654,l)
);
}
);
userData = {
assembly = "NPUSHB[ ]	/* 59 values pushed */
23 1 3 2 24 1 0 3 2 76 0 4 0 2 3 4 2 103 0 5 5 1 97 0 1 1 40 77 0 3 3 0 97 6 1 0 0 38 0 78 1 0 35 33 29 27 21 19 15 14 10 8 0 26 1 26 7 8 22 
CALL[ ]	/* CallFunction */";
};
width = 1059;
},
{
layerId = "B9892E43-DBAA-41C3-9AC8-C95A43C93A60";
shapes = (
{
closed = 1;
nodes = (
(756,-21,o),
(893,32,o),
(982,104,c),
(903,284,l),
(815,231,o),
(725,203,o),
(618,203,cs),
(515,203,o),
(443,248,o),
(404,322,cs),
(384,359,o),
(372,401,o),
(368,448,c),
(370,454,l),
(1006,454,l),
(1006,613,ls),
(1006,820,o),
(935,967,o),
(802,1044,cs),
(735,1083,o),
(653,1102,o),
(555,1102,cs),
(551,1102,ls),
(453,1102,o),
(368,1079,o),
(297,1032,cs),
(150,936,o),
(67,765,o),
(67,550,cs),
(67,510,ls),
(67,305,o),
(155,139,o),
(310,48,cs),
(387,2,o),
(478,-21,o),
(581,-21,cs)
);
},
{
closed = 1;
nodes = (
(380,741,o),
(409,815,o),
(462,856,cs),
(489,876,o),
(521,886,o),
(560,886,cs),
(641,886,o),
(692,850,o),
(716,787,cs),
(727,755,o),
(733,717,o),
(733,673,cs),
(733,647,l),
(372,647,l),
(369,652,l)
);
}
);
width = 1078;
},
{
layerId = "14DC179B-5B87-47A1-B3E1-5CE1808186AA";
shapes = (
{
closed = 1;
nodes = (
(762,-21,o),
(905,30,o),
(1002,99,c),
(922,311,l),
(825,266,o),
(741,246,o),
(650,246,cs),
(511,246,o),
(442,322,o),
(426,422,c),
(427,429,l),
(1022,429,l),
(1022,610,ls),
(1022,823,o),
(950,970,o),
(815,1046,cs),
(747,1083,o),
(664,1102,o),
(566,1102,cs),
(349,1103,o),
(198,1002,o),
(121,833,cs),
(82,748,o),
(63,651,o),
(63,541,cs),
(63,504,ls),
(63,304,o),
(155,139,o),
(313,48,cs),
(392,2,o),
(484,-21,o),
(590,-21,cs)
);
},
{
closed = 1;
nodes = (
(431,727,o),
(448,789,o),
(490,823,cs),
(511,840,o),
(539,848,o),
(574,848,cs),
(639,848,o),
(675,821,o),
(691,769,cs),
(698,743,o),
(702,711,o),
(702,672,cs),
(702,646,l),
(427,646,l),
(423,651,l)
);
}
);
width = 1090;
}
);
note = e;
unicode = 101;
},
{
glyphname = f;
lastChange = "2022-11-15 15:09:44 +0000";
layers = (
{
layerId = m01;
shapes = (
{
closed = 1;
nodes = (
(494,54,l),
(331,54,l),
(331,1027,l),
(617,1027,l),
(617,1082,l),
(331,1082,l),
(331,1260,ls),
(331,1427,o),
(417,1527,o),
(561,1527,cs),
(612,1527,o),
(637,1523,o),
(680,1512,c),
(688,1564,l),
(648,1576,o),
(604,1581,o),
(560,1581,cs),
(381,1581,o),
(277,1464,o),
(277,1260,cs),
(277,1082,l),
(89,1082,l),
(89,1027,l),
(277,1027,l),
(277,54,l),
(114,54,l),
(114,0,l),
(494,0,l)
);
}
);
width = 722;
},
{
layerId = "5711A9A5-FB70-4E23-B0BA-A0F8E72F65B6";
shapes = (
{
closed = 1;
nodes = (
(550,87,l),
(377,100,l),
(377,985,l),
(640,985,l),
(640,1082,l),
(377,1082,l),
(377,1241,ls),
(377,1392,o),
(448,1478,o),
(579,1478,cs),
(623,1478,o),
(659,1473,o),
(692,1465,c),
(708,1562,l),
(660,1575,o),
(612,1581,o),
(567,1581,cs),
(371,1581,o),
(257,1457,o),
(257,1241,cs),
(257,1082,l),
(77,1082,l),
(77,985,l),
(257,985,l),
(257,100,l),
(94,87,l),
(94,0,l),
(550,0,l)
);
}
);
width = 723;
},
{
layerId = "C589F45C-3E8C-4D57-BBA0-76FE1AFDA3B7";
shapes = (
{
closed = 1;
nodes = (
(666,936,l),
(666,1082,l),
(430,1082,l),
(430,1219,ls),
(430,1350,o),
(485,1420,o),
(601,1420,cs),
(637,1420,o),
(683,1415,o),
(707,1410,c),
(731,1560,l),
(675,1573,o),
(621,1581,o),
(576,1581,cs),
(360,1581,o),
(233,1450,o),
(233,1219,cs),
(233,1082,l),
(64,1082,l),
(64,936,l),
(233,936,l),
(233,154,l),
(70,126,l),
(70,0,l),
(616,0,l),
(616,126,l),
(430,154,l),
(430,936,l)
);
}
);
userData = {
assembly = "NPUSHB[ ]	/* 55 values pushed */
16 1 4 3 17 1 2 4 5 4 1 0 4 0 1 3 76 0 4 4 3 97 0 3 3 39 77 6 1 1 1 2 95 5 1 2 2 34 77 0 0 0 32 0 78 17 19 37 35 17 19 18 7 8 29 
CALL[ ]	/* CallFunction */";
};
width = 725;
},
{
layerId = "B9892E43-DBAA-41C3-9AC8-C95A43C93A60";
shapes = (
{
closed = 1;
nodes = (
(512,205,l),
(512,877,l),
(757,877,l),
(757,1082,l),
(512,1082,l),
(512,1202,ls),
(512,1299,o),
(561,1353,o),
(662,1353,cs),
(705,1353,o),
(748,1348,o),
(780,1339,c),
(805,1556,l),
(756,1569,o),
(680,1581,o),
(617,1581,cs),
(366,1581,o),
(220,1445,o),
(220,1202,cs),
(220,1082,l),
(59,1082,l),
(59,877,l),
(220,877,l),
(220,205,l),
(79,175,l),
(79,0,l),
(703,0,l),
(703,175,l)
);
}
);
userData = {
assembly = "NPUSHB[ ]	/* 55 values pushed */
14 1 4 3 15 1 2 4 27 26 3 2 4 0 1 3 76 0 4 4 3 97 0 3 3 39 77 6 1 1 1 2 95 5 1 2 2 34 77 0 0 0 32 0 78 17 19 37 35 17 19 16 7 8 29 
CALL[ ]	/* CallFunction */";
};
width = 799;
},
{
layerId = "14DC179B-5B87-47A1-B3E1-5CE1808186AA";
shapes = (
{
closed = 1;
nodes = (
(757,205,l),
(563,237,l),
(563,840,l),
(814,840,l),
(814,1082,l),
(563,1082,l),
(563,1191,ls),
(563,1268,o),
(608,1311,o),
(700,1311,cs),
(747,1311,o),
(788,1306,o),
(825,1295,c),
(851,1554,l),
(806,1567,o),
(715,1581,o),
(643,1581,cs),
(371,1581,o),
(212,1442,o),
(212,1191,cs),
(212,1082,l),
(56,1082,l),
(56,840,l),
(212,840,l),
(212,237,l),
(85,205,l),
(85,0,l),
(757,0,l)
);
}
);
width = 845;
}
);
note = f;
unicode = 102;
},
{
glyphname = g;
lastChange = "2022-11-15 15:09:44 +0000";
layers = (
{
layerId = m01;
shapes = (
{
closed = 1;
nodes = (
(693,-437,o),
(818,-361,o),
(884,-225,cs),
(917,-158,o),
(933,-78,o),
(933,14,cs),
(933,1028,l),
(1076,1028,l),
(1076,1082,l),
(887,1082,l),
(879,882,l),
(807,1018,o),
(683,1102,o),
(512,1102,cs),
(341,1102,o),
(217,1007,o),
(153,840,cs),
(120,756,o),
(104,657,o),
(104,542,cs),
(104,521,ls),
(104,300,o),
(171,133,o),
(292,45,cs),
(353,1,o),
(425,-21,o),
(510,-21,cs),
(679,-21,o),
(806,54,o),
(878,171,c),
(878,14,ls),
(878,-233,o),
(753,-384,o),
(522,-384,cs),
(406,-384,o),
(323,-364,o),
(226,-321,c),
(210,-375,l),
(295,-414,o),
(419,-437,o),
(524,-437,cs)
);
},
{
closed = 1;
nodes = (
(159,542,ls),
(159,846,o),
(285,1048,o),
(511,1048,cs),
(722,1048,o),
(827,926,o),
(878,767,c),
(878,276,l),
(825,128,o),
(701,33,o),
(509,33,cs),
(280,33,o),
(159,222,o),
(159,521,cs)
);
}
);
width = 1155;
},
{
layerId = "5711A9A5-FB70-4E23-B0BA-A0F8E72F65B6";
shapes = (
{
closed = 1;
nodes = (
(801,-437,o),
(963,-270,o),
(963,14,cs),
(963,981,l),
(1102,995,l),
(1102,1082,l),
(862,1082,l),
(849,912,l),
(778,1032,o),
(665,1102,o),
(510,1102,cs),
(335,1102,o),
(209,1004,o),
(142,833,cs),
(109,748,o),
(92,647,o),
(92,532,cs),
(92,511,ls),
(92,296,o),
(161,133,o),
(285,45,cs),
(347,1,o),
(421,-21,o),
(508,-21,cs),
(657,-21,o),
(771,41,o),
(843,146,c),
(843,14,ls),
(843,-203,o),
(739,-332,o),
(534,-332,cs),
(427,-332,o),
(332,-308,o),
(247,-267,c),
(215,-367,l),
(303,-410,o),
(431,-437,o),
(536,-437,cs)
);
},
{
closed = 1;
nodes = (
(213,532,ls),
(213,812,o),
(324,999,o),
(532,999,cs),
(699,999,o),
(792,906,o),
(843,779,c),
(843,284,l),
(790,159,o),
(687,82,o),
(530,82,cs),
(319,82,o),
(213,250,o),
(213,511,cs)
);
}
);
width = 1156;
},
{
layerId = "C589F45C-3E8C-4D57-BBA0-76FE1AFDA3B7";
shapes = (
{
closed = 1;
nodes = (
(835,-437,o),
(999,-268,o),
(999,14,cs),
(999,927,l),
(1133,956,l),
(1133,1082,l),
(833,1082,l),
(815,946,l),
(746,1047,o),
(643,1102,o),
(507,1102,cs),
(328,1102,o),
(198,1001,o),
(130,826,cs),
(95,739,o),
(78,637,o),
(78,521,cs),
(78,500,ls),
(78,293,o),
(149,132,o),
(277,45,cs),
(341,1,o),
(417,-21,o),
(505,-21,cs),
(633,-21,o),
(731,26,o),
(802,117,c),
(802,14,ls),
(802,-169,o),
(723,-271,o),
(547,-271,cs),
(452,-271,o),
(344,-243,o),
(271,-204,c),
(220,-357,l),
(312,-406,o),
(445,-437,o),
(549,-437,cs)
);
},
{
closed = 1;
nodes = (
(275,521,ls),
(275,787,o),
(375,942,o),
(556,942,cs),
(671,942,o),
(751,884,o),
(802,792,c),
(802,294,l),
(750,195,o),
(673,139,o),
(554,139,cs),
(366,139,o),
(275,283,o),
(275,500,cs)
);
}
);
userData = {
assembly = "MPPEM[ ]	/* MeasurePixelPerEm */
PUSHB[ ]	/* 1 value pushed */
25 
LT[ ]	/* LessThan */
IF[ ]	/* If */
NPUSHB[ ]	/* 25 values pushed */
49 26 2 6 3 50 37 36 3 5 6 11 1 2 5 4 1 1 2 3 1 0 1 5 76 
ELSE[ ]	/* Else */
NPUSHB[ ]	/* 25 values pushed */
49 26 2 6 4 50 37 36 3 5 6 11 1 2 5 4 1 1 2 3 1 0 1 5 76 
EIF[ ]	/* EndIf */
MPPEM[ ]	/* MeasurePixelPerEm */
PUSHB[ ]	/* 1 value pushed */
25 
LT[ ]	/* LessThan */
IF[ ]	/* If */
NPUSHB[ ]	/* 36 values pushed */
0 6 6 3 95 10 7 4 3 3 3 34 77 9 1 5 5 2 97 0 2 2 38 77 0 1 1 0 97 8 1 0 0 42 0 78 
ELSE[ ]	/* Else */
NPUSHB[ ]	/* 40 values pushed */
10 7 2 4 4 34 77 0 6 6 3 97 0 3 3 40 77 9 1 5 5 2 97 0 2 2 38 77 0 1 1 0 97 8 1 0 0 42 0 78 
EIF[ ]	/* EndIf */
NPUSHB[ ]	/* 31 values pushed */
48 48 34 33 1 0 48 51 48 51 41 39 33 47 34 47 28 27 24 22 15 13 8 6 0 32 1 32 11 8 22 
CALL[ ]	/* CallFunction */";
};
width = 1157;
},
{
layerId = "B9892E43-DBAA-41C3-9AC8-C95A43C93A60";
shapes = (
{
closed = 1;
nodes = (
(853,-437,o),
(1044,-255,o),
(1044,32,cs),
(1044,879,l),
(1171,906,l),
(1171,1082,l),
(790,1082,l),
(769,946,l),
(704,1046,o),
(612,1102,o),
(483,1102,cs),
(310,1102,o),
(184,1002,o),
(117,831,cs),
(84,746,o),
(67,646,o),
(67,532,cs),
(67,511,ls),
(67,185,o),
(229,-21,o),
(489,-21,cs),
(601,-21,o),
(687,23,o),
(751,104,c),
(751,33,ls),
(751,-122,o),
(681,-213,o),
(525,-213,cs),
(434,-213,o),
(323,-188,o),
(230,-148,c),
(176,-356,l),
(280,-408,o),
(431,-437,o),
(540,-437,cs)
);
},
{
closed = 1;
nodes = (
(359,532,ls),
(359,739,o),
(424,875,o),
(572,875,cs),
(652,875,o),
(714,837,o),
(751,772,c),
(751,302,l),
(714,239,o),
(654,206,o),
(571,206,cs),
(419,206,o),
(359,322,o),
(359,511,cs)
);
}
);
userData = {
assembly = "MPPEM[ ]	/* MeasurePixelPerEm */
PUSHB[ ]	/* 1 value pushed */
25 
LT[ ]	/* LessThan */
IF[ ]	/* If */
NPUSHB[ ]	/* 25 values pushed */
49 26 2 6 3 50 37 36 3 5 6 11 1 2 5 4 1 1 2 3 1 0 1 5 76 
ELSE[ ]	/* Else */
NPUSHB[ ]	/* 25 values pushed */
49 26 2 6 4 50 37 36 3 5 6 11 1 2 5 4 1 1 2 3 1 0 1 5 76 
EIF[ ]	/* EndIf */
MPPEM[ ]	/* MeasurePixelPerEm */
PUSHB[ ]	/* 1 value pushed */
25 
LT[ ]	/* LessThan */
IF[ ]	/* If */
NPUSHB[ ]	/* 36 values pushed */
0 6 6 3 95 10 7 4 3 3 3 34 77 9 1 5 5 2 97 0 2 2 38 77 0 1 1 0 97 8 1 0 0 42 0 78 
ELSE[ ]	/* Else */
NPUSHB[ ]	/* 40 values pushed */
10 7 2 4 4 34 77 0 6 6 3 97 0 3 3 40 77 9 1 5 5 2 97 0 2 2 38 77 0 1 1 0 97 8 1 0 0 42 0 78 
EIF[ ]	/* EndIf */
NPUSHB[ ]	/* 31 values pushed */
48 48 34 33 1 0 48 51 48 51 41 39 33 47 34 47 28 27 24 22 15 13 8 6 0 32 1 32 11 8 22 
CALL[ ]	/* CallFunction */";
};
width = 1198;
},
{
layerId = "14DC179B-5B87-47A1-B3E1-5CE1808186AA";
shapes = (
{
closed = 1;
nodes = (
(755,-437,o),
(919,-353,o),
(1007,-209,cs),
(1050,-137,o),
(1072,-53,o),
(1072,43,cs),
(1072,849,l),
(1195,875,l),
(1195,1082,l),
(763,1082,l),
(741,946,l),
(678,1045,o),
(593,1102,o),
(468,1102,cs),
(299,1102,o),
(174,1003,o),
(109,835,cs),
(76,750,o),
(60,652,o),
(60,539,cs),
(60,518,ls),
(60,189,o),
(216,-21,o),
(479,-21,cs),
(582,-21,o),
(660,21,o),
(720,96,c),
(720,45,ls),
(720,-92,o),
(655,-177,o),
(511,-177,cs),
(423,-177,o),
(310,-154,o),
(205,-113,c),
(149,-355,l),
(260,-408,o),
(422,-437,o),
(535,-437,cs)
);
},
{
closed = 1;
nodes = (
(411,539,ls),
(411,658,o),
(432,748,o),
(482,797,cs),
(507,821,o),
(540,833,o),
(582,833,cs),
(641,833,o),
(691,808,o),
(720,760,c),
(720,307,l),
(691,267,o),
(641,248,o),
(582,248,cs),
(453,248,o),
(411,346,o),
(411,518,cs)
);
}
);
width = 1224;
}
);
note = g;
unicode = 103;
},
{
glyphname = h;
lastChange = "2022-11-15 15:09:44 +0000";
layers = (
{
layerId = m01;
shapes = (
{
closed = 1;
nodes = (
(442,54,l),
(279,54,l),
(279,676,l),
(311,893,o),
(431,1048,o),
(664,1048,cs),
(839,1048,o),
(952,944,o),
(952,660,cs),
(952,54,l),
(789,54,l),
(789,0,l),
(1170,0,l),
(1170,54,l),
(1007,54,l),
(1007,658,ls),
(1007,965,o),
(888,1102,o),
(663,1102,cs),
(476,1102,o),
(346,1011,o),
(279,854,c),
(279,1560,l),
(62,1560,l),
(62,1506,l),
(225,1506,l),
(225,54,l),
(62,54,l),
(62,0,l),
(442,0,l)
);
}
);
width = 1278;
},
{
layerId = "5711A9A5-FB70-4E23-B0BA-A0F8E72F65B6";
shapes = (
{
closed = 1;
nodes = (
(502,87,l),
(339,100,l),
(339,733,l),
(383,890,o),
(489,999,o),
(665,999,cs),
(829,999,o),
(926,905,o),
(926,669,cs),
(926,100,l),
(763,87,l),
(763,0,l),
(1209,0,l),
(1209,87,l),
(1046,100,l),
(1046,667,ls),
(1046,966,o),
(920,1102,o),
(692,1102,cs),
(531,1102,o),
(410,1025,o),
(339,893,c),
(339,1560,l),
(56,1560,l),
(56,1472,l),
(219,1459,l),
(219,100,l),
(56,87,l),
(56,0,l),
(502,0,l)
);
}
);
width = 1295;
},
{
layerId = "C589F45C-3E8C-4D57-BBA0-76FE1AFDA3B7";
shapes = (
{
closed = 1;
nodes = (
(466,887,o),
(558,942,o),
(666,942,cs),
(818,942,o),
(895,859,o),
(895,680,cs),
(895,154,l),
(732,126,l),
(732,0,l),
(1255,0,l),
(1255,126,l),
(1092,154,l),
(1092,678,ls),
(1092,966,o),
(958,1102,o),
(726,1102,cs),
(594,1102,o),
(484,1042,o),
(409,938,c),
(409,1560,l),
(49,1560,l),
(49,1433,l),
(212,1405,l),
(212,154,l),
(49,126,l),
(49,0,l),
(572,0,l),
(572,126,l),
(409,154,l),
(409,799,l)
);
}
);
userData = {
assembly = "NPUSHB[ ]	/* 50 values pushed */
7 6 2 2 1 29 22 21 18 17 10 5 4 1 0 10 0 4 2 76 0 1 1 33 77 0 4 4 2 97 0 2 2 40 77 3 1 0 0 32 0 78 37 21 35 21 18 5 8 27 
CALL[ ]	/* CallFunction */";
};
width = 1315;
},
{
layerId = "B9892E43-DBAA-41C3-9AC8-C95A43C93A60";
shapes = (
{
closed = 1;
nodes = (
(479,205,l),
(479,779,l),
(520,842,o),
(587,875,o),
(666,875,cs),
(779,875,o),
(839,816,o),
(839,660,cs),
(839,205,l),
(713,175,l),
(713,0,l),
(1271,0,l),
(1271,175,l),
(1131,205,l),
(1131,658,ls),
(1131,961,o),
(994,1102,o),
(777,1102,cs),
(649,1102,o),
(547,1044,o),
(479,944,c),
(479,1560,l),
(32,1560,l),
(32,1384,l),
(188,1354,l),
(188,205,l),
(47,175,l),
(47,0,l),
(605,0,l),
(605,175,l)
);
}
);
userData = {
assembly = "NPUSHB[ ]	/* 53 values pushed */
5 4 2 2 1 8 1 4 2 29 28 27 20 19 16 15 3 2 9 0 4 3 76 0 1 1 33 77 0 4 4 2 97 0 2 2 40 77 3 1 0 0 32 0 78 37 21 35 21 16 5 8 27 
CALL[ ]	/* CallFunction */";
};
width = 1302;
},
{
layerId = "14DC179B-5B87-47A1-B3E1-5CE1808186AA";
shapes = (
{
closed = 1;
nodes = (
(625,205,l),
(522,237,l),
(522,766,l),
(554,813,o),
(605,833,o),
(666,833,cs),
(755,833,o),
(804,789,o),
(804,648,cs),
(804,237,l),
(701,205,l),
(701,0,l),
(1281,0,l),
(1281,205,l),
(1155,237,l),
(1155,646,ls),
(1155,957,o),
(1017,1102,o),
(809,1102,cs),
(682,1102,o),
(586,1045,o),
(522,948,c),
(522,1560,l),
(21,1560,l),
(21,1354,l),
(173,1322,l),
(173,237,l),
(46,205,l),
(46,0,l),
(625,0,l)
);
}
);
width = 1294;
}
);
note = h;
unicode = 104;
},
{
glyphname = i;
lastChange = "2022-11-15 15:09:44 +0000";
layers = (
{
layerId = m01;
shapes = (
{
closed = 1;
nodes = (
(469,54,l),
(306,54,l),
(306,1082,l),
(89,1082,l),
(89,1028,l),
(252,1028,l),
(252,54,l),
(89,54,l),
(89,0,l),
(469,0,l)
);
},
{
closed = 1;
nodes = (
(306,1420,l),
(306,1560,l),
(234,1560,l),
(234,1420,l)
);
}
);
width = 609;
},
{
layerId = "5711A9A5-FB70-4E23-B0BA-A0F8E72F65B6";
shapes = (
{
closed = 1;
nodes = (
(525,87,l),
(362,100,l),
(362,1082,l),
(79,1082,l),
(79,994,l),
(242,981,l),
(242,100,l),
(79,87,l),
(79,0,l),
(525,0,l)
);
},
{
closed = 1;
nodes = (
(362,1387,l),
(362,1560,l),
(228,1560,l),
(228,1387,l)
);
}
);
width = 629;
},
{
layerId = "C589F45C-3E8C-4D57-BBA0-76FE1AFDA3B7";
shapes = (
{
closed = 1;
nodes = (
(220,1349,l),
(427,1349,l),
(427,1560,l),
(220,1560,l)
);
},
{
closed = 1;
nodes = (
(67,0,l),
(590,0,l),
(590,126,l),
(427,154,l),
(427,1082,l),
(67,1082,l),
(67,955,l),
(230,927,l),
(230,154,l),
(67,126,l)
);
}
);
userData = {
assembly = "NPUSHB[ ]	/* 47 values pushed */
13 12 11 8 7 4 6 3 2 1 76 0 0 0 1 95 4 1 1 1 33 77 0 2 2 34 77 0 3 3 32 3 78 0 0 10 9 6 5 0 3 0 3 17 5 8 23 
CALL[ ]	/* CallFunction */";
};
width = 652;
},
{
layerId = "B9892E43-DBAA-41C3-9AC8-C95A43C93A60";
shapes = (
{
closed = 1;
nodes = (
(185,1311,l),
(487,1311,l),
(487,1560,l),
(185,1560,l)
);
},
{
closed = 1;
nodes = (
(195,876,l),
(195,205,l),
(54,175,l),
(54,0,l),
(627,0,l),
(627,175,l),
(487,205,l),
(487,1082,l),
(39,1082,l),
(39,906,l)
);
}
);
userData = {
assembly = "NPUSHB[ ]	/* 47 values pushed */
13 10 9 8 7 4 6 2 3 1 76 0 0 0 1 95 4 1 1 1 33 77 0 3 3 34 77 0 2 2 32 2 78 0 0 12 11 6 5 0 3 0 3 17 5 8 23 
CALL[ ]	/* CallFunction */";
};
width = 661;
},
{
layerId = "14DC179B-5B87-47A1-B3E1-5CE1808186AA";
shapes = (
{
closed = 1;
nodes = (
(650,205,l),
(524,237,l),
(524,1082,l),
(22,1082,l),
(22,876,l),
(173,844,l),
(173,237,l),
(46,205,l),
(46,0,l),
(650,0,l)
);
},
{
closed = 1;
nodes = (
(524,1287,l),
(524,1560,l),
(163,1560,l),
(163,1287,l)
);
}
);
width = 667;
}
);
note = i;
unicode = 105;
},
{
glyphname = j;
lastChange = "2022-11-15 15:09:44 +0000";
layers = (
{
layerId = m01;
shapes = (
{
closed = 1;
nodes = (
(288,-437,o),
(393,-312,o),
(393,-89,cs),
(393,1082,l),
(176,1082,l),
(176,1028,l),
(339,1028,l),
(339,-89,ls),
(339,-277,o),
(255,-383,o),
(108,-383,cs),
(73,-383,o),
(33,-373,o),
(9,-365,c),
(-4,-417,l),
(36,-430,o),
(68,-437,o),
(108,-437,cs)
);
},
{
closed = 1;
nodes = (
(387,1420,l),
(387,1560,l),
(315,1560,l),
(315,1420,l)
);
}
);
width = 563;
},
{
layerId = "5711A9A5-FB70-4E23-B0BA-A0F8E72F65B6";
shapes = (
{
closed = 1;
nodes = (
(275,-437,o),
(387,-312,o),
(387,-89,cs),
(387,1082,l),
(104,1082,l),
(104,994,l),
(267,981,l),
(267,-89,ls),
(267,-245,o),
(199,-336,o),
(84,-336,cs),
(55,-336,o),
(6,-328,o),
(-15,-321,c),
(-28,-418,l),
(11,-430,o),
(43,-437,o),
(84,-437,cs)
);
},
{
closed = 1;
nodes = (
(384,1387,l),
(384,1560,l),
(250,1560,l),
(250,1387,l)
);
}
);
width = 545;
},
{
layerId = "C589F45C-3E8C-4D57-BBA0-76FE1AFDA3B7";
shapes = (
{
closed = 1;
nodes = (
(260,-437,o),
(381,-312,o),
(381,-89,cs),
(381,1082,l),
(21,1082,l),
(21,955,l),
(184,927,l),
(184,-89,ls),
(184,-209,o),
(135,-282,o),
(56,-282,cs),
(32,-282,o),
(-24,-276,o),
(-43,-269,c),
(-56,-419,l),
(-19,-431,o),
(13,-437,o),
(56,-437,cs)
);
},
{
closed = 1;
nodes = (
(174,1349,l),
(381,1349,l),
(381,1560,l),
(174,1560,l)
);
}
);
userData = {
assembly = "NPUSHB[ ]	/* 61 values pushed */
12 11 4 3 1 2 3 1 0 1 2 76 0 3 3 4 95 6 1 4 4 33 77 0 2 2 34 77 0 1 1 0 98 5 1 0 0 42 0 78 18 18 1 0 18 21 18 21 20 19 14 13 8 6 0 17 1 17 7 8 22 
CALL[ ]	/* CallFunction */";
};
width = 525;
},
{
layerId = "B9892E43-DBAA-41C3-9AC8-C95A43C93A60";
shapes = (
{
closed = 1;
nodes = (
(345,-437,o),
(486,-295,o),
(486,-40,cs),
(486,1082,l),
(39,1082,l),
(39,906,l),
(195,876,l),
(195,-40,ls),
(195,-149,o),
(150,-212,o),
(74,-212,cs),
(38,-212,o),
(5,-207,o),
(-24,-199,c),
(-39,-420,l),
(9,-432,o),
(50,-437,o),
(105,-437,cs)
);
},
{
closed = 1;
nodes = (
(483,1311,l),
(483,1560,l),
(181,1560,l),
(181,1311,l)
);
}
);
userData = {
assembly = "NPUSHB[ ]	/* 61 values pushed */
12 11 4 3 1 2 3 1 0 1 2 76 0 3 3 4 95 6 1 4 4 33 77 0 2 2 34 77 0 1 1 0 98 5 1 0 0 42 0 78 18 18 1 0 18 21 18 21 20 19 14 13 8 6 0 17 1 17 7 8 22 
CALL[ ]	/* CallFunction */";
};
width = 600;
},
{
layerId = "14DC179B-5B87-47A1-B3E1-5CE1808186AA";
shapes = (
{
closed = 1;
nodes = (
(399,-437,o),
(551,-283,o),
(551,-10,cs),
(551,1082,l),
(50,1082,l),
(50,876,l),
(202,844,l),
(202,-10,ls),
(202,-111,o),
(160,-169,o),
(85,-169,cs),
(42,-169,o),
(23,-164,o),
(-12,-156,c),
(-28,-421,l),
(27,-433,o),
(73,-437,o),
(136,-437,cs)
);
},
{
closed = 1;
nodes = (
(547,1287,l),
(547,1560,l),
(186,1560,l),
(186,1287,l)
);
}
);
width = 647;
}
);
note = j;
unicode = 106;
},
{
glyphname = k;
lastChange = "2022-11-15 15:09:44 +0000";
layers = (
{
layerId = m01;
shapes = (
{
closed = 1;
nodes = (
(442,54,l),
(279,54,l),
(279,357,l),
(504,594,l),
(889,59,l),
(887,54,l),
(761,54,l),
(761,0,l),
(1081,0,l),
(1081,54,l),
(964,54,l),
(540,632,l),
(916,1028,l),
(1038,1028,l),
(1038,1082,l),
(717,1082,l),
(717,1028,l),
(836,1028,l),
(838,1022,l),
(279,430,l),
(279,1560,l),
(62,1560,l),
(62,1506,l),
(225,1506,l),
(225,54,l),
(62,54,l),
(62,0,l),
(442,0,l)
);
}
);
width = 1154;
},
{
layerId = "5711A9A5-FB70-4E23-B0BA-A0F8E72F65B6";
shapes = (
{
closed = 1;
nodes = (
(509,87,l),
(346,100,l),
(346,343,l),
(545,548,l),
(878,98,l),
(879,93,l),
(760,87,l),
(760,0,l),
(1158,0,l),
(1158,87,l),
(1023,98,l),
(622,628,l),
(965,982,l),
(1095,994,l),
(1095,1082,l),
(707,1082,l),
(707,994,l),
(825,988,l),
(824,982,l),
(346,488,l),
(346,1560,l),
(63,1560,l),
(63,1472,l),
(226,1459,l),
(226,100,l),
(63,87,l),
(63,0,l),
(509,0,l)
);
}
);
width = 1215;
},
{
layerId = "C589F45C-3E8C-4D57-BBA0-76FE1AFDA3B7";
shapes = (
{
closed = 1;
nodes = (
(812,942,l),
(807,936,l),
(424,555,l),
(424,1560,l),
(64,1560,l),
(64,1433,l),
(227,1405,l),
(227,154,l),
(64,126,l),
(64,0,l),
(587,0,l),
(587,126,l),
(424,154,l),
(424,327,l),
(592,496,l),
(866,143,l),
(869,139,l),
(759,126,l),
(759,0,l),
(1248,0,l),
(1248,126,l),
(1092,150,l),
(719,623,l),
(1023,929,l),
(1162,955,l),
(1162,1082,l),
(696,1082,l),
(696,955,l)
);
}
);
userData = {
assembly = "NPUSHB[ ]	/* 48 values pushed */
21 20 2 0 3 27 25 24 19 18 15 14 13 12 10 9 6 4 2 14 1 0 2 76 0 3 3 33 77 0 0 0 34 77 2 1 1 1 32 1 78 21 24 22 16 4 8 26 
CALL[ ]	/* CallFunction */";
};
width = 1287;
},
{
layerId = "B9892E43-DBAA-41C3-9AC8-C95A43C93A60";
shapes = (
{
closed = 1;
nodes = (
(1232,906,l),
(1232,1082,l),
(669,1082,l),
(669,908,l),
(780,892,l),
(778,889,l),
(479,615,l),
(479,1560,l),
(32,1560,l),
(32,1384,l),
(188,1354,l),
(188,205,l),
(47,175,l),
(47,0,l),
(605,0,l),
(605,175,l),
(479,205,l),
(479,324,l),
(623,452,l),
(816,189,l),
(818,185,l),
(736,166,l),
(736,0,l),
(1277,0,l),
(1277,175,l),
(1143,206,l),
(820,629,l),
(1092,871,l)
);
}
);
userData = {
assembly = "NPUSHB[ ]	/* 47 values pushed */
17 16 2 3 2 26 23 21 20 15 14 11 10 9 8 6 5 2 13 0 3 2 76 0 2 2 33 77 0 3 3 34 77 1 1 0 0 32 0 78 21 21 24 19 4 8 26 
CALL[ ]	/* CallFunction */";
};
width = 1316;
},
{
layerId = "14DC179B-5B87-47A1-B3E1-5CE1808186AA";
shapes = (
{
closed = 1;
nodes = (
(616,205,l),
(513,237,l),
(513,319,l),
(641,425,l),
(785,218,l),
(787,214,l),
(721,191,l),
(721,0,l),
(1295,0,l),
(1295,205,l),
(1174,241,l),
(886,629,l),
(1135,835,l),
(1275,876,l),
(1275,1082,l),
(652,1082,l),
(652,879,l),
(760,861,l),
(760,860,l),
(513,646,l),
(513,1560,l),
(12,1560,l),
(12,1354,l),
(164,1322,l),
(164,237,l),
(36,205,l),
(36,0,l),
(616,0,l)
);
}
);
width = 1334;
}
);
note = k;
unicode = 107;
},
{
glyphname = l;
lastChange = "2022-11-15 15:09:44 +0000";
layers = (
{
layerId = m01;
shapes = (
{
closed = 1;
nodes = (
(462,54,l),
(299,54,l),
(299,1560,l),
(82,1560,l),
(82,1506,l),
(245,1506,l),
(245,54,l),
(82,54,l),
(82,0,l),
(462,0,l)
);
}
);
width = 581;
},
{
layerId = "5711A9A5-FB70-4E23-B0BA-A0F8E72F65B6";
shapes = (
{
closed = 1;
nodes = (
(520,87,l),
(357,100,l),
(357,1560,l),
(74,1560,l),
(74,1472,l),
(237,1459,l),
(237,100,l),
(74,87,l),
(74,0,l),
(520,0,l)
);
}
);
width = 614;
},
{
layerId = "C589F45C-3E8C-4D57-BBA0-76FE1AFDA3B7";
shapes = (
{
closed = 1;
nodes = (
(227,154,l),
(64,126,l),
(64,0,l),
(587,0,l),
(587,126,l),
(424,154,l),
(424,1560,l),
(64,1560,l),
(64,1433,l),
(227,1405,l)
);
}
);
userData = {
assembly = "NPUSHB[ ]	/* 27 values pushed */
9 8 7 4 3 0 6 1 0 1 76 0 0 0 33 77 0 1 1 32 1 78 19 17 2 8 24 
CALL[ ]	/* CallFunction */";
};
width = 653;
},
{
layerId = "B9892E43-DBAA-41C3-9AC8-C95A43C93A60";
shapes = (
{
closed = 1;
nodes = (
(480,1560,l),
(32,1560,l),
(32,1384,l),
(188,1354,l),
(188,205,l),
(47,175,l),
(47,0,l),
(621,0,l),
(621,175,l),
(480,205,l)
);
}
);
userData = {
assembly = "NPUSHB[ ]	/* 27 values pushed */
9 6 5 4 3 0 6 0 1 1 76 0 1 1 33 77 0 0 0 32 0 78 21 17 2 8 24 
CALL[ ]	/* CallFunction */";
};
width = 653;
},
{
layerId = "14DC179B-5B87-47A1-B3E1-5CE1808186AA";
shapes = (
{
closed = 1;
nodes = (
(642,205,l),
(515,237,l),
(515,1560,l),
(12,1560,l),
(12,1354,l),
(164,1322,l),
(164,237,l),
(36,205,l),
(36,0,l),
(642,0,l)
);
}
);
width = 653;
}
);
note = l;
unicode = 108;
},
{
glyphname = m;
lastChange = "2022-11-15 15:09:44 +0000";
layers = (
{
layerId = m01;
shapes = (
{
closed = 1;
nodes = (
(470,54,l),
(307,54,l),
(307,694,l),
(339,903,o),
(449,1048,o),
(673,1048,cs),
(861,1048,o),
(982,934,o),
(982,619,cs),
(982,54,l),
(819,54,l),
(819,0,l),
(1200,0,l),
(1200,54,l),
(1037,54,l),
(1037,682,l),
(1064,895,o),
(1176,1049,o),
(1405,1049,cs),
(1592,1049,o),
(1713,933,o),
(1713,620,cs),
(1713,55,l),
(1550,55,l),
(1550,1,l),
(1931,1,l),
(1931,55,l),
(1768,55,l),
(1768,618,ls),
(1768,953,o),
(1642,1103,o),
(1403,1103,cs),
(1208,1103,o),
(1076,994,o),
(1019,810,c),
(975,1009,o),
(858,1102,o),
(671,1102,cs),
(495,1102,o),
(371,1012,o),
(306,859,c),
(299,1082,l),
(89,1082,l),
(89,1028,l),
(252,1028,l),
(252,54,l),
(89,54,l),
(89,0,l),
(470,0,l)
);
}
);
width = 1980;
},
{
layerId = "5711A9A5-FB70-4E23-B0BA-A0F8E72F65B6";
shapes = (
{
closed = 1;
nodes = (
(529,87,l),
(366,100,l),
(366,743,l),
(402,898,o),
(496,999,o),
(672,999,cs),
(839,999,o),
(940,896,o),
(940,633,cs),
(940,100,l),
(777,87,l),
(777,0,l),
(1224,0,l),
(1224,87,l),
(1061,100,l),
(1061,684,l),
(1081,867,o),
(1181,1000,o),
(1369,1000,cs),
(1536,1000,o),
(1635,901,o),
(1635,633,cs),
(1635,101,l),
(1472,88,l),
(1472,1,l),
(1919,1,l),
(1919,88,l),
(1756,101,l),
(1756,631,ls),
(1756,952,o),
(1625,1103,o),
(1394,1103,cs),
(1221,1103,o),
(1096,1008,o),
(1035,852,c),
(987,1021,o),
(875,1102,o),
(708,1102,cs),
(547,1102,o),
(429,1026,o),
(362,897,c),
(352,1082,l),
(82,1082,l),
(82,994,l),
(245,981,l),
(245,100,l),
(82,87,l),
(82,0,l),
(529,0,l)
);
}
);
width = 1979;
},
{
layerId = "C589F45C-3E8C-4D57-BBA0-76FE1AFDA3B7";
shapes = (
{
closed = 1;
nodes = (
(475,890,o),
(551,942,o),
(671,942,cs),
(814,942,o),
(891,852,o),
(891,649,cs),
(891,154,l),
(728,126,l),
(728,0,l),
(1251,0,l),
(1251,126,l),
(1088,154,l),
(1088,687,l),
(1101,834,o),
(1189,942,o),
(1326,942,cs),
(1470,942,o),
(1544,862,o),
(1544,649,cs),
(1544,154,l),
(1381,126,l),
(1381,0,l),
(1905,0,l),
(1905,126,l),
(1742,154,l),
(1742,647,ls),
(1742,951,o),
(1605,1102,o),
(1384,1102,cs),
(1235,1102,o),
(1121,1025,o),
(1053,902,c),
(1001,1035,o),
(895,1102,o),
(751,1102,cs),
(607,1102,o),
(496,1044,o),
(427,941,c),
(414,1082,l),
(74,1082,l),
(74,955,l),
(237,927,l),
(237,154,l),
(74,126,l),
(74,0,l),
(597,0,l),
(597,126,l),
(434,154,l),
(434,801,l)
);
}
);
userData = {
assembly = "NPUSHB[ ]	/* 26 values pushed */
7 1 5 1 48 41 40 37 36 35 28 27 24 23 16 10 6 5 4 1 0 17 0 5 2 76 
MPPEM[ ]	/* MeasurePixelPerEm */
PUSHB[ ]	/* 1 value pushed */
25 
LT[ ]	/* LessThan */
IF[ ]	/* If */
NPUSHB[ ]	/* 21 values pushed */
7 1 5 5 1 97 3 2 2 1 1 34 77 6 4 2 0 0 32 0 78 
ELSE[ ]	/* Else */
NPUSHB[ ]	/* 25 values pushed */
0 1 1 34 77 7 1 5 5 2 97 3 1 2 2 40 77 6 4 2 0 0 32 0 78 
EIF[ ]	/* EndIf */
NPUSHB[ ]	/* 11 values pushed */
37 21 37 21 36 35 21 18 8 8 30 
CALL[ ]	/* CallFunction */";
};
width = 1977;
},
{
layerId = "B9892E43-DBAA-41C3-9AC8-C95A43C93A60";
shapes = (
{
closed = 1;
nodes = (
(484,205,l),
(484,778,l),
(523,841,o),
(582,875,o),
(665,875,cs),
(768,875,o),
(821,818,o),
(821,662,cs),
(821,205,l),
(703,175,l),
(703,0,l),
(1230,0,l),
(1230,175,l),
(1112,205,l),
(1112,735,l),
(1140,819,o),
(1204,875,o),
(1295,875,cs),
(1395,875,o),
(1449,822,o),
(1449,662,cs),
(1449,205,l),
(1323,175,l),
(1323,0,l),
(1882,0,l),
(1882,175,l),
(1741,205,l),
(1741,661,ls),
(1741,958,o),
(1609,1102,o),
(1396,1102,cs),
(1252,1102,o),
(1145,1033,o),
(1078,917,c),
(1029,1041,o),
(927,1102,o),
(788,1102,cs),
(651,1102,o),
(545,1043,o),
(476,939,c),
(464,1082,l),
(37,1082,l),
(37,906,l),
(193,876,l),
(193,205,l),
(52,175,l),
(52,0,l),
(610,0,l),
(610,175,l)
);
}
);
userData = {
assembly = "NPUSHB[ ]	/* 26 values pushed */
14 8 5 4 4 5 1 48 47 46 39 38 35 34 33 26 25 22 21 3 2 14 0 5 2 76 
MPPEM[ ]	/* MeasurePixelPerEm */
PUSHB[ ]	/* 1 value pushed */
25 
LT[ ]	/* LessThan */
IF[ ]	/* If */
NPUSHB[ ]	/* 21 values pushed */
7 1 5 5 1 97 3 2 2 1 1 34 77 6 4 2 0 0 32 0 78 
ELSE[ ]	/* Else */
NPUSHB[ ]	/* 25 values pushed */
0 1 1 34 77 7 1 5 5 2 97 3 1 2 2 40 77 6 4 2 0 0 32 0 78 
EIF[ ]	/* EndIf */
NPUSHB[ ]	/* 11 values pushed */
37 21 37 21 36 35 21 16 8 8 30 
CALL[ ]	/* CallFunction */";
};
width = 1917;
},
{
layerId = "14DC179B-5B87-47A1-B3E1-5CE1808186AA";
shapes = (
{
closed = 1;
nodes = (
(618,205,l),
(515,237,l),
(515,764,l),
(552,809,o),
(602,833,o),
(662,833,cs),
(739,833,o),
(778,797,o),
(778,670,cs),
(778,237,l),
(688,205,l),
(688,0,l),
(1217,0,l),
(1217,205,l),
(1127,237,l),
(1127,765,l),
(1164,809,o),
(1214,833,o),
(1275,833,cs),
(1350,833,o),
(1390,797,o),
(1390,670,cs),
(1390,237,l),
(1287,205,l),
(1287,0,l),
(1868,0,l),
(1868,205,l),
(1740,237,l),
(1740,670,ls),
(1740,963,o),
(1612,1102,o),
(1403,1102,cs),
(1263,1102,o),
(1159,1038,o),
(1094,926,c),
(1045,1045,o),
(946,1102,o),
(811,1102,cs),
(678,1102,o),
(577,1042,o),
(506,938,c),
(495,1082,l),
(14,1082,l),
(14,876,l),
(166,844,l),
(166,237,l),
(38,205,l),
(38,0,l),
(618,0,l)
);
}
);
width = 1880;
}
);
note = m;
unicode = 109;
},
{
glyphname = n;
lastChange = "2022-11-15 15:09:44 +0000";
layers = (
{
layerId = m01;
shapes = (
{
closed = 1;
nodes = (
(469,54,l),
(306,54,l),
(306,676,l),
(335,893,o),
(448,1048,o),
(681,1048,cs),
(865,1048,o),
(980,939,o),
(980,639,cs),
(980,54,l),
(817,54,l),
(817,0,l),
(1197,0,l),
(1197,54,l),
(1034,54,l),
(1034,637,ls),
(1034,960,o),
(916,1102,o),
(680,1102,cs),
(496,1102,o),
(370,1014,o),
(305,859,c),
(298,1082,l),
(89,1082,l),
(89,1028,l),
(252,1028,l),
(252,54,l),
(89,54,l),
(89,0,l),
(469,0,l)
);
}
);
width = 1320;
},
{
layerId = "5711A9A5-FB70-4E23-B0BA-A0F8E72F65B6";
shapes = (
{
closed = 1;
nodes = (
(528,87,l),
(365,100,l),
(365,728,l),
(405,889,o),
(506,999,o),
(685,999,cs),
(856,999,o),
(951,908,o),
(951,657,cs),
(951,100,l),
(788,87,l),
(788,0,l),
(1234,0,l),
(1234,87,l),
(1071,100,l),
(1071,658,ls),
(1071,963,o),
(946,1102,o),
(711,1102,cs),
(548,1102,o),
(430,1024,o),
(361,888,c),
(351,1082,l),
(82,1082,l),
(82,994,l),
(245,981,l),
(245,100,l),
(82,87,l),
(82,0,l),
(528,0,l)
);
}
);
width = 1331;
},
{
layerId = "C589F45C-3E8C-4D57-BBA0-76FE1AFDA3B7";
shapes = (
{
closed = 1;
nodes = (
(486,884,o),
(576,942,o),
(689,942,cs),
(844,942,o),
(918,870,o),
(918,679,cs),
(918,154,l),
(755,126,l),
(755,0,l),
(1278,0,l),
(1278,126,l),
(1115,154,l),
(1115,683,ls),
(1115,968,o),
(981,1102,o),
(748,1102,cs),
(609,1102,o),
(499,1036,o),
(427,921,c),
(413,1082,l),
(74,1082,l),
(74,955,l),
(237,927,l),
(237,154,l),
(74,126,l),
(74,0,l),
(597,0,l),
(597,126,l),
(434,154,l),
(434,789,l)
);
}
);
userData = {
assembly = "NPUSHB[ ]	/* 20 values pushed */
7 1 4 1 29 22 21 18 17 10 6 5 4 1 0 11 0 4 2 76 
MPPEM[ ]	/* MeasurePixelPerEm */
PUSHB[ ]	/* 1 value pushed */
25 
LT[ ]	/* LessThan */
IF[ ]	/* If */
NPUSHB[ ]	/* 18 values pushed */
0 4 4 1 97 2 1 1 1 34 77 3 1 0 0 32 0 78 
ELSE[ ]	/* Else */
NPUSHB[ ]	/* 22 values pushed */
0 1 1 34 77 0 4 4 2 97 0 2 2 40 77 3 1 0 0 32 0 78 
EIF[ ]	/* EndIf */
PUSHB[ ]	/* 8 values pushed */
37 21 35 21 18 5 8 27 
CALL[ ]	/* CallFunction */";
};
width = 1343;
},
{
layerId = "B9892E43-DBAA-41C3-9AC8-C95A43C93A60";
shapes = (
{
closed = 1;
nodes = (
(484,205,l),
(484,773,l),
(525,838,o),
(587,875,o),
(671,875,cs),
(784,875,o),
(842,820,o),
(842,675,cs),
(842,205,l),
(717,175,l),
(717,0,l),
(1275,0,l),
(1275,175,l),
(1135,205,l),
(1135,676,ls),
(1135,969,o),
(1007,1102,o),
(792,1102,cs),
(656,1102,o),
(549,1038,o),
(477,927,c),
(464,1082,l),
(37,1082,l),
(37,906,l),
(192,876,l),
(192,205,l),
(52,175,l),
(52,0,l),
(602,0,l),
(602,175,l)
);
}
);
userData = {
assembly = "NPUSHB[ ]	/* 20 values pushed */
8 5 4 3 4 1 29 28 27 20 19 16 15 3 2 9 0 4 2 76 
MPPEM[ ]	/* MeasurePixelPerEm */
PUSHB[ ]	/* 1 value pushed */
25 
LT[ ]	/* LessThan */
IF[ ]	/* If */
NPUSHB[ ]	/* 18 values pushed */
0 4 4 1 97 2 1 1 1 34 77 3 1 0 0 32 0 78 
ELSE[ ]	/* Else */
NPUSHB[ ]	/* 22 values pushed */
0 1 1 34 77 0 4 4 2 97 0 2 2 40 77 3 1 0 0 32 0 78 
EIF[ ]	/* EndIf */
PUSHB[ ]	/* 8 values pushed */
37 21 35 21 16 5 8 27 
CALL[ ]	/* CallFunction */";
};
width = 1307;
},
{
layerId = "14DC179B-5B87-47A1-B3E1-5CE1808186AA";
shapes = (
{
closed = 1;
nodes = (
(605,205,l),
(515,237,l),
(515,763,l),
(550,810,o),
(595,833,o),
(660,833,cs),
(747,833,o),
(795,789,o),
(795,673,cs),
(795,237,l),
(693,205,l),
(693,0,l),
(1273,0,l),
(1273,205,l),
(1147,237,l),
(1147,672,ls),
(1147,971,o),
(1022,1102,o),
(819,1102,cs),
(686,1102,o),
(580,1039,o),
(508,931,c),
(496,1082,l),
(14,1082,l),
(14,876,l),
(164,844,l),
(164,237,l),
(38,205,l),
(38,0,l),
(605,0,l)
);
}
);
width = 1285;
}
);
note = n;
unicode = 110;
},
{
glyphname = o;
lastChange = "2022-11-15 15:09:44 +0000";
layers = (
{
layerId = m01;
shapes = (
{
closed = 1;
nodes = (
(764,-21,o),
(911,76,o),
(991,239,cs),
(1031,320,o),
(1051,414,o),
(1051,520,cs),
(1051,562,ls),
(1051,774,o),
(967,941,o),
(825,1033,cs),
(754,1079,o),
(671,1102,o),
(577,1102,cs),
(390,1102,o),
(244,1005,o),
(164,843,cs),
(124,762,o),
(104,668,o),
(104,562,cs),
(104,520,ls),
(104,308,o),
(188,140,o),
(331,48,cs),
(402,2,o),
(485,-21,o),
(579,-21,cs)
);
},
{
closed = 1;
nodes = (
(158,562,ls),
(158,739,o),
(230,894,o),
(356,982,cs),
(419,1026,o),
(492,1048,o),
(577,1048,cs),
(746,1048,o),
(876,953,o),
(945,806,cs),
(980,732,o),
(997,651,o),
(997,562,cs),
(997,520,ls),
(997,340,o),
(925,186,o),
(800,99,cs),
(737,55,o),
(664,33,o),
(579,33,cs),
(407,33,o),
(278,126,o),
(210,274,cs),
(175,347,o),
(158,429,o),
(158,520,cs)
);
}
);
width = 1155;
},
{
layerId = "5711A9A5-FB70-4E23-B0BA-A0F8E72F65B6";
shapes = (
{
closed = 1;
nodes = (
(763,-21,o),
(910,77,o),
(990,241,cs),
(1029,323,o),
(1049,417,o),
(1049,524,cs),
(1049,557,ls),
(1049,770,o),
(966,939,o),
(823,1032,cs),
(751,1079,o),
(667,1102,o),
(570,1102,cs),
(378,1102,o),
(231,1003,o),
(152,839,cs),
(112,757,o),
(92,663,o),
(92,557,cs),
(92,524,ls),
(92,312,o),
(175,141,o),
(319,49,cs),
(390,2,o),
(475,-21,o),
(572,-21,cs)
);
},
{
closed = 1;
nodes = (
(212,557,ls),
(212,819,o),
(353,1001,o),
(570,1001,cs),
(719,1001,o),
(829,917,o),
(886,782,cs),
(915,715,o),
(929,640,o),
(929,557,cs),
(929,524,ls),
(929,357,o),
(870,217,o),
(763,138,cs),
(710,99,o),
(646,79,o),
(572,79,cs),
(420,79,o),
(311,164,o),
(255,298,cs),
(226,365,o),
(212,440,o),
(212,524,cs)
);
}
);
width = 1141;
},
{
layerId = "C589F45C-3E8C-4D57-BBA0-76FE1AFDA3B7";
shapes = (
{
closed = 1;
nodes = (
(762,-21,o),
(908,78,o),
(987,244,cs),
(1026,327,o),
(1046,422,o),
(1046,529,cs),
(1046,551,ls),
(1046,766,o),
(964,936,o),
(820,1031,cs),
(747,1078,o),
(661,1102,o),
(561,1102,cs),
(364,1102,o),
(216,1002,o),
(137,836,cs),
(98,753,o),
(78,658,o),
(78,551,cs),
(78,529,ls),
(78,316,o),
(160,144,o),
(305,50,cs),
(377,3,o),
(463,-21,o),
(563,-21,cs)
);
},
{
closed = 1;
nodes = (
(275,551,ls),
(275,784,o),
(375,947,o),
(561,947,cs),
(743,947,o),
(849,800,o),
(849,551,cs),
(849,529,ls),
(849,280,o),
(743,133,o),
(563,133,cs),
(375,133,o),
(275,296,o),
(275,529,cs)
);
}
);
userData = {
assembly = "NPUSHB[ ]	/* 42 values pushed */
0 3 3 1 97 0 1 1 40 77 5 1 2 2 0 97 4 1 0 0 38 0 78 19 18 1 0 28 26 18 35 19 35 10 8 0 17 1 17 6 8 22 
CALL[ ]	/* CallFunction */";
};
width = 1124;
},
{
layerId = "B9892E43-DBAA-41C3-9AC8-C95A43C93A60";
shapes = (
{
closed = 1;
nodes = (
(791,-21,o),
(946,78,o),
(1027,244,cs),
(1068,327,o),
(1088,422,o),
(1088,530,cs),
(1088,551,ls),
(1088,767,o),
(1004,938,o),
(852,1032,cs),
(776,1079,o),
(684,1102,o),
(577,1102,cs),
(365,1102,o),
(209,1003,o),
(128,837,cs),
(87,754,o),
(67,658,o),
(67,551,cs),
(67,530,ls),
(67,314,o),
(151,142,o),
(304,49,cs),
(381,2,o),
(472,-21,o),
(579,-21,cs)
);
},
{
closed = 1;
nodes = (
(359,551,ls),
(359,679,o),
(388,780,o),
(453,836,cs),
(486,863,o),
(527,877,o),
(577,877,cs),
(731,877,o),
(797,743,o),
(797,551,cs),
(797,530,ls),
(797,334,o),
(731,203,o),
(579,203,cs),
(476,203,o),
(412,259,o),
(382,358,cs),
(367,407,o),
(359,465,o),
(359,530,cs)
);
}
);
userData = {
assembly = "NPUSHB[ ]	/* 42 values pushed */
0 3 3 1 97 0 1 1 40 77 5 1 2 2 0 97 4 1 0 0 38 0 78 19 18 1 0 28 26 18 35 19 35 10 8 0 17 1 17 6 8 22 
CALL[ ]	/* CallFunction */";
};
width = 1155;
},
{
layerId = "14DC179B-5B87-47A1-B3E1-5CE1808186AA";
shapes = (
{
closed = 1;
nodes = (
(809,-21,o),
(968,78,o),
(1052,244,cs),
(1093,327,o),
(1114,422,o),
(1114,531,cs),
(1114,551,ls),
(1114,768,o),
(1028,939,o),
(872,1032,cs),
(793,1079,o),
(698,1102,o),
(587,1102,cs),
(366,1102,o),
(206,1002,o),
(123,837,cs),
(81,754,o),
(60,659,o),
(60,551,cs),
(60,531,ls),
(60,312,o),
(146,141,o),
(304,49,cs),
(383,2,o),
(478,-21,o),
(589,-21,cs)
);
},
{
closed = 1;
nodes = (
(411,551,ls),
(411,664,o),
(432,751,o),
(484,799,cs),
(510,822,o),
(544,834,o),
(587,834,cs),
(716,834,o),
(765,723,o),
(765,551,cs),
(765,531,ls),
(765,355,o),
(717,246,o),
(589,246,cs),
(501,246,o),
(451,293,o),
(428,378,cs),
(417,421,o),
(411,472,o),
(411,531,cs)
);
}
);
width = 1174;
}
);
note = o;
unicode = 111;
},
{
glyphname = p;
lastChange = "2022-11-15 15:09:44 +0000";
layers = (
{
layerId = m01;
shapes = (
{
closed = 1;
nodes = (
(445,-362,l),
(282,-362,l),
(282,168,l),
(353,52,o),
(482,-21,o),
(651,-21,cs),
(820,-21,o),
(944,71,o),
(1009,233,cs),
(1041,314,o),
(1057,410,o),
(1057,521,cs),
(1057,542,ls),
(1057,770,o),
(990,942,o),
(868,1034,cs),
(807,1079,o),
(734,1102,o),
(649,1102,cs),
(478,1102,o),
(353,1021,o),
(281,888,c),
(270,1082,l),
(65,1082,l),
(65,1028,l),
(228,1028,l),
(228,-362,l),
(65,-362,l),
(65,-416,l),
(445,-416,l)
);
},
{
closed = 1;
nodes = (
(282,775,l),
(331,928,o),
(441,1048,o),
(650,1048,cs),
(876,1048,o),
(1002,846,o),
(1002,542,cs),
(1002,521,ls),
(1002,222,o),
(880,33,o),
(652,33,cs),
(463,33,o),
(335,125,o),
(282,269,c)
);
}
);
width = 1161;
},
{
layerId = "5711A9A5-FB70-4E23-B0BA-A0F8E72F65B6";
shapes = (
{
closed = 1;
nodes = (
(501,-328,l),
(334,-315,l),
(334,142,l),
(405,39,o),
(520,-21,o),
(673,-21,cs),
(845,-21,o),
(971,71,o),
(1037,230,cs),
(1070,309,o),
(1086,403,o),
(1086,511,cs),
(1086,532,ls),
(1086,886,o),
(926,1102,o),
(670,1102,cs),
(515,1102,o),
(401,1034,o),
(329,917,c),
(314,1082,l),
(51,1082,l),
(51,994,l),
(214,981,l),
(214,-315,l),
(55,-328,l),
(55,-416,l),
(501,-416,l)
);
},
{
closed = 1;
nodes = (
(334,787,l),
(383,910,o),
(479,999,o),
(643,999,cs),
(852,999,o),
(965,809,o),
(965,532,cs),
(965,511,ls),
(965,250,o),
(854,79,o),
(645,79,cs),
(489,79,o),
(385,152,o),
(334,271,c)
);
}
);
width = 1178;
},
{
layerId = "C589F45C-3E8C-4D57-BBA0-76FE1AFDA3B7";
shapes = (
{
closed = 1;
nodes = (
(465,24,o),
(565,-21,o),
(698,-21,cs),
(874,-21,o),
(1001,71,o),
(1069,227,cs),
(1102,305,o),
(1119,396,o),
(1119,500,cs),
(1119,521,ls),
(1119,877,o),
(959,1102,o),
(695,1102,cs),
(559,1102,o),
(456,1049,o),
(384,950,c),
(366,1082,l),
(34,1082,l),
(34,955,l),
(197,927,l),
(197,-261,l),
(44,-289,l),
(44,-416,l),
(566,-416,l),
(566,-289,l),
(394,-261,l),
(394,112,l)
);
},
{
closed = 1;
nodes = (
(394,800,l),
(443,888,o),
(523,942,o),
(635,942,cs),
(818,942,o),
(921,787,o),
(921,521,cs),
(921,500,ls),
(921,283,o),
(824,133,o),
(637,133,cs),
(521,133,o),
(443,184,o),
(394,273,c)
);
}
);
userData = {
assembly = "NPUSHB[ ]	/* 24 values pushed */
10 7 2 5 1 38 37 6 3 4 5 25 1 3 4 5 4 1 0 4 0 3 4 76 
MPPEM[ ]	/* MeasurePixelPerEm */
PUSHB[ ]	/* 1 value pushed */
25 
LT[ ]	/* LessThan */
IF[ ]	/* If */
NPUSHB[ ]	/* 28 values pushed */
0 5 5 1 97 2 1 1 1 34 77 6 1 4 4 3 97 0 3 3 38 77 0 0 0 36 0 78 
ELSE[ ]	/* Else */
NPUSHB[ ]	/* 32 values pushed */
0 1 1 34 77 0 5 5 2 97 0 2 2 40 77 6 1 4 4 3 97 0 3 3 38 77 0 0 0 36 0 78 
EIF[ ]	/* EndIf */
NPUSHB[ ]	/* 15 values pushed */
27 26 35 33 26 40 27 40 39 35 21 18 7 8 26 
CALL[ ]	/* CallFunction */";
};
width = 1197;
},
{
layerId = "B9892E43-DBAA-41C3-9AC8-C95A43C93A60";
shapes = (
{
closed = 1;
nodes = (
(488,-210,l),
(488,103,l),
(551,22,o),
(639,-21,o),
(755,-21,cs),
(931,-21,o),
(1058,72,o),
(1124,232,cs),
(1157,311,o),
(1173,404,o),
(1173,511,cs),
(1173,532,ls),
(1173,760,o),
(1105,935,o),
(981,1031,cs),
(919,1078,o),
(844,1102,o),
(757,1102,cs),
(632,1102,o),
(543,1049,o),
(479,956,c),
(465,1082,l),
(41,1082,l),
(41,906,l),
(197,876,l),
(197,-210,l),
(56,-240,l),
(56,-416,l),
(629,-416,l),
(629,-240,l)
);
},
{
closed = 1;
nodes = (
(488,771,l),
(524,838,o),
(586,875,o),
(666,875,cs),
(813,875,o),
(881,738,o),
(881,532,cs),
(881,511,ls),
(881,322,o),
(817,203,o),
(668,203,cs),
(585,203,o),
(524,236,o),
(488,297,c)
);
}
);
userData = {
assembly = "NPUSHB[ ]	/* 24 values pushed */
8 5 4 3 5 1 38 37 2 4 5 23 1 3 4 25 24 3 2 4 0 3 4 76 
MPPEM[ ]	/* MeasurePixelPerEm */
PUSHB[ ]	/* 1 value pushed */
25 
LT[ ]	/* LessThan */
IF[ ]	/* If */
NPUSHB[ ]	/* 28 values pushed */
0 5 5 1 97 2 1 1 1 34 77 6 1 4 4 3 97 0 3 3 38 77 0 0 0 36 0 78 
ELSE[ ]	/* Else */
NPUSHB[ ]	/* 32 values pushed */
0 1 1 34 77 0 5 5 2 97 0 2 2 40 77 6 1 4 4 3 97 0 3 3 38 77 0 0 0 36 0 78 
EIF[ ]	/* EndIf */
NPUSHB[ ]	/* 15 values pushed */
27 26 35 33 26 40 27 40 39 35 21 16 7 8 26 
CALL[ ]	/* CallFunction */";
};
width = 1240;
},
{
layerId = "14DC179B-5B87-47A1-B3E1-5CE1808186AA";
shapes = (
{
closed = 1;
nodes = (
(668,-210,l),
(546,-178,l),
(546,97,l),
(605,20,o),
(684,-21,o),
(791,-21,cs),
(966,-21,o),
(1092,73,o),
(1158,235,cs),
(1191,316,o),
(1207,410,o),
(1207,518,cs),
(1207,539,ls),
(1207,763,o),
(1139,938,o),
(1016,1032,cs),
(955,1079,o),
(881,1102,o),
(796,1102,cs),
(676,1102,o),
(597,1051,o),
(538,960,c),
(526,1082,l),
(45,1082,l),
(45,876,l),
(197,844,l),
(197,-178,l),
(63,-210,l),
(63,-416,l),
(668,-416,l)
);
},
{
closed = 1;
nodes = (
(546,753,l),
(574,806,o),
(625,833,o),
(685,833,cs),
(808,833,o),
(856,720,o),
(856,539,cs),
(856,518,ls),
(856,346,o),
(814,246,o),
(687,246,cs),
(626,246,o),
(574,268,o),
(546,312,c)
);
}
);
width = 1267;
}
);
note = p;
unicode = 112;
},
{
glyphname = q;
lastChange = "2022-11-15 15:09:44 +0000";
layers = (
{
layerId = m01;
shapes = (
{
closed = 1;
nodes = (
(1096,-362,l),
(933,-362,l),
(933,1082,l),
(884,1082,l),
(879,886,l),
(806,1021,o),
(681,1102,o),
(512,1102,cs),
(341,1102,o),
(217,1007,o),
(153,839,cs),
(120,755,o),
(104,656,o),
(104,542,cs),
(104,521,ls),
(104,298,o),
(171,133,o),
(292,45,cs),
(353,1,o),
(425,-21,o),
(510,-21,cs),
(679,-21,o),
(807,53,o),
(879,170,c),
(879,-362,l),
(716,-362,l),
(716,-416,l),
(1096,-416,l)
);
},
{
closed = 1;
nodes = (
(160,542,ls),
(160,847,o),
(284,1048,o),
(511,1048,cs),
(716,1048,o),
(828,921,o),
(879,768,c),
(879,274,l),
(826,127,o),
(700,33,o),
(509,33,cs),
(280,33,o),
(160,222,o),
(160,521,cs)
);
}
);
width = 1136;
},
{
layerId = "5711A9A5-FB70-4E23-B0BA-A0F8E72F65B6";
shapes = (
{
closed = 1;
nodes = (
(1114,-328,l),
(956,-315,l),
(956,1082,l),
(851,1082,l),
(841,922,l),
(769,1035,o),
(656,1102,o),
(507,1102,cs),
(251,1102,o),
(92,886,o),
(92,532,cs),
(92,511,ls),
(92,182,o),
(250,-21,o),
(505,-21,cs),
(652,-21,o),
(765,38,o),
(836,139,c),
(836,-315,l),
(673,-328,l),
(673,-416,l),
(1114,-416,l)
);
},
{
closed = 1;
nodes = (
(213,532,ls),
(213,813,o),
(321,1001,o),
(529,1001,cs),
(689,1001,o),
(784,909,o),
(836,789,c),
(836,273,l),
(783,153,o),
(680,79,o),
(527,79,cs),
(318,79,o),
(213,250,o),
(213,511,cs)
);
}
);
width = 1137;
},
{
layerId = "C589F45C-3E8C-4D57-BBA0-76FE1AFDA3B7";
shapes = (
{
closed = 1;
nodes = (
(812,1082,l),
(796,963,l),
(727,1054,o),
(628,1102,o),
(501,1102,cs),
(237,1102,o),
(78,875,o),
(78,521,cs),
(78,500,ls),
(78,181,o),
(240,-21,o),
(499,-21,cs),
(620,-21,o),
(716,21,o),
(785,102,c),
(785,-261,l),
(622,-289,l),
(622,-416,l),
(1135,-416,l),
(1135,-289,l),
(982,-261,l),
(982,1082,l)
);
},
{
closed = 1;
nodes = (
(275,521,ls),
(275,774,o),
(365,947,o),
(551,947,cs),
(656,947,o),
(733,895,o),
(785,814,c),
(785,271,l),
(733,183,o),
(658,133,o),
(549,133,cs),
(362,133,o),
(275,281,o),
(275,500,cs)
);
}
);
userData = {
assembly = "MPPEM[ ]	/* MeasurePixelPerEm */
PUSHB[ ]	/* 1 value pushed */
25 
LT[ ]	/* LessThan */
IF[ ]	/* If */
NPUSHB[ ]	/* 22 values pushed */
21 1 5 2 28 27 2 4 5 6 1 1 4 5 4 1 0 4 0 1 4 76 
ELSE[ ]	/* Else */
NPUSHB[ ]	/* 22 values pushed */
21 1 5 3 28 27 2 4 5 6 1 1 4 5 4 1 0 4 0 1 4 76 
EIF[ ]	/* EndIf */
MPPEM[ ]	/* MeasurePixelPerEm */
PUSHB[ ]	/* 1 value pushed */
25 
LT[ ]	/* LessThan */
IF[ ]	/* If */
NPUSHB[ ]	/* 28 values pushed */
0 5 5 2 97 3 1 2 2 40 77 6 1 4 4 1 97 0 1 1 38 77 0 0 0 36 0 78 
ELSE[ ]	/* Else */
NPUSHB[ ]	/* 32 values pushed */
0 3 3 34 77 0 5 5 2 97 0 2 2 40 77 6 1 4 4 1 97 0 1 1 38 77 0 0 0 36 0 78 
EIF[ ]	/* EndIf */
NPUSHB[ ]	/* 15 values pushed */
25 24 32 30 24 38 25 38 19 39 37 18 7 8 26 
CALL[ ]	/* CallFunction */";
};
width = 1139;
},
{
layerId = "B9892E43-DBAA-41C3-9AC8-C95A43C93A60";
shapes = (
{
closed = 1;
nodes = (
(1039,-210,l),
(1039,1082,l),
(785,1082,l),
(763,952,l),
(698,1048,o),
(609,1102,o),
(482,1102,cs),
(309,1102,o),
(183,1002,o),
(117,831,cs),
(84,746,o),
(67,646,o),
(67,532,cs),
(67,511,ls),
(67,298,o),
(135,134,o),
(259,46,cs),
(321,1,o),
(396,-21,o),
(483,-21,cs),
(598,-21,o),
(682,20,o),
(747,100,c),
(747,-210,l),
(576,-244,l),
(576,-416,l),
(1170,-416,l),
(1170,-239,l)
);
},
{
closed = 1;
nodes = (
(359,532,ls),
(359,669,o),
(386,777,o),
(449,834,cs),
(480,863,o),
(521,877,o),
(570,877,cs),
(649,877,o),
(708,841,o),
(747,777,c),
(747,296,l),
(708,235,o),
(647,203,o),
(568,203,cs),
(417,203,o),
(359,320,o),
(359,511,cs)
);
}
);
userData = {
assembly = "MPPEM[ ]	/* MeasurePixelPerEm */
PUSHB[ ]	/* 1 value pushed */
25 
LT[ ]	/* LessThan */
IF[ ]	/* If */
NPUSHB[ ]	/* 22 values pushed */
19 1 5 2 28 27 2 4 5 4 1 1 4 23 22 3 2 4 0 1 4 76 
ELSE[ ]	/* Else */
NPUSHB[ ]	/* 22 values pushed */
19 1 5 3 28 27 2 4 5 4 1 1 4 23 22 3 2 4 0 1 4 76 
EIF[ ]	/* EndIf */
MPPEM[ ]	/* MeasurePixelPerEm */
PUSHB[ ]	/* 1 value pushed */
25 
LT[ ]	/* LessThan */
IF[ ]	/* If */
NPUSHB[ ]	/* 28 values pushed */
0 5 5 2 97 3 1 2 2 40 77 6 1 4 4 1 97 0 1 1 38 77 0 0 0 36 0 78 
ELSE[ ]	/* Else */
NPUSHB[ ]	/* 32 values pushed */
0 3 3 34 77 0 5 5 2 97 0 2 2 40 77 6 1 4 4 1 97 0 1 1 38 77 0 0 0 36 0 78 
EIF[ ]	/* EndIf */
NPUSHB[ ]	/* 15 values pushed */
25 24 32 30 24 38 25 38 19 39 37 16 7 8 26 
CALL[ ]	/* CallFunction */";
};
width = 1156;
},
{
layerId = "14DC179B-5B87-47A1-B3E1-5CE1808186AA";
shapes = (
{
closed = 1;
nodes = (
(1191,-208,l),
(1074,-178,l),
(1074,1082,l),
(769,1082,l),
(742,945,l),
(679,1044,o),
(598,1102,o),
(470,1102,cs),
(299,1102,o),
(174,1003,o),
(109,835,cs),
(76,750,o),
(60,652,o),
(60,539,cs),
(60,518,ls),
(60,302,o),
(127,135,o),
(251,46,cs),
(312,1,o),
(386,-21,o),
(473,-21,cs),
(584,-21,o),
(662,19,o),
(723,99,c),
(723,-178,l),
(547,-216,l),
(547,-416,l),
(1191,-416,l)
);
},
{
closed = 1;
nodes = (
(411,539,ls),
(411,658,o),
(431,749,o),
(482,798,cs),
(507,822,o),
(541,834,o),
(582,834,cs),
(643,834,o),
(692,807,o),
(723,754,c),
(723,312,l),
(692,267,o),
(640,246,o),
(580,246,cs),
(452,246,o),
(411,345,o),
(411,518,cs)
);
}
);
width = 1167;
}
);
note = q;
unicode = 113;
},
{
glyphname = r;
lastChange = "2022-11-15 15:09:44 +0000";
layers = (
{
layerId = m01;
shapes = (
{
closed = 1;
nodes = (
(469,54,l),
(306,54,l),
(306,709,l),
(342,913,o),
(466,1049,o),
(659,1049,c),
(749,1042,l),
(755,1090,l),
(736,1095,o),
(690,1102,o),
(659,1102,cs),
(486,1102,o),
(366,1012,o),
(306,857,c),
(306,894,l),
(296,1082,l),
(89,1082,l),
(89,1028,l),
(252,1028,l),
(252,54,l),
(89,54,l),
(89,0,l),
(469,0,l)
);
}
);
width = 823;
},
{
layerId = "5711A9A5-FB70-4E23-B0BA-A0F8E72F65B6";
shapes = (
{
closed = 1;
nodes = (
(527,87,l),
(364,100,l),
(364,736,l),
(401,888,o),
(500,989,o),
(653,985,cs),
(764,978,l),
(779,1088,l),
(760,1095,o),
(713,1102,o),
(677,1102,cs),
(530,1102,o),
(424,1023,o),
(363,888,c),
(362,917,l),
(349,1082,l),
(81,1082,l),
(81,994,l),
(244,981,l),
(244,100,l),
(81,87,l),
(81,0,l),
(527,0,l)
);
}
);
width = 837;
},
{
layerId = "C589F45C-3E8C-4D57-BBA0-76FE1AFDA3B7";
shapes = (
{
closed = 1;
nodes = (
(471,858,o),
(541,918,o),
(645,911,cs),
(782,903,l),
(808,1086,l),
(789,1093,o),
(739,1102,o),
(698,1102,cs),
(582,1102,o),
(491,1036,o),
(430,925,c),
(428,944,l),
(411,1082,l),
(72,1082,l),
(72,955,l),
(235,927,l),
(235,154,l),
(72,126,l),
(72,0,l),
(595,0,l),
(595,126,l),
(432,154,l),
(432,767,l)
);
}
);
userData = {
assembly = "NPUSHB[ ]	/* 16 values pushed */
11 7 6 3 3 1 22 5 4 1 0 5 0 3 2 76 
MPPEM[ ]	/* MeasurePixelPerEm */
PUSHB[ ]	/* 1 value pushed */
25 
LT[ ]	/* LessThan */
IF[ ]	/* If */
NPUSHB[ ]	/* 17 values pushed */
0 3 3 1 97 2 1 1 1 34 77 0 0 0 32 0 78 
ELSE[ ]	/* Else */
NPUSHB[ ]	/* 21 values pushed */
0 1 1 34 77 0 3 3 2 97 0 2 2 40 77 0 0 0 32 0 78 
EIF[ ]	/* EndIf */
PUSHB[ ]	/* 7 values pushed */
35 36 21 18 4 8 26 
CALL[ ]	/* CallFunction */";
};
width = 854;
},
{
layerId = "B9892E43-DBAA-41C3-9AC8-C95A43C93A60";
shapes = (
{
closed = 1;
nodes = (
(517,205,l),
(517,735,l),
(537,765,o),
(560,788,o),
(586,804,cs),
(609,818,o),
(637,825,o),
(672,825,cs),
(686,825,l),
(831,817,l),
(862,1086,l),
(830,1095,o),
(785,1102,o),
(750,1102,cs),
(641,1102,o),
(563,1041,o),
(510,924,c),
(508,948,l),
(497,1082,l),
(70,1082,l),
(70,906,l),
(225,876,l),
(225,205,l),
(85,175,l),
(85,0,l),
(657,0,l),
(657,175,l)
);
}
);
width = 886;
},
{
layerId = "14DC179B-5B87-47A1-B3E1-5CE1808186AA";
shapes = (
{
closed = 1;
nodes = (
(696,205,l),
(570,237,l),
(570,715,l),
(610,756,o),
(642,774,o),
(711,771,cs),
(861,764,l),
(896,1086,l),
(855,1098,o),
(812,1102,o),
(783,1102,cs),
(676,1102,o),
(608,1046,o),
(560,923,c),
(558,950,l),
(550,1082,l),
(69,1082,l),
(69,876,l),
(219,844,l),
(219,237,l),
(93,205,l),
(93,0,l),
(696,0,l)
);
}
);
width = 906;
}
);
note = r;
unicode = 114;
},
{
glyphname = s;
lastChange = "2022-11-15 15:09:44 +0000";
layers = (
{
layerId = m01;
shapes = (
{
closed = 1;
nodes = (
(716,-21,o),
(867,95,o),
(867,264,cs),
(867,437,o),
(742,531,o),
(499,584,cs),
(324,623,o),
(240,667,o),
(208,726,cs),
(191,755,o),
(183,789,o),
(183,828,cs),
(183,940,o),
(282,1048,o),
(478,1048,cs),
(619,1048,o),
(709,1005,o),
(778,928,c),
(778,753,l),
(832,753,l),
(832,955,l),
(751,1044,o),
(633,1102,o),
(478,1102,cs),
(334,1102,o),
(227,1050,o),
(171,967,cs),
(143,925,o),
(129,878,o),
(129,826,cs),
(129,661,o),
(228,585,o),
(483,532,cs),
(727,479,o),
(813,380,o),
(813,265,cs),
(813,142,o),
(687,33,o),
(487,33,cs),
(358,33,o),
(236,68,o),
(157,152,c),
(157,315,l),
(103,315,l),
(103,122,l),
(192,33,o),
(330,-21,o),
(487,-21,cs)
);
}
);
width = 1009;
},
{
layerId = "5711A9A5-FB70-4E23-B0BA-A0F8E72F65B6";
shapes = (
{
closed = 1;
nodes = (
(756,-21,o),
(897,105,o),
(897,281,cs),
(897,448,o),
(783,548,o),
(512,609,cs),
(308,656,o),
(242,705,o),
(242,815,cs),
(242,915,o),
(333,1003,o),
(496,1003,cs),
(611,1003,o),
(687,970,o),
(747,913,c),
(761,753,l),
(859,753,l),
(854,975,l),
(770,1052,o),
(655,1102,o),
(496,1102,cs),
(344,1102,o),
(228,1047,o),
(167,959,cs),
(136,915,o),
(121,866,o),
(121,811,cs),
(121,644,o),
(229,560,o),
(488,504,cs),
(704,456,o),
(777,376,o),
(777,275,cs),
(777,167,o),
(680,76,o),
(499,76,cs),
(391,76,o),
(295,101,o),
(218,161,c),
(201,320,l),
(103,320,l),
(104,98,l),
(219,21,o),
(347,-21,o),
(499,-21,cs)
);
}
);
width = 1015;
},
{
layerId = "C589F45C-3E8C-4D57-BBA0-76FE1AFDA3B7";
shapes = (
{
closed = 1;
nodes = (
(803,-21,o),
(933,118,o),
(933,301,cs),
(933,461,o),
(829,567,o),
(528,638,cs),
(364,678,o),
(310,713,o),
(310,799,cs),
(310,886,o),
(394,950,o),
(517,950,cs),
(600,950,o),
(663,931,o),
(710,896,c),
(742,752,l),
(890,752,l),
(880,999,l),
(793,1062,o),
(681,1102,o),
(517,1102,cs),
(279,1102,o),
(112,970,o),
(112,793,cs),
(112,625,o),
(232,531,o),
(493,471,cs),
(677,430,o),
(736,372,o),
(736,287,cs),
(736,196,o),
(672,127,o),
(512,127,cs),
(431,127,o),
(365,140,o),
(290,171,c),
(253,326,l),
(104,326,l),
(106,69,l),
(249,8,o),
(367,-21,o),
(512,-21,cs)
);
}
);
userData = {
assembly = "NPUSHB[ ]	/* 66 values pushed */
25 1 5 3 3 1 0 2 2 76 0 4 5 1 5 4 1 128 0 1 2 5 1 2 126 0 5 5 3 97 0 3 3 40 77 0 2 2 0 97 6 1 0 0 38 0 78 1 0 32 30 27 26 23 21 10 8 5 4 0 43 1 43 7 8 22 
CALL[ ]	/* CallFunction */";
};
width = 1022;
},
{
layerId = "B9892E43-DBAA-41C3-9AC8-C95A43C93A60";
shapes = (
{
closed = 1;
nodes = (
(818,-21,o),
(964,115,o),
(964,316,cs),
(964,500,o),
(847,592,o),
(579,653,cs),
(427,688,o),
(382,727,o),
(382,790,cs),
(382,855,o),
(438,901,o),
(541,901,cs),
(602,901,o),
(651,888,o),
(687,861,c),
(718,719,l),
(920,719,l),
(917,1015,l),
(825,1066,o),
(686,1100,o),
(523,1100,cs),
(328,1100,o),
(205,1035,o),
(145,936,cs),
(114,887,o),
(99,832,o),
(99,772,cs),
(99,597,o),
(217,486,o),
(473,433,cs),
(558,416,o),
(614,396,o),
(643,373,cs),
(671,350,o),
(685,323,o),
(685,293,cs),
(685,229,o),
(638,181,o),
(507,181,cs),
(438,181,o),
(385,195,o),
(340,218,c),
(301,374,l),
(98,374,l),
(101,68,l),
(229,11,o),
(366,-21,o),
(527,-21,cs)
);
}
);
userData = {
assembly = "NPUSHB[ ]	/* 66 values pushed */
25 1 5 3 3 1 0 2 2 76 0 4 5 1 5 4 1 128 0 1 2 5 1 2 126 0 5 5 3 97 0 3 3 40 77 0 2 2 0 97 6 1 0 0 38 0 78 1 0 32 30 27 26 23 21 10 8 5 4 0 43 1 43 7 8 22 
CALL[ ]	/* CallFunction */";
};
width = 1034;
},
{
layerId = "14DC179B-5B87-47A1-B3E1-5CE1808186AA";
shapes = (
{
closed = 1;
nodes = (
(827,-21,o),
(983,113,o),
(983,326,cs),
(983,525,o),
(858,607,o),
(611,662,cs),
(471,693,o),
(427,733,o),
(427,785,cs),
(427,836,o),
(467,871,o),
(556,871,cs),
(604,871,o),
(642,860,o),
(673,839,c),
(703,699,l),
(939,699,l),
(940,1025,l),
(845,1068,o),
(689,1099,o),
(526,1099,cs),
(313,1099,o),
(189,1030,o),
(133,927,cs),
(105,876,o),
(91,820,o),
(91,759,cs),
(91,580,o),
(208,458,o),
(461,409,cs),
(540,394,o),
(592,378,o),
(617,359,cs),
(641,340,o),
(653,319,o),
(653,296,cs),
(653,273,o),
(642,253,o),
(621,238,cs),
(600,223,o),
(561,215,o),
(504,215,cs),
(443,215,o),
(399,230,o),
(371,247,c),
(331,404,l),
(94,404,l),
(98,67,l),
(217,12,o),
(365,-21,o),
(536,-21,cs)
);
}
);
width = 1041;
}
);
note = s;
unicode = 115;
},
{
glyphname = t;
lastChange = "2022-11-15 15:09:44 +0000";
layers = (
{
layerId = m01;
shapes = (
{
closed = 1;
nodes = (
(540,-21,o),
(580,-18,o),
(620,-7,c),
(610,42,l),
(551,35,o),
(527,33,o),
(484,33,cs),
(385,33,o),
(320,102,o),
(320,279,cs),
(320,1027,l),
(586,1027,l),
(586,1082,l),
(320,1082,l),
(320,1374,l),
(265,1374,l),
(265,1082,l),
(65,1082,l),
(65,1027,l),
(265,1027,l),
(265,279,ls),
(265,68,o),
(342,-21,o),
(487,-21,cs)
);
}
);
width = 719;
},
{
layerId = "5711A9A5-FB70-4E23-B0BA-A0F8E72F65B6";
shapes = (
{
closed = 1;
nodes = (
(534,-19,o),
(599,-11,o),
(647,4,c),
(629,90,l),
(582,83,o),
(539,76,o),
(494,76,cs),
(409,76,o),
(353,135,o),
(353,279,cs),
(353,985,l),
(605,985,l),
(605,1082,l),
(353,1082,l),
(353,1360,l),
(233,1360,l),
(233,1082,l),
(46,1082,l),
(46,985,l),
(233,985,l),
(233,279,ls),
(233,70,o),
(321,-19,o),
(473,-19,cs)
);
}
);
width = 724;
},
{
layerId = "C589F45C-3E8C-4D57-BBA0-76FE1AFDA3B7";
shapes = (
{
closed = 1;
nodes = (
(528,-17,o),
(621,-1,o),
(678,16,c),
(651,145,l),
(619,138,o),
(553,127,o),
(506,127,cs),
(437,127,o),
(392,175,o),
(392,279,cs),
(392,936,l),
(627,936,l),
(627,1082,l),
(392,1082,l),
(392,1343,l),
(195,1343,l),
(195,1082,l),
(24,1082,l),
(24,936,l),
(195,936,l),
(195,279,ls),
(195,72,o),
(296,-17,o),
(456,-17,cs)
);
}
);
userData = {
assembly = "NPUSHB[ ]	/* 60 values pushed */
20 1 6 1 21 1 0 6 2 76 0 3 2 3 133 5 1 1 1 2 95 4 1 2 2 34 77 0 6 6 0 98 7 1 0 0 38 0 78 1 0 18 16 13 12 11 10 9 8 7 6 5 4 0 23 1 23 8 8 22 
CALL[ ]	/* CallFunction */";
};
width = 730;
},
{
layerId = "B9892E43-DBAA-41C3-9AC8-C95A43C93A60";
shapes = (
{
closed = 1;
nodes = (
(556,-21,o),
(629,-8,o),
(689,9,c),
(664,220,l),
(637,215,o),
(596,209,o),
(564,209,cs),
(503,209,o),
(465,242,o),
(465,326,cs),
(465,877,l),
(664,877,l),
(664,1082,l),
(465,1082,l),
(465,1347,l),
(174,1347,l),
(174,1082,l),
(25,1082,l),
(25,877,l),
(174,877,l),
(174,325,ls),
(174,85,o),
(287,-21,o),
(488,-21,cs)
);
}
);
userData = {
assembly = "NPUSHB[ ]	/* 60 values pushed */
20 1 6 1 21 1 0 6 2 76 0 3 2 3 133 5 1 1 1 2 95 4 1 2 2 34 77 0 6 6 0 98 7 1 0 0 38 0 78 1 0 18 16 13 12 11 10 9 8 7 6 5 4 0 23 1 23 8 8 22 
CALL[ ]	/* CallFunction */";
};
width = 735;
},
{
layerId = "14DC179B-5B87-47A1-B3E1-5CE1808186AA";
shapes = (
{
closed = 1;
nodes = (
(573,-23,o),
(635,-12,o),
(696,5,c),
(672,267,l),
(648,263,o),
(624,260,o),
(600,260,cs),
(544,260,o),
(510,284,o),
(510,355,cs),
(510,840,l),
(687,840,l),
(687,1082,l),
(510,1082,l),
(510,1349,l),
(161,1349,l),
(161,1082,l),
(26,1082,l),
(26,840,l),
(161,840,l),
(161,354,ls),
(161,93,o),
(281,-23,o),
(508,-23,cs)
);
}
);
width = 738;
}
);
note = t;
unicode = 116;
},
{
glyphname = u;
lastChange = "2022-11-15 15:09:44 +0000";
layers = (
{
layerId = m01;
shapes = (
{
closed = 1;
nodes = (
(713,-21,o),
(830,57,o),
(898,194,c),
(906,0,l),
(1114,0,l),
(1114,54,l),
(951,54,l),
(951,1082,l),
(733,1082,l),
(733,1028,l),
(896,1028,l),
(896,336,l),
(863,153,o),
(756,33,o),
(531,33,cs),
(351,33,o),
(241,170,o),
(241,463,cs),
(241,1082,l),
(44,1082,l),
(44,1028,l),
(187,1028,l),
(187,465,ls),
(187,133,o),
(314,-21,o),
(533,-21,cs)
);
}
);
width = 1202;
},
{
layerId = "5711A9A5-FB70-4E23-B0BA-A0F8E72F65B6";
shapes = (
{
closed = 1;
nodes = (
(702,-21,o),
(816,51,o),
(884,178,c),
(894,0,l),
(1145,0,l),
(1145,87,l),
(1000,100,l),
(1000,1082,l),
(725,1082,l),
(725,994,l),
(879,981,l),
(879,320,l),
(840,175,o),
(740,82,o),
(555,82,cs),
(391,82,o),
(302,189,o),
(302,453,cs),
(302,1082,l),
(48,1082,l),
(48,994,l),
(182,981,l),
(182,455,ls),
(182,130,o),
(314,-21,o),
(541,-21,cs)
);
}
);
width = 1222;
},
{
layerId = "C589F45C-3E8C-4D57-BBA0-76FE1AFDA3B7";
shapes = (
{
closed = 1;
nodes = (
(690,-21,o),
(799,44,o),
(867,160,c),
(880,0,l),
(1181,0,l),
(1181,126,l),
(1057,154,l),
(1057,1082,l),
(715,1082,l),
(715,955,l),
(860,927,l),
(860,302,l),
(813,198,o),
(723,139,o),
(583,139,cs),
(439,139,o),
(373,211,o),
(373,442,cs),
(373,1082,l),
(52,1082,l),
(52,955,l),
(176,927,l),
(176,444,ls),
(176,125,o),
(315,-21,o),
(550,-21,cs)
);
}
);
userData = {
assembly = "MPPEM[ ]	/* MeasurePixelPerEm */
PUSHB[ ]	/* 1 value pushed */
23 
LT[ ]	/* LessThan */
IF[ ]	/* If */
NPUSHB[ ]	/* 16 values pushed */
25 21 17 16 15 5 4 7 2 1 22 1 0 2 2 76 
ELSE[ ]	/* Else */
NPUSHB[ ]	/* 16 values pushed */
25 21 17 16 15 5 4 7 2 1 22 1 4 2 2 76 
EIF[ ]	/* EndIf */
MPPEM[ ]	/* MeasurePixelPerEm */
PUSHB[ ]	/* 1 value pushed */
23 
LT[ ]	/* LessThan */
IF[ ]	/* If */
NPUSHB[ ]	/* 19 values pushed */
3 1 1 1 34 77 0 2 2 0 97 4 5 2 0 0 38 0 78 
ELSE[ ]	/* Else */
NPUSHB[ ]	/* 23 values pushed */
3 1 1 1 34 77 0 4 4 32 77 0 2 2 0 97 5 1 0 0 38 0 78 
EIF[ ]	/* EndIf */
NPUSHB[ ]	/* 17 values pushed */
1 0 24 23 20 18 13 11 8 6 0 27 1 27 6 8 22 
CALL[ ]	/* CallFunction */";
};
width = 1245;
},
{
layerId = "B9892E43-DBAA-41C3-9AC8-C95A43C93A60";
shapes = (
{
closed = 1;
nodes = (
(651,-21,o),
(756,36,o),
(824,137,c),
(844,0,l),
(1230,0,l),
(1230,175,l),
(1100,205,l),
(1100,1082,l),
(679,1082,l),
(679,906,l),
(808,876,l),
(808,304,l),
(765,241,o),
(698,206,o),
(611,206,cs),
(502,206,o),
(448,268,o),
(448,423,cs),
(448,1082,l),
(37,1082,l),
(37,906,l),
(156,876,l),
(156,425,ls),
(156,120,o),
(294,-21,o),
(522,-21,cs)
);
}
);
width = 1275;
},
{
layerId = "14DC179B-5B87-47A1-B3E1-5CE1808186AA";
shapes = (
{
closed = 1;
nodes = (
(628,-21,o),
(729,30,o),
(798,123,c),
(821,0,l),
(1261,0,l),
(1261,205,l),
(1126,237,l),
(1126,1082,l),
(657,1082,l),
(657,876,l),
(775,844,l),
(775,306,l),
(735,267,o),
(681,248,o),
(629,248,cs),
(540,248,o),
(495,304,o),
(495,411,cs),
(495,1082,l),
(28,1082,l),
(28,876,l),
(144,844,l),
(144,413,ls),
(144,117,o),
(280,-21,o),
(504,-21,cs)
);
}
);
width = 1293;
}
);
note = u;
unicode = 117;
},
{
glyphname = v;
lastChange = "2022-11-15 15:09:44 +0000";
layers = (
{
layerId = m01;
shapes = (
{
closed = 1;
nodes = (
(1020,1028,l),
(1138,1028,l),
(1138,1082,l),
(820,1082,l),
(820,1028,l),
(962,1028,l),
(650,229,l),
(598,83,l),
(592,83,l),
(541,229,l),
(228,1028,l),
(370,1028,l),
(370,1082,l),
(52,1082,l),
(52,1028,l),
(170,1028,l),
(569,0,l),
(621,0,l)
);
}
);
width = 1165;
},
{
layerId = "5711A9A5-FB70-4E23-B0BA-A0F8E72F65B6";
shapes = (
{
closed = 1;
nodes = (
(1039,987,l),
(1156,994,l),
(1156,1082,l),
(775,1082,l),
(775,994,l),
(919,985,l),
(648,271,l),
(605,152,l),
(599,152,l),
(559,271,l),
(279,985,l),
(421,994,l),
(421,1082,l),
(40,1082,l),
(40,994,l),
(155,987,l),
(548,0,l),
(656,0,l)
);
}
);
width = 1184;
},
{
layerId = "C589F45C-3E8C-4D57-BBA0-76FE1AFDA3B7";
shapes = (
{
closed = 1;
nodes = (
(645,319,l),
(613,232,l),
(607,232,l),
(579,319,l),
(339,935,l),
(480,955,l),
(480,1082,l),
(26,1082,l),
(26,955,l),
(138,940,l),
(523,0,l),
(696,0,l),
(1062,940,l),
(1176,955,l),
(1176,1082,l),
(723,1082,l),
(723,955,l),
(868,935,l)
);
}
);
userData = {
assembly = "NPUSHB[ ]	/* 30 values pushed */
17 14 12 11 8 3 0 7 1 0 1 76 2 1 0 0 34 77 0 1 1 32 1 78 19 19 17 3 8 25 
CALL[ ]	/* CallFunction */";
};
width = 1206;
},
{
layerId = "B9892E43-DBAA-41C3-9AC8-C95A43C93A60";
shapes = (
{
closed = 1;
nodes = (
(1225,1082,l),
(701,1082,l),
(701,907,l),
(834,886,l),
(655,396,l),
(627,312,l),
(621,312,l),
(596,396,l),
(433,887,l),
(547,907,l),
(547,1082,l),
(22,1082,l),
(22,906,l),
(139,888,l),
(466,0,l),
(763,0,l),
(1105,886,l),
(1225,906,l)
);
}
);
userData = {
assembly = "NPUSHB[ ]	/* 30 values pushed */
17 14 13 10 8 7 4 7 0 1 1 76 2 1 1 1 34 77 0 0 0 32 0 78 25 19 17 3 8 25 
CALL[ ]	/* CallFunction */";
};
width = 1247;
},
{
layerId = "14DC179B-5B87-47A1-B3E1-5CE1808186AA";
shapes = (
{
closed = 1;
nodes = (
(1132,852,l),
(1256,876,l),
(1256,1082,l),
(688,1082,l),
(688,877,l),
(813,856,l),
(662,444,l),
(635,362,l),
(629,362,l),
(607,444,l),
(492,857,l),
(589,877,l),
(589,1082,l),
(20,1082,l),
(20,876,l),
(140,856,l),
(431,0,l),
(804,0,l)
);
}
);
width = 1272;
}
);
note = v;
unicode = 118;
},
{
glyphname = w;
lastChange = "2022-11-15 15:09:44 +0000";
layers = (
{
layerId = m01;
shapes = (
{
closed = 1;
nodes = (
(820,813,l),
(875,994,l),
(881,994,l),
(940,813,l),
(1222,0,l),
(1277,0,l),
(1596,1028,l),
(1719,1028,l),
(1719,1082,l),
(1386,1082,l),
(1386,1028,l),
(1534,1028,l),
(1251,91,l),
(1245,90,l),
(1170,313,l),
(906,1082,l),
(851,1082,l),
(594,313,l),
(524,91,l),
(518,92,l),
(453,313,l),
(236,1028,l),
(384,1028,l),
(384,1082,l),
(52,1082,l),
(52,1028,l),
(174,1028,l),
(492,0,l),
(547,0,l)
);
}
);
width = 1787;
},
{
layerId = "5711A9A5-FB70-4E23-B0BA-A0F8E72F65B6";
shapes = (
{
closed = 1;
nodes = (
(839,738,l),
(893,915,l),
(899,916,l),
(954,738,l),
(1207,0,l),
(1323,0,l),
(1624,986,l),
(1746,994,l),
(1746,1082,l),
(1365,1082,l),
(1365,994,l),
(1507,985,l),
(1321,351,l),
(1263,162,l),
(1257,161,l),
(1195,351,l),
(949,1082,l),
(843,1082,l),
(596,350,l),
(538,172,l),
(532,172,l),
(482,350,l),
(296,984,l),
(437,994,l),
(437,1082,l),
(52,1082,l),
(52,994,l),
(174,988,l),
(476,0,l),
(584,0,l)
);
}
);
width = 1804;
},
{
layerId = "C589F45C-3E8C-4D57-BBA0-76FE1AFDA3B7";
shapes = (
{
closed = 1;
nodes = (
(1657,938,l),
(1777,955,l),
(1777,1082,l),
(1340,1082,l),
(1340,955,l),
(1476,934,l),
(1325,396,l),
(1278,244,l),
(1272,244,l),
(1224,396,l),
(1000,1082,l),
(834,1082,l),
(599,394,l),
(555,266,l),
(549,266,l),
(515,394,l),
(366,933,l),
(499,955,l),
(499,1082,l),
(52,1082,l),
(52,955,l),
(173,941,l),
(458,0,l),
(627,0,l),
(862,650,l),
(913,823,l),
(919,824,l),
(971,650,l),
(1190,0,l),
(1377,0,l)
);
}
);
userData = {
assembly = "NPUSHB[ ]	/* 42 values pushed */
27 24 23 20 14 12 11 8 2 9 0 1 1 76 3 2 2 1 1 34 77 5 4 2 0 0 32 0 78 0 0 0 29 0 29 23 23 19 21 6 8 26 
CALL[ ]	/* CallFunction */";
};
width = 1823;
},
{
layerId = "B9892E43-DBAA-41C3-9AC8-C95A43C93A60";
shapes = (
{
closed = 1;
nodes = (
(912,655,l),
(947,536,l),
(1145,0,l),
(1391,0,l),
(1666,882,l),
(1792,906,l),
(1792,1082,l),
(1280,1082,l),
(1280,907,l),
(1406,884,l),
(1288,456,l),
(1262,368,l),
(1256,368,l),
(1228,456,l),
(1013,1082,l),
(817,1082,l),
(595,464,l),
(568,381,l),
(562,381,l),
(542,464,l),
(442,885,l),
(556,907,l),
(556,1082,l),
(33,1082,l),
(33,906,l),
(165,882,l),
(417,0,l),
(676,0,l),
(871,535,l),
(906,655,l)
);
}
);
userData = {
assembly = "NPUSHB[ ]	/* 36 values pushed */
28 23 20 19 16 10 8 7 4 9 0 1 1 76 3 2 2 1 1 34 77 4 1 0 0 32 0 78 19 23 23 19 17 5 8 27 
CALL[ ]	/* CallFunction */";
};
width = 1822;
},
{
layerId = "14DC179B-5B87-47A1-B3E1-5CE1808186AA";
shapes = (
{
closed = 1;
nodes = (
(877,464,l),
(901,550,l),
(907,550,l),
(932,465,l),
(1117,0,l),
(1399,0,l),
(1671,847,l),
(1801,876,l),
(1801,1082,l),
(1242,1082,l),
(1242,877,l),
(1362,853,l),
(1265,493,l),
(1252,445,l),
(1246,445,l),
(1231,493,l),
(1021,1082,l),
(806,1082,l),
(593,508,l),
(576,453,l),
(570,453,l),
(559,508,l),
(489,855,l),
(591,877,l),
(591,1082,l),
(21,1082,l),
(21,876,l),
(160,845,l),
(391,0,l),
(706,0,l)
);
}
);
width = 1821;
}
);
note = w;
unicode = 119;
},
{
glyphname = x;
lastChange = "2022-11-15 15:09:44 +0000";
layers = (
{
layerId = m01;
shapes = (
{
closed = 1;
nodes = (
(399,54,l),
(275,54,l),
(602,508,l),
(930,54,l),
(806,54,l),
(806,0,l),
(1123,0,l),
(1123,54,l),
(997,54,l),
(636,555,l),
(977,1028,l),
(1103,1028,l),
(1103,1082,l),
(785,1082,l),
(785,1028,l),
(909,1028,l),
(603,602,l),
(296,1028,l),
(420,1028,l),
(420,1082,l),
(102,1082,l),
(102,1028,l),
(228,1028,l),
(569,555,l),
(208,54,l),
(82,54,l),
(82,0,l),
(399,0,l)
);
}
);
width = 1192;
},
{
layerId = "5711A9A5-FB70-4E23-B0BA-A0F8E72F65B6";
shapes = (
{
closed = 1;
nodes = (
(438,87,l),
(317,92,l),
(600,470,l),
(886,92,l),
(759,87,l),
(759,0,l),
(1141,0,l),
(1141,87,l),
(1022,98,l),
(672,553,l),
(991,984,l),
(1109,994,l),
(1109,1082,l),
(746,1082,l),
(746,994,l),
(866,989,l),
(602,632,l),
(334,989,l),
(450,994,l),
(450,1082,l),
(84,1082,l),
(84,994,l),
(201,984,l),
(530,551,l),
(187,98,l),
(64,87,l),
(64,0,l),
(438,0,l)
);
}
);
width = 1197;
},
{
layerId = "C589F45C-3E8C-4D57-BBA0-76FE1AFDA3B7";
shapes = (
{
closed = 1;
nodes = (
(1163,0,l),
(1163,126,l),
(1051,149,l),
(714,550,l),
(1007,932,l),
(1117,955,l),
(1117,1082,l),
(700,1082,l),
(700,955,l),
(816,944,l),
(600,667,l),
(378,943,l),
(486,955,l),
(486,1082,l),
(62,1082,l),
(62,955,l),
(169,932,l),
(485,547,l),
(162,149,l),
(42,126,l),
(42,0,l),
(484,0,l),
(484,126,l),
(367,137,l),
(597,426,l),
(834,137,l),
(704,126,l),
(704,0,l)
);
}
);
userData = {
assembly = "NPUSHB[ ]	/* 41 values pushed */
25 23 21 18 17 16 15 14 11 9 7 4 3 2 1 0 16 0 1 1 76 2 1 1 1 34 77 3 1 0 0 32 0 78 22 22 22 21 4 8 26 
CALL[ ]	/* CallFunction */";
};
width = 1203;
},
{
layerId = "B9892E43-DBAA-41C3-9AC8-C95A43C93A60";
shapes = (
{
closed = 1;
nodes = (
(661,387,l),
(828,180,l),
(734,167,l),
(734,0,l),
(1289,0,l),
(1289,175,l),
(1156,193,l),
(847,554,l),
(1124,889,l),
(1245,906,l),
(1245,1082,l),
(728,1082,l),
(728,914,l),
(821,901,l),
(664,695,l),
(507,901,l),
(591,914,l),
(591,1082,l),
(55,1082,l),
(55,906,l),
(186,889,l),
(479,542,l),
(169,193,l),
(30,175,l),
(30,0,l),
(590,0,l),
(590,167,l),
(498,179,l)
);
}
);
userData = {
assembly = "NPUSHB[ ]	/* 41 values pushed */
27 26 25 24 21 19 17 14 13 12 11 10 7 5 3 0 16 0 1 1 76 2 1 1 1 34 77 3 1 0 0 32 0 78 22 22 22 17 4 8 26 
CALL[ ]	/* CallFunction */";
};
width = 1319;
},
{
layerId = "14DC179B-5B87-47A1-B3E1-5CE1808186AA";
shapes = (
{
closed = 1;
nodes = (
(656,192,l),
(579,205,l),
(701,362,l),
(824,207,l),
(753,192,l),
(753,0,l),
(1367,0,l),
(1367,205,l),
(1221,220,l),
(930,557,l),
(1197,862,l),
(1324,876,l),
(1324,1082,l),
(745,1082,l),
(745,889,l),
(824,874,l),
(704,713,l),
(587,875,l),
(656,889,l),
(656,1082,l),
(51,1082,l),
(51,876,l),
(196,862,l),
(475,539,l),
(173,220,l),
(23,205,l),
(23,0,l),
(656,0,l)
);
}
);
width = 1391;
}
);
note = x;
unicode = 120;
},
{
glyphname = y;
lastChange = "2022-11-15 15:09:44 +0000";
layers = (
{
layerId = m01;
shapes = (
{
closed = 1;
nodes = (
(396,-437,o),
(463,-391,o),
(509,-314,cs),
(532,-275,o),
(553,-231,o),
(572,-180,cs),
(1032,1028,l),
(1150,1028,l),
(1150,1082,l),
(830,1082,l),
(830,1028,l),
(972,1028,l),
(613,88,l),
(607,88,l),
(567,196,l),
(232,1028,l),
(374,1028,l),
(374,1082,l),
(55,1082,l),
(55,1028,l),
(173,1028,l),
(583,6,l),
(518,-170,ls),
(465,-311,o),
(406,-384,o),
(283,-384,cs),
(267,-384,o),
(231,-379,o),
(216,-375,c),
(207,-426,l),
(222,-431,o),
(258,-437,o),
(283,-437,cs)
);
}
);
width = 1185;
},
{
layerId = "5711A9A5-FB70-4E23-B0BA-A0F8E72F65B6";
shapes = (
{
closed = 1;
nodes = (
(410,-437,o),
(482,-390,o),
(533,-310,cs),
(558,-270,o),
(581,-225,o),
(601,-174,cs),
(1045,987,l),
(1160,994,l),
(1160,1082,l),
(782,1082,l),
(782,994,l),
(923,985,l),
(614,164,l),
(608,164,l),
(563,287,l),
(285,985,l),
(422,994,l),
(422,1082,l),
(41,1082,l),
(41,994,l),
(158,987,l),
(555,13,l),
(499,-134,ls),
(448,-261,o),
(395,-332,o),
(291,-332,cs),
(275,-332,o),
(233,-328,o),
(214,-325,c),
(200,-424,l),
(220,-429,o),
(267,-437,o),
(295,-437,cs)
);
}
);
width = 1188;
},
{
layerId = "C589F45C-3E8C-4D57-BBA0-76FE1AFDA3B7";
shapes = (
{
closed = 1;
nodes = (
(425,-437,o),
(505,-387,o),
(562,-305,cs),
(590,-264,o),
(614,-218,o),
(634,-166,cs),
(1060,939,l),
(1172,955,l),
(1172,1082,l),
(727,1082,l),
(727,955,l),
(865,935,l),
(615,253,l),
(609,253,l),
(558,394,l),
(347,935,l),
(478,955,l),
(478,1082,l),
(24,1082,l),
(24,955,l),
(140,939,l),
(523,22,l),
(476,-92,ls),
(431,-203,o),
(384,-271,o),
(300,-271,cs),
(285,-271,o),
(235,-269,o),
(212,-266,c),
(192,-421,l),
(219,-428,o),
(278,-437,o),
(309,-437,cs)
);
}
);
userData = {
assembly = "NPUSHB[ ]	/* 50 values pushed */
25 22 21 19 17 16 13 11 8 1 2 3 1 0 1 2 76 3 1 2 2 34 77 0 1 1 0 98 4 1 0 0 42 0 78 1 0 24 23 15 14 8 4 0 30 1 30 5 8 22 
CALL[ ]	/* CallFunction */";
};
width = 1192;
},
{
layerId = "B9892E43-DBAA-41C3-9AC8-C95A43C93A60";
shapes = (
{
closed = 1;
nodes = (
(502,-437,o),
(595,-382,o),
(657,-298,cs),
(688,-257,o),
(713,-211,o),
(733,-161,cs),
(1146,889,l),
(1268,906,l),
(1268,1082,l),
(733,1082,l),
(733,906,l),
(862,888,l),
(661,350,l),
(655,350,l),
(464,886,l),
(596,906,l),
(596,1082,l),
(22,1082,l),
(22,906,l),
(155,887,l),
(517,-12,l),
(493,-79,ls),
(465,-162,o),
(401,-207,o),
(317,-207,cs),
(294,-207,o),
(260,-204,o),
(235,-199,c),
(202,-413,l),
(253,-428,o),
(312,-437,o),
(363,-437,cs)
);
}
);
userData = {
assembly = "NPUSHB[ ]	/* 50 values pushed */
25 22 21 19 17 16 13 11 8 1 2 3 1 0 1 2 76 3 1 2 2 34 77 0 1 1 0 98 4 1 0 0 42 0 78 1 0 24 23 15 14 8 6 0 30 1 30 5 8 22 
CALL[ ]	/* CallFunction */";
};
width = 1285;
},
{
layerId = "14DC179B-5B87-47A1-B3E1-5CE1808186AA";
shapes = (
{
closed = 1;
nodes = (
(549,-437,o),
(651,-379,o),
(716,-294,cs),
(749,-252,o),
(775,-207,o),
(794,-158,cs),
(1199,858,l),
(1327,876,l),
(1327,1082,l),
(736,1082,l),
(736,876,l),
(860,859,l),
(689,410,l),
(683,410,l),
(681,418,l),
(536,856,l),
(670,876,l),
(670,1082,l),
(20,1082,l),
(20,876,l),
(165,855,l),
(513,-33,l),
(503,-71,ls),
(486,-136,o),
(412,-167,o),
(327,-167,cs),
(300,-167,o),
(277,-164,o),
(250,-157,c),
(208,-408,l),
(273,-427,o),
(335,-437,o),
(396,-437,cs)
);
}
);
width = 1343;
}
);
note = y;
unicode = 121;
},
{
glyphname = z;
lastChange = "2022-11-15 15:09:44 +0000";
layers = (
{
layerId = m01;
shapes = (
{
closed = 1;
nodes = (
(963,293,l),
(909,293,l),
(909,54,l),
(193,54,l),
(904,1034,l),
(904,1082,l),
(121,1082,l),
(121,789,l),
(175,789,l),
(175,1027,l),
(831,1027,l),
(120,44,l),
(120,0,l),
(963,0,l)
);
}
);
width = 1077;
},
{
layerId = "5711A9A5-FB70-4E23-B0BA-A0F8E72F65B6";
shapes = (
{
closed = 1;
nodes = (
(962,311,l),
(865,311,l),
(853,98,l),
(254,98,l),
(912,994,l),
(912,1082,l),
(112,1082,l),
(112,770,l),
(209,770,l),
(221,982,l),
(760,982,l),
(105,87,l),
(105,0,l),
(962,0,l)
);
}
);
width = 1056;
},
{
layerId = "C589F45C-3E8C-4D57-BBA0-76FE1AFDA3B7";
shapes = (
{
closed = 1;
nodes = (
(101,1082,l),
(101,748,l),
(249,748,l),
(274,930,l),
(677,930,l),
(88,138,l),
(88,0,l),
(960,0,l),
(960,333,l),
(813,333,l),
(787,150,l),
(326,150,l),
(921,948,l),
(921,1082,l)
);
}
);
userData = {
assembly = "NPUSHB[ ]	/* 10 values pushed */
0 1 3 5 7 1 2 0 2 76 
MPPEM[ ]	/* MeasurePixelPerEm */
PUSHB[ ]	/* 1 value pushed */
14 
LT[ ]	/* LessThan */
IF[ ]	/* If */
NPUSHB[ ]	/* 34 values pushed */
0 4 3 1 3 4 114 0 1 0 0 1 112 0 3 3 5 95 0 5 5 34 77 0 0 0 2 96 0 2 2 32 2 78 
ELSE[ ]	/* Else */
NPUSHB[ ]	/* 36 values pushed */
0 4 3 1 3 4 1 128 0 1 0 3 1 0 126 0 3 3 5 95 0 5 5 34 77 0 0 0 2 96 0 2 2 32 2 78 
EIF[ ]	/* EndIf */
NPUSHB[ ]	/* 9 values pushed */
17 17 18 17 17 17 6 8 28 
CALL[ ]	/* CallFunction */";
};
width = 1032;
},
{
layerId = "B9892E43-DBAA-41C3-9AC8-C95A43C93A60";
shapes = (
{
closed = 1;
nodes = (
(776,209,l),
(470,209,l),
(1001,895,l),
(1001,1082,l),
(112,1082,l),
(112,693,l),
(326,693,l),
(359,878,l),
(651,878,l),
(88,172,l),
(88,0,l),
(1024,0,l),
(1024,408,l),
(819,408,l)
);
}
);
userData = {
assembly = "NPUSHB[ ]	/* 10 values pushed */
10 1 1 3 3 1 0 4 2 76 
MPPEM[ ]	/* MeasurePixelPerEm */
PUSHB[ ]	/* 1 value pushed */
12 
LT[ ]	/* LessThan */
IF[ ]	/* If */
NPUSHB[ ]	/* 35 values pushed */
0 2 1 5 1 2 114 6 1 5 4 4 5 112 0 1 1 3 95 0 3 3 34 77 0 4 4 0 96 0 0 0 32 0 78 
ELSE[ ]	/* Else */
MPPEM[ ]	/* MeasurePixelPerEm */
PUSHB[ ]	/* 1 value pushed */
14 
LT[ ]	/* LessThan */
IF[ ]	/* If */
NPUSHB[ ]	/* 36 values pushed */
0 2 1 5 1 2 114 6 1 5 4 1 5 4 126 0 1 1 3 95 0 3 3 34 77 0 4 4 0 96 0 0 0 32 0 78 
ELSE[ ]	/* Else */
NPUSHB[ ]	/* 37 values pushed */
0 2 1 5 1 2 5 128 6 1 5 4 1 5 4 126 0 1 1 3 95 0 3 3 34 77 0 4 4 0 96 0 0 0 32 0 78 
EIF[ ]	/* EndIf */
EIF[ ]	/* EndIf */
NPUSHB[ ]	/* 14 values pushed */
0 0 0 13 0 13 18 17 17 18 17 7 8 27 
CALL[ ]	/* CallFunction */";
};
width = 1107;
},
{
layerId = "14DC179B-5B87-47A1-B3E1-5CE1808186AA";
shapes = (
{
closed = 1;
nodes = (
(1064,455,l),
(823,455,l),
(769,246,l),
(559,246,l),
(1051,862,l),
(1051,1082,l),
(119,1082,l),
(119,659,l),
(374,659,l),
(412,846,l),
(635,846,l),
(88,193,l),
(88,0,l),
(1064,0,l)
);
}
);
width = 1154;
}
);
note = z;
unicode = 122;
},
{
glyphname = uni1780;
lastChange = "2022-11-15 15:09:44 +0000";
layers = (
{
layerId = m01;
shapes = (
{
closed = 1;
nodes = (
(1078,1083,o),
(1121,1054,o),
(1138,1054,cs),
(1181,1054,o),
(1211,1091,o),
(1226,1165,c),
(1209,1137,o),
(1191,1121,o),
(1171,1118,c),
(1165,1118,ls),
(1145,1118,o),
(1118,1132,o),
(1084,1161,cs),
(915,1303,l),
(738,1129,l),
(527,1303,l),
(216,1117,l),
(216,1065,l),
(329,976,ls),
(350,960,o),
(366,952,o),
(378,952,cs),
(389,952,o),
(407,960,o),
(430,975,c),
(281,1094,l),
(510,1231,l),
(726,1055,l),
(904,1226,l),
(1009,1140,ls)
);
},
{
closed = 1;
nodes = (
(392,0,l),
(392,698,ls),
(392,818,o),
(478,878,o),
(651,878,cs),
(791,878,ls),
(964,878,o),
(1051,818,o),
(1051,698,cs),
(1051,0,l),
(1113,0,l),
(1113,698,ls),
(1113,853,o),
(1006,931,o),
(791,931,cs),
(651,931,ls),
(436,931,o),
(329,853,o),
(329,698,cs),
(329,0,l)
);
}
);
width = 1442;
},
{
layerId = "5711A9A5-FB70-4E23-B0BA-A0F8E72F65B6";
shapes = (
{
closed = 1;
nodes = (
(1013,1076,o),
(1095,1024,o),
(1138,1024,cs),
(1181,1024,o),
(1221,1071,o),
(1256,1165,c),
(1231,1155,ls),
(1211,1147,o),
(1192,1143,o),
(1174,1143,cs),
(1147,1143,o),
(1123,1152,o),
(1100,1170,cs),
(1043,1214,l),
(930,1303,l),
(903,1303,l),
(738,1159,l),
(540,1303,l),
(513,1303,l),
(186,1117,l),
(186,1065,l),
(299,976,ls),
(320,960,o),
(340,952,o),
(361,952,cs),
(363,952,ls),
(384,952,o),
(411,970,o),
(443,1005,c),
(321,1087,l),
(496,1191,l),
(716,1024,l),
(893,1180,l)
);
},
{
closed = 1;
nodes = (
(422,0,l),
(422,698,ls),
(422,791,o),
(498,838,o),
(651,838,cs),
(791,838,ls),
(944,838,o),
(1021,791,o),
(1021,698,cs),
(1021,0,l),
(1143,0,l),
(1143,698,ls),
(1143,853,o),
(1026,931,o),
(791,931,cs),
(651,931,ls),
(416,931,o),
(299,853,o),
(299,698,cs),
(299,0,l)
);
}
);
width = 1442;
},
{
layerId = "C589F45C-3E8C-4D57-BBA0-76FE1AFDA3B7";
shapes = (
{
closed = 1;
nodes = (
(1163,776,o),
(1132,834,o),
(1070,873,cs),
(1008,912,o),
(915,931,o),
(791,931,cs),
(651,931,ls),
(527,931,o),
(434,912,o),
(372,873,cs),
(310,834,o),
(279,776,o),
(279,698,cs),
(279,0,l),
(442,0,l),
(442,698,ls),
(442,745,o),
(459,779,o),
(494,802,cs),
(529,826,o),
(582,838,o),
(651,838,cs),
(791,838,ls),
(860,838,o),
(913,826,o),
(948,802,cs),
(983,779,o),
(1001,745,o),
(1001,698,cs),
(1001,0,l),
(1163,0,l),
(1163,698,ls)
);
},
{
closed = 1;
nodes = (
(186,1085,l),
(299,996,ls),
(320,980,o),
(340,972,o),
(361,972,cs),
(363,972,ls),
(384,972,o),
(411,990,o),
(443,1025,c),
(331,1105,l),
(456,1170,l),
(686,1024,l),
(716,1024,l),
(863,1154,l),
(1010,1062,ls),
(1052,1037,o),
(1095,1024,o),
(1138,1024,cs),
(1181,1024,o),
(1221,1071,o),
(1256,1165,c),
(1203,1165,ls),
(1172,1165,o),
(1142,1173,o),
(1115,1190,cs),
(930,1303,l),
(893,1303,l),
(749,1178,l),
(550,1303,l),
(513,1303,l),
(186,1137,l)
);
}
);
userData = {
assembly = "NPUSHB[ ]	/* 67 values pushed */
40 28 2 8 6 37 36 30 29 25 5 4 8 2 76 0 5 4 3 4 5 3 128 0 8 9 1 4 5 8 4 105 0 3 0 1 0 3 1 105 7 1 6 6 17 77 2 1 0 0 19 0 78 49 47 34 18 20 52 22 52 20 52 16 10 7 31 
CALL[ ]	/* CallFunction */";
};
width = 1442;
},
{
layerId = "B9892E43-DBAA-41C3-9AC8-C95A43C93A60";
shapes = (
{
closed = 1;
nodes = (
(1213,843,o),
(1072,931,o),
(791,931,cs),
(651,931,ls),
(370,931,o),
(229,843,o),
(229,668,cs),
(229,0,l),
(492,0,l),
(492,668,ls),
(492,748,o),
(545,788,o),
(651,788,cs),
(791,788,ls),
(898,788,o),
(951,748,o),
(951,668,cs),
(951,0,l),
(1213,0,l),
(1213,668,ls)
);
},
{
closed = 1;
nodes = (
(239,976,l),
(260,960,o),
(300,952,o),
(361,952,cs),
(363,952,ls),
(384,952,o),
(411,976,o),
(443,1025,c),
(331,1105,l),
(406,1150,l),
(636,1004,l),
(716,1004,l),
(843,1124,l),
(1010,1032,ls),
(1052,1007,o),
(1108,994,o),
(1178,994,cs),
(1228,994,o),
(1271,1051,o),
(1306,1165,c),
(1253,1165,ls),
(1222,1165,o),
(1192,1173,o),
(1165,1190,cs),
(980,1303,l),
(893,1303,l),
(749,1178,l),
(550,1303,l),
(453,1303,l),
(136,1117,l),
(136,1065,l)
);
}
);
userData = {
assembly = "NPUSHB[ ]	/* 15 values pushed */
32 1 8 6 29 28 22 21 20 17 6 4 8 2 76 
MPPEM[ ]	/* MeasurePixelPerEm */
PUSHB[ ]	/* 1 value pushed */
50 
LT[ ]	/* LessThan */
IF[ ]	/* If */
NPUSHB[ ]	/* 38 values pushed */
0 5 4 3 4 5 3 128 0 8 9 1 4 5 8 4 105 0 3 0 1 0 3 1 106 7 1 6 6 17 77 2 1 0 0 19 0 78 
ELSE[ ]	/* Else */
NPUSHB[ ]	/* 45 values pushed */
0 4 8 9 8 4 9 128 0 5 9 3 9 5 3 128 0 8 0 9 5 8 9 105 0 3 0 1 0 3 1 106 7 1 6 6 17 77 2 1 0 0 19 0 78 
EIF[ ]	/* EndIf */
NPUSHB[ ]	/* 14 values pushed */
41 39 34 18 20 52 20 50 18 50 16 10 7 31 
CALL[ ]	/* CallFunction */";
};
width = 1442;
},
{
layerId = "14DC179B-5B87-47A1-B3E1-5CE1808186AA";
shapes = (
{
closed = 1;
nodes = (
(1032,974,o),
(1086,962,o),
(1161,962,cs),
(1240,962,o),
(1299,1035,o),
(1336,1182,c),
(1280,1182,ls),
(1243,1182,o),
(1210,1192,o),
(1181,1212,cs),
(993,1350,l),
(902,1350,l),
(750,1198,l),
(541,1350,l),
(439,1350,l),
(106,1123,l),
(106,1059,l),
(214,950,l),
(236,931,o),
(279,921,o),
(343,921,cs),
(345,921,ls),
(367,921,o),
(395,951,o),
(429,1010,c),
(311,1108,l),
(370,1148,l),
(632,954,l),
(689,954,l),
(836,1120,l),
(999,999,ls)
);
},
{
closed = 1;
nodes = (
(532,0,l),
(532,658,ls),
(532,711,o),
(572,738,o),
(651,738,cs),
(791,738,ls),
(871,738,o),
(911,711,o),
(911,658,cs),
(911,0,l),
(1253,0,l),
(1253,658,ls),
(1253,840,o),
(1099,931,o),
(791,931,cs),
(651,931,ls),
(343,931,o),
(189,840,o),
(189,658,cs),
(189,0,l)
);
}
);
width = 1442;
}
);
note = uni1780;
unicode = 6016;
},
{
glyphname = uni1781;
lastChange = "2022-11-15 15:09:44 +0000";
layers = (
{
layerId = m01;
shapes = (
{
closed = 1;
nodes = (
(493,948,o),
(528,927,o),
(528,884,cs),
(528,827,o),
(493,799,o),
(422,799,cs),
(402,799,o),
(392,812,o),
(392,838,cs),
(392,948,l),
(422,948,ls)
);
},
{
closed = 1;
nodes = (
(329,78,o),
(436,0,o),
(651,0,cs),
(791,0,ls),
(1006,0,o),
(1113,124,o),
(1113,372,cs),
(1113,555,l),
(1050,478,l),
(1050,372,ls),
(1050,159,o),
(964,53,o),
(791,53,cs),
(651,53,ls),
(478,53,o),
(392,113,o),
(392,233,cs),
(392,428,l),
(753,610,ls),
(993,731,o),
(1113,838,o),
(1113,931,cs),
(1113,1071,ls),
(1113,1226,o),
(1006,1303,o),
(791,1303,cs),
(651,1303,ls),
(436,1303,o),
(329,1226,o),
(329,1071,cs),
(329,838,ls),
(329,776,o),
(360,745,o),
(422,745,cs),
(529,745,o),
(582,791,o),
(582,884,cs),
(582,962,o),
(529,1001,o),
(422,1001,cs),
(392,1001,l),
(392,1071,ls),
(392,1190,o),
(478,1250,o),
(651,1250,cs),
(791,1250,ls),
(964,1250,o),
(1050,1190,o),
(1050,1071,cs),
(1050,931,ls),
(1050,851,o),
(930,751,o),
(690,630,cs),
(329,448,l),
(329,233,ls)
);
}
);
width = 1442;
},
{
layerId = "5711A9A5-FB70-4E23-B0BA-A0F8E72F65B6";
shapes = (
{
closed = 1;
nodes = (
(473,918,o),
(498,907,o),
(498,884,cs),
(498,847,o),
(473,829,o),
(422,829,c),
(422,918,l)
);
},
{
closed = 1;
nodes = (
(299,78,o),
(416,0,o),
(651,0,cs),
(791,0,ls),
(1026,0,o),
(1143,124,o),
(1143,372,cs),
(1143,555,l),
(1020,478,l),
(1020,372,ls),
(1020,186,o),
(944,93,o),
(791,93,cs),
(651,93,ls),
(498,93,o),
(422,140,o),
(422,233,cs),
(422,408,l),
(1000,715,ls),
(1095,766,o),
(1143,838,o),
(1143,931,cs),
(1143,1071,ls),
(1143,1226,o),
(1026,1303,o),
(791,1303,cs),
(651,1303,ls),
(416,1303,o),
(299,1226,o),
(299,1071,cs),
(299,838,ls),
(299,776,o),
(340,745,o),
(422,745,cs),
(529,745,o),
(582,791,o),
(582,884,cs),
(582,962,o),
(529,1001,o),
(422,1001,c),
(422,1071,ls),
(422,1164,o),
(498,1210,o),
(651,1210,cs),
(791,1210,ls),
(944,1210,o),
(1020,1164,o),
(1020,1071,cs),
(1020,931,ls),
(1020,864,o),
(959,799,o),
(838,734,cs),
(299,448,l),
(299,233,ls)
);
}
);
width = 1442;
},
{
layerId = "C589F45C-3E8C-4D57-BBA0-76FE1AFDA3B7";
shapes = (
{
closed = 1;
nodes = (
(457,908,o),
(469,906,o),
(476,902,cs),
(484,898,o),
(488,892,o),
(488,884,cs),
(488,869,o),
(484,858,o),
(476,850,cs),
(469,843,o),
(457,839,o),
(442,839,c),
(442,908,l)
);
},
{
closed = 1;
nodes = (
(279,233,ls),
(279,155,o),
(310,97,o),
(372,58,cs),
(434,19,o),
(527,0,o),
(651,0,cs),
(791,0,ls),
(915,0,o),
(1008,33,o),
(1070,98,cs),
(1132,163,o),
(1163,254,o),
(1163,372,cs),
(1163,565,l),
(1000,478,l),
(1000,372,ls),
(1000,288,o),
(983,220,o),
(948,169,cs),
(913,118,o),
(860,93,o),
(791,93,cs),
(651,93,ls),
(582,93,o),
(529,105,o),
(494,128,cs),
(459,151,o),
(442,186,o),
(442,233,cs),
(442,423,l),
(1000,715,ls),
(1054,744,o),
(1095,775,o),
(1122,809,cs),
(1149,844,o),
(1163,884,o),
(1163,931,cs),
(1163,1071,ls),
(1163,1148,o),
(1132,1207,o),
(1070,1246,cs),
(1008,1284,o),
(915,1303,o),
(791,1303,cs),
(651,1303,ls),
(527,1303,o),
(434,1284,o),
(372,1246,cs),
(310,1207,o),
(279,1148,o),
(279,1071,cs),
(279,838,ls),
(279,807,o),
(293,783,o),
(320,768,cs),
(347,753,o),
(388,745,o),
(442,745,cs),
(489,745,o),
(524,757,o),
(547,780,cs),
(570,803,o),
(582,838,o),
(582,884,cs),
(582,923,o),
(570,952,o),
(547,972,cs),
(524,991,o),
(489,1001,o),
(442,1001,c),
(442,1071,ls),
(442,1117,o),
(459,1152,o),
(494,1175,cs),
(529,1198,o),
(582,1210,o),
(651,1210,cs),
(791,1210,ls),
(860,1210,o),
(913,1198,o),
(948,1175,cs),
(983,1152,o),
(1000,1117,o),
(1000,1071,cs),
(1000,931,ls),
(1000,892,o),
(986,856,o),
(959,825,cs),
(932,793,o),
(892,763,o),
(838,734,cs),
(279,442,l)
);
}
);
userData = {
assembly = "NPUSHB[ ]	/* 14 values pushed */
5 0 2 0 2 71 60 59 48 4 5 3 2 76 
MPPEM[ ]	/* MeasurePixelPerEm */
PUSHB[ ]	/* 1 value pushed */
17 
LT[ ]	/* LessThan */
IF[ ]	/* If */
NPUSHB[ ]	/* 36 values pushed */
0 2 1 0 0 2 114 0 0 0 3 5 0 3 106 0 1 1 4 97 0 4 4 17 77 0 5 5 6 97 0 6 6 19 6 78 
ELSE[ ]	/* Else */
NPUSHB[ ]	/* 37 values pushed */
0 2 1 0 1 2 0 128 0 0 0 3 5 0 3 106 0 1 1 4 97 0 4 4 17 77 0 5 5 6 97 0 6 6 19 6 78 
EIF[ ]	/* EndIf */
NPUSHB[ ]	/* 10 values pushed */
57 61 55 38 20 59 17 7 7 29 
CALL[ ]	/* CallFunction */";
};
width = 1442;
},
{
layerId = "B9892E43-DBAA-41C3-9AC8-C95A43C93A60";
shapes = (
{
closed = 1;
nodes = (
(507,908,o),
(519,906,o),
(526,902,cs),
(534,898,o),
(538,892,o),
(538,884,cs),
(538,869,o),
(534,858,o),
(526,850,cs),
(519,843,o),
(507,839,o),
(492,839,c),
(492,908,l)
);
},
{
closed = 1;
nodes = (
(229,88,o),
(370,0,o),
(651,0,cs),
(791,0,ls),
(1072,0,o),
(1213,88,o),
(1213,263,cs),
(1213,565,l),
(951,478,l),
(951,263,ls),
(951,183,o),
(898,143,o),
(791,143,cs),
(651,143,ls),
(545,143,o),
(492,183,o),
(492,263,cs),
(492,423,l),
(812,591,ls),
(1025,702,o),
(1145,775,o),
(1172,810,cs),
(1199,844,o),
(1213,884,o),
(1213,931,cs),
(1213,1051,ls),
(1213,1219,o),
(1072,1303,o),
(791,1303,cs),
(651,1303,ls),
(370,1303,o),
(229,1219,o),
(229,1051,cs),
(229,838,ls),
(229,807,o),
(243,783,o),
(270,768,cs),
(297,753,o),
(328,745,o),
(362,745,cs),
(492,745,ls),
(539,745,o),
(574,757,o),
(597,780,cs),
(620,803,o),
(632,838,o),
(632,884,cs),
(632,923,o),
(620,952,o),
(597,972,cs),
(574,991,o),
(539,1001,o),
(492,1001,c),
(492,1051,ls),
(492,1124,o),
(545,1160,o),
(651,1160,cs),
(791,1160,ls),
(898,1160,o),
(951,1124,o),
(951,1051,cs),
(951,931,ls),
(950,852,o),
(896,791,o),
(788,734,cs),
(229,442,l),
(229,263,ls)
);
}
);
userData = {
assembly = "NPUSHB[ ]	/* 14 values pushed */
5 0 2 0 2 55 48 47 40 4 5 3 2 76 
MPPEM[ ]	/* MeasurePixelPerEm */
PUSHB[ ]	/* 1 value pushed */
17 
LT[ ]	/* LessThan */
IF[ ]	/* If */
NPUSHB[ ]	/* 36 values pushed */
0 2 1 0 0 2 114 0 0 0 3 5 0 3 106 0 1 1 4 97 0 4 4 17 77 0 5 5 6 97 0 6 6 19 6 78 
ELSE[ ]	/* Else */
NPUSHB[ ]	/* 37 values pushed */
0 2 1 0 1 2 0 128 0 0 0 3 5 0 3 106 0 1 1 4 97 0 4 4 17 77 0 5 5 6 97 0 6 6 19 6 78 
EIF[ ]	/* EndIf */
NPUSHB[ ]	/* 10 values pushed */
53 56 53 54 18 57 17 7 7 29 
CALL[ ]	/* CallFunction */";
};
width = 1442;
},
{
layerId = "14DC179B-5B87-47A1-B3E1-5CE1808186AA";
shapes = (
{
closed = 1;
nodes = (
(910,924,o),
(897,882,o),
(870,839,cs),
(843,796,o),
(616,679,o),
(189,488,c),
(189,272,ls),
(189,91,o),
(343,0,o),
(651,0,cs),
(791,0,ls),
(1099,0,o),
(1253,91,o),
(1253,272,cs),
(1253,585,l),
(911,495,l),
(911,272,ls),
(911,223,o),
(871,198,o),
(791,198,cs),
(651,198,ls),
(572,198,o),
(532,223,o),
(532,272,cs),
(532,438,l),
(931,623,o),
(1151,745,o),
(1192,804,cs),
(1233,863,o),
(1253,916,o),
(1253,965,cs),
(1253,1089,ls),
(1253,1263,o),
(1099,1350,o),
(791,1350,cs),
(651,1350,ls),
(343,1350,o),
(189,1263,o),
(189,1089,cs),
(189,868,ls),
(189,836,o),
(203,812,o),
(230,796,cs),
(257,780,o),
(301,772,o),
(362,772,cs),
(532,772,ls),
(579,772,o),
(614,784,o),
(637,808,cs),
(660,832,o),
(672,868,o),
(672,916,cs),
(672,956,o),
(660,986,o),
(637,1007,cs),
(614,1027,o),
(579,1037,o),
(532,1037,c),
(532,1089,ls),
(532,1131,o),
(572,1152,o),
(651,1152,cs),
(791,1152,ls),
(871,1152,o),
(911,1131,o),
(911,1089,cs),
(911,965,ls)
);
}
);
width = 1442;
}
);
note = uni1781;
unicode = 6017;
},
{
glyphname = uni1782;
lastChange = "2022-11-15 15:09:44 +0000";
layers = (
{
layerId = m01;
shapes = (
{
closed = 1;
nodes = (
(1078,1083,o),
(1121,1054,o),
(1138,1054,cs),
(1181,1054,o),
(1211,1091,o),
(1226,1165,c),
(1209,1137,o),
(1191,1121,o),
(1171,1118,c),
(1165,1118,ls),
(1145,1118,o),
(1118,1132,o),
(1084,1161,cs),
(915,1303,l),
(738,1129,l),
(527,1303,l),
(216,1117,l),
(216,1065,l),
(329,976,ls),
(350,960,o),
(366,952,o),
(378,952,cs),
(389,952,o),
(407,960,o),
(430,975,c),
(281,1094,l),
(510,1231,l),
(726,1055,l),
(904,1226,l),
(1009,1140,ls)
);
},
{
closed = 1;
nodes = (
(392,0,l),
(392,21,l),
(495,238,o),
(588,347,o),
(670,347,cs),
(693,347,o),
(710,345,o),
(721,340,cs),
(731,335,o),
(741,333,o),
(750,333,cs),
(754,333,ls),
(765,334,o),
(770,342,o),
(770,359,cs),
(770,391,o),
(730,400,o),
(670,400,cs),
(573,400,o),
(480,304,o),
(392,113,c),
(392,698,ls),
(392,818,o),
(478,878,o),
(651,878,cs),
(791,878,ls),
(964,878,o),
(1051,818,o),
(1051,698,cs),
(1051,0,l),
(1113,0,l),
(1113,698,ls),
(1113,853,o),
(1006,931,o),
(791,931,cs),
(651,931,ls),
(436,931,o),
(329,853,o),
(329,698,cs),
(329,0,l)
);
}
);
width = 1442;
},
{
layerId = "5711A9A5-FB70-4E23-B0BA-A0F8E72F65B6";
shapes = (
{
closed = 1;
nodes = (
(1013,1076,o),
(1095,1024,o),
(1138,1024,cs),
(1181,1024,o),
(1221,1071,o),
(1256,1165,c),
(1231,1155,ls),
(1211,1147,o),
(1192,1143,o),
(1174,1143,cs),
(1147,1143,o),
(1123,1152,o),
(1100,1170,cs),
(1043,1214,l),
(930,1303,l),
(903,1303,l),
(738,1159,l),
(540,1303,l),
(513,1303,l),
(186,1117,l),
(186,1065,l),
(299,976,ls),
(320,960,o),
(340,952,o),
(361,952,cs),
(363,952,ls),
(384,952,o),
(411,970,o),
(443,1005,c),
(321,1087,l),
(496,1191,l),
(716,1024,l),
(893,1180,l)
);
},
{
closed = 1;
nodes = (
(422,0,l),
(422,21,l),
(547,192,ls),
(600,265,o),
(651,302,o),
(700,302,cs),
(745,302,o),
(773,309,o),
(784,323,cs),
(795,337,o),
(800,351,o),
(800,364,cs),
(800,389,o),
(760,425,o),
(700,426,cs),
(623,426,o),
(556,389,o),
(501,316,cs),
(422,213,l),
(422,698,ls),
(422,791,o),
(498,838,o),
(651,838,cs),
(791,838,ls),
(944,838,o),
(1021,791,o),
(1021,698,cs),
(1021,0,l),
(1143,0,l),
(1143,698,ls),
(1143,853,o),
(1026,931,o),
(791,931,cs),
(651,931,ls),
(416,931,o),
(299,853,o),
(299,698,cs),
(299,0,l)
);
}
);
width = 1442;
},
{
layerId = "C589F45C-3E8C-4D57-BBA0-76FE1AFDA3B7";
shapes = (
{
closed = 1;
nodes = (
(1051,1037,o),
(1094,1025,o),
(1138,1025,cs),
(1181,1025,o),
(1221,1072,o),
(1256,1165,c),
(1203,1165,ls),
(1172,1165,o),
(1142,1173,o),
(1115,1190,cs),
(930,1303,l),
(893,1303,l),
(749,1178,l),
(550,1303,l),
(513,1303,l),
(186,1137,l),
(186,1085,l),
(299,996,ls),
(320,980,o),
(340,972,o),
(361,972,cs),
(363,972,ls),
(384,972,o),
(411,990,o),
(443,1025,c),
(331,1105,l),
(456,1170,l),
(686,1025,l),
(716,1025,l),
(863,1154,l),
(1010,1062,ls)
);
},
{
closed = 1;
nodes = (
(279,0,l),
(442,0,l),
(442,48,l),
(547,192,ls),
(570,224,o),
(593,247,o),
(616,262,cs),
(639,275,o),
(668,282,o),
(705,282,cs),
(709,282,ls),
(748,282,o),
(776,297,o),
(791,326,cs),
(798,338,o),
(801,349,o),
(801,359,cs),
(801,375,o),
(794,389,o),
(780,402,cs),
(757,424,o),
(729,435,o),
(698,436,cs),
(667,436,o),
(636,428,o),
(605,413,cs),
(574,398,o),
(539,366,o),
(501,316,cs),
(442,239,l),
(442,698,ls),
(442,745,o),
(459,779,o),
(494,802,cs),
(529,826,o),
(582,838,o),
(651,838,cs),
(791,838,ls),
(860,838,o),
(913,826,o),
(948,802,cs),
(983,779,o),
(1001,745,o),
(1001,698,cs),
(1001,0,l),
(1163,0,l),
(1163,698,ls),
(1163,776,o),
(1132,834,o),
(1070,873,cs),
(1008,912,o),
(915,931,o),
(791,931,cs),
(651,931,ls),
(527,931,o),
(434,912,o),
(372,873,cs),
(310,834,o),
(279,776,o),
(279,698,cs)
);
}
);
userData = {
assembly = "NPUSHB[ ]	/* 92 values pushed */
16 4 2 4 2 13 12 5 1 4 0 4 36 1 7 6 46 27 2 8 7 4 76 6 1 0 1 75 0 1 0 9 0 1 9 128 0 4 5 1 0 1 4 0 105 0 9 0 11 6 9 11 105 0 6 0 7 8 6 7 105 3 1 2 2 17 77 10 1 8 8 19 8 78 67 64 60 59 55 52 21 54 38 33 34 18 20 52 18 12 7 31 
CALL[ ]	/* CallFunction */";
};
width = 1442;
},
{
layerId = "B9892E43-DBAA-41C3-9AC8-C95A43C93A60";
shapes = (
{
closed = 1;
nodes = (
(1052,1007,o),
(1108,994,o),
(1178,994,cs),
(1228,994,o),
(1271,1051,o),
(1306,1165,c),
(1253,1165,ls),
(1222,1165,o),
(1192,1173,o),
(1165,1190,cs),
(980,1303,l),
(893,1303,l),
(749,1178,l),
(550,1303,l),
(453,1303,l),
(136,1117,l),
(136,1065,l),
(239,976,l),
(260,960,o),
(300,952,o),
(361,952,cs),
(363,952,ls),
(384,952,o),
(411,976,o),
(443,1025,c),
(331,1105,l),
(406,1150,l),
(636,1004,l),
(716,1004,l),
(843,1124,l),
(1010,1032,ls)
);
},
{
closed = 1;
nodes = (
(492,0,l),
(492,97,l),
(547,172,ls),
(570,204,o),
(593,227,o),
(616,242,cs),
(639,255,o),
(671,262,o),
(714,262,cs),
(757,262,o),
(786,277,o),
(801,306,cs),
(808,318,o),
(811,339,o),
(811,369,cs),
(811,398,o),
(804,419,o),
(790,432,cs),
(767,454,o),
(736,465,o),
(698,466,cs),
(667,466,o),
(636,458,o),
(605,443,cs),
(581,432,o),
(543,385,o),
(492,303,c),
(492,668,ls),
(492,748,o),
(545,788,o),
(651,788,cs),
(791,788,ls),
(898,788,o),
(951,748,o),
(951,668,cs),
(951,0,l),
(1213,0,l),
(1213,668,ls),
(1213,843,o),
(1072,931,o),
(791,931,cs),
(651,931,ls),
(370,931,o),
(229,843,o),
(229,668,cs),
(229,0,l)
);
}
);
userData = {
assembly = "NPUSHB[ ]	/* 23 values pushed */
16 1 4 2 13 12 6 5 4 1 6 0 4 27 1 7 6 44 1 8 7 4 76 
MPPEM[ ]	/* MeasurePixelPerEm */
PUSHB[ ]	/* 1 value pushed */
50 
LT[ ]	/* LessThan */
IF[ ]	/* If */
NPUSHB[ ]	/* 46 values pushed */
0 1 0 9 0 1 9 128 0 4 5 1 0 1 4 0 105 0 9 0 11 6 9 11 106 0 6 0 7 8 6 7 105 3 1 2 2 17 77 10 1 8 8 19 8 78 
ELSE[ ]	/* Else */
NPUSHB[ ]	/* 53 values pushed */
0 0 4 5 4 0 5 128 0 1 5 9 5 1 9 128 0 4 0 5 1 4 5 105 0 9 0 11 6 9 11 106 0 6 0 7 8 6 7 105 3 1 2 2 17 77 10 1 8 8 19 8 78 
EIF[ ]	/* EndIf */
NPUSHB[ ]	/* 18 values pushed */
59 56 54 53 51 48 21 38 37 33 34 18 20 52 18 12 7 31 
CALL[ ]	/* CallFunction */";
};
width = 1442;
},
{
layerId = "14DC179B-5B87-47A1-B3E1-5CE1808186AA";
shapes = (
{
closed = 1;
nodes = (
(1032,974,o),
(1086,962,o),
(1161,962,cs),
(1240,962,o),
(1299,1035,o),
(1336,1182,c),
(1280,1182,ls),
(1243,1182,o),
(1210,1192,o),
(1181,1212,cs),
(993,1350,l),
(902,1350,l),
(750,1198,l),
(541,1350,l),
(439,1350,l),
(106,1123,l),
(106,1059,l),
(214,950,l),
(236,931,o),
(279,921,o),
(343,921,cs),
(345,921,ls),
(367,921,o),
(395,951,o),
(429,1010,c),
(311,1108,l),
(370,1148,l),
(632,954,l),
(689,954,l),
(836,1120,l),
(999,999,ls)
);
},
{
closed = 1;
nodes = (
(532,0,l),
(532,65,l),
(557,110,ls),
(580,152,o),
(603,183,o),
(626,202,cs),
(649,220,o),
(681,229,o),
(724,229,cs),
(767,229,o),
(796,248,o),
(811,287,cs),
(818,303,o),
(821,331,o),
(821,370,cs),
(821,409,o),
(814,436,o),
(800,453,cs),
(777,482,o),
(746,497,o),
(708,498,cs),
(677,498,o),
(646,488,o),
(615,468,cs),
(596,456,o),
(568,415,o),
(532,344,c),
(532,658,ls),
(532,711,o),
(572,738,o),
(651,738,cs),
(791,738,ls),
(871,738,o),
(911,711,o),
(911,658,cs),
(911,0,l),
(1253,0,l),
(1253,658,ls),
(1253,840,o),
(1099,931,o),
(791,931,cs),
(651,931,ls),
(343,931,o),
(189,840,o),
(189,658,cs),
(189,0,l)
);
}
);
width = 1442;
}
);
note = uni1782;
unicode = 6018;
},
